<?xml version="1.0" encoding="UTF-8" standalone="no"?>
<!-- Created with Inkscape (http://www.inkscape.org/) -->

<svg
   xmlns:dc="http://purl.org/dc/elements/1.1/"
   xmlns:cc="http://creativecommons.org/ns#"
   xmlns:rdf="http://www.w3.org/1999/02/22-rdf-syntax-ns#"
   xmlns:svg="http://www.w3.org/2000/svg"
   xmlns="http://www.w3.org/2000/svg"
   xmlns:xlink="http://www.w3.org/1999/xlink"
   xmlns:sodipodi="http://sodipodi.sourceforge.net/DTD/sodipodi-0.dtd"
   xmlns:inkscape="http://www.inkscape.org/namespaces/inkscape"
   width="16"
   height="16"
   viewBox="0 0 16.000001 16.000001"
   id="svg2"
   version="1.1"
   inkscape:version="0.91 r13725"
   inkscape:export-filename="C:\Dokumente und Einstellungen\RM\Desktop\octave-icons-master\16x16\view-axes.png"
   inkscape:export-xdpi="90"
   inkscape:export-ydpi="90"
   sodipodi:docname="view-axes.svg">
  <defs
     id="defs4">
    <linearGradient
       id="linearGradient5409">
      <stop
         id="stop5411"
         style="stop-color:#ffffff;stop-opacity:0.6"
         offset="0" />
      <stop
         id="stop5413"
         style="stop-color:#ffffff;stop-opacity:0.157"
         offset="0.07003769" />
      <stop
         id="stop5415"
         style="stop-color:#ffffff;stop-opacity:0.235"
         offset="0.93496537" />
      <stop
         id="stop5417"
         style="stop-color:#ffffff;stop-opacity:1"
         offset="1" />
    </linearGradient>
    <linearGradient
       id="linearGradient4399">
      <stop
         offset="0"
         style="stop-color:#ffffff;stop-opacity:1"
         id="stop4401" />
      <stop
         id="stop4403"
         style="stop-color:#fcfdfe;stop-opacity:1"
         offset="0.62670583" />
      <stop
         offset="1"
         style="stop-color:#e7ecf7;stop-opacity:1"
         id="stop4405" />
    </linearGradient>
    <linearGradient
       id="linearGradient3104-5">
      <stop
         id="stop3106-6"
         style="stop-color:#a0a0a0;stop-opacity:1"
         offset="0" />
      <stop
         id="stop3108-9"
         style="stop-color:#bebebe;stop-opacity:1"
         offset="1" />
    </linearGradient>
    <linearGradient
       id="linearGradient5048">
      <stop
         id="stop5050"
         style="stop-color:#000000;stop-opacity:0"
         offset="0" />
      <stop
         id="stop5056"
         style="stop-color:#000000;stop-opacity:1"
         offset="0.5" />
      <stop
         id="stop5052"
         style="stop-color:#000000;stop-opacity:0"
         offset="1" />
    </linearGradient>
    <linearGradient
       id="linearGradient5060">
      <stop
         id="stop5062"
         style="stop-color:#000000;stop-opacity:1"
         offset="0" />
      <stop
         id="stop5064"
         style="stop-color:#000000;stop-opacity:0"
         offset="1" />
    </linearGradient>
    <linearGradient
       id="linearGradient6425"
       inkscape:collect="always">
      <stop
         id="stop6427"
         offset="0"
         style="stop-color:#689fd9;stop-opacity:1" />
      <stop
         id="stop6429"
         offset="1"
         style="stop-color:#19498e;stop-opacity:1" />
    </linearGradient>
    <linearGradient
       inkscape:collect="always"
       xlink:href="#linearGradient3104-5"
       id="linearGradient4236"
       x1="8.000001"
       y1="1050.3622"
       x2="8.000001"
       y2="1038.3622"
       gradientUnits="userSpaceOnUse"
       gradientTransform="matrix(0.9285716,0,0,0.92857505,0.57142854,74.593561)" />
    <radialGradient
       inkscape:collect="always"
       xlink:href="#linearGradient4399"
       id="radialGradient4246"
       cx="3.5833454"
       cy="1040.9456"
       fx="3.5833454"
       fy="1040.9456"
       r="7.5"
       gradientTransform="matrix(1.1093138,1.1093046,-1.109294,1.1093117,1155.0253,-118.05997)"
       gradientUnits="userSpaceOnUse" />
    <linearGradient
       inkscape:collect="always"
       xlink:href="#linearGradient5409"
       id="linearGradient4262"
       x1="7.500001"
       y1="1049.8622"
       x2="7.500001"
       y2="1038.8622"
       gradientUnits="userSpaceOnUse"
       gradientTransform="translate(4.0197684e-7,1.7954888e-6)" />
    <radialGradient
       cx="605.71429"
       cy="486.64789"
       r="117.14286"
       fx="605.71429"
       fy="486.64789"
       id="radialGradient3048-2-7"
       xlink:href="#linearGradient5060"
       gradientUnits="userSpaceOnUse"
       gradientTransform="matrix(-0.01606478,0,0,0.00823529,12.681608,1047.3427)" />
    <radialGradient
       cx="605.71429"
       cy="486.64789"
       r="117.14286"
       fx="605.71429"
       fy="486.64789"
       id="radialGradient3045-5-7"
       xlink:href="#linearGradient5060"
       gradientUnits="userSpaceOnUse"
       gradientTransform="matrix(0.01606478,0,0,0.00823529,3.3183925,1047.3428)" />
    <linearGradient
       inkscape:collect="always"
       xlink:href="#linearGradient5048"
       id="linearGradient4462"
       gradientUnits="userSpaceOnUse"
       gradientTransform="matrix(0.02071005,0,0,0.00823529,0.51479233,1047.3426)"
       x1="302.85715"
       y1="366.64789"
       x2="302.85715"
       y2="609.50507" />
    <linearGradient
       inkscape:collect="always"
       xlink:href="#linearGradient6425"
       id="linearGradient5230"
       x1="8.0000019"
       y1="3"
       x2="8.0000019"
       y2="12.000002"
       gradientUnits="userSpaceOnUse" />
  </defs>
  <sodipodi:namedview
     id="base"
     pagecolor="#ffffff"
     bordercolor="#666666"
     borderopacity="1.0"
     inkscape:pageopacity="0.0"
     inkscape:pageshadow="2"
     inkscape:zoom="32"
     inkscape:cx="11.643384"
     inkscape:cy="3.5216163"
     inkscape:document-units="px"
     inkscape:current-layer="layer1"
     showgrid="false"
     units="px"
     inkscape:snap-nodes="false"
     inkscape:snap-bbox="true"
     inkscape:bbox-nodes="true"
     showguides="true"
     inkscape:object-nodes="true"
     inkscape:guide-bbox="true"
     inkscape:snap-intersection-paths="true"
     inkscape:snap-grids="true"
     inkscape:snap-page="false"
     inkscape:snap-global="true"
     inkscape:window-width="1440"
     inkscape:window-height="844"
     inkscape:window-x="-4"
     inkscape:window-y="-4"
     inkscape:window-maximized="1">
    <inkscape:grid
       type="xygrid"
       id="grid4136"
       empspacing="12"
       originx="0"
       originy="0" />
  </sodipodi:namedview>
  <metadata
     id="metadata7">
    <rdf:RDF>
      <cc:Work
         rdf:about="">
        <dc:format>image/svg+xml</dc:format>
        <dc:type
           rdf:resource="http://purl.org/dc/dcmitype/StillImage" />
        <dc:title></dc:title>
      </cc:Work>
    </rdf:RDF>
  </metadata>
  <g
     inkscape:label="Ebene 1"
     inkscape:groupmode="layer"
     id="layer1"
     transform="translate(0,-1036.3622)">
    <g
       id="g4467">
      <rect
         width="10.000002"
         height="2"
         x="3"
         y="1050.3622"
         id="rect2879-5"
         style="display:inline;overflow:visible;visibility:visible;opacity:0.15;fill:url(#linearGradient4462);fill-opacity:1;fill-rule:nonzero;stroke:none;stroke-width:1;marker:none" />
      <path
         d="m 3.0000001,1050.3622 c 0,0 0,1.9999 0,1.9999 -0.8272966,0 -2.00000014,-0.4481 -2.00000014,-1.0001 0,-0.552 0.92320014,-0.9998 2.00000014,-0.9998 z"
         inkscape:connector-curvature="0"
         id="path2881-2"
         style="display:inline;overflow:visible;visibility:visible;opacity:0.15;fill:url(#radialGradient3048-2-7);fill-opacity:1;fill-rule:nonzero;stroke:none;stroke-width:1;marker:none" />
      <path
         d="m 13.000002,1050.3623 c 0,0 0,1.9999 0,1.9999 0.827296,0 2,-0.4481 2,-1.0001 0,-0.552 -0.923201,-0.9998 -2,-0.9998 z"
         inkscape:connector-curvature="0"
         id="path2883-1"
         style="display:inline;overflow:visible;visibility:visible;opacity:0.15;fill:url(#radialGradient3045-5-7);fill-opacity:1;fill-rule:nonzero;stroke:none;stroke-width:1;marker:none" />
    </g>
    <rect
       style="fill:url(#radialGradient4246);fill-opacity:1;stroke:url(#linearGradient4236);stroke-width:1.00000018;stroke-linecap:round;stroke-linejoin:round;stroke-miterlimit:4;stroke-dasharray:none;stroke-opacity:1"
       id="rect4213"
       width="13.000003"
       height="13.00002"
       x="1.4999996"
       y="1037.8622"
       ry="0.92858875" />
    <rect
       style="opacity:1;fill:none;fill-opacity:1;stroke:url(#linearGradient4262);stroke-width:0.99999988;stroke-linecap:round;stroke-linejoin:round;stroke-miterlimit:4;stroke-dasharray:none;stroke-opacity:1"
       id="rect4213-9"
       width="11.000002"
       height="11.000019"
       x="2.5000002"
       y="1038.8622"
       ry="0"
       rx="0" />
    <path
       inkscape:connector-curvature="0"
       style="fill:#ffffff;fill-opacity:1;stroke:none;stroke-width:1;stroke-linecap:round;stroke-linejoin:miter;stroke-miterlimit:4;stroke-dasharray:none;stroke-opacity:1"
       d="m 4.0000002,1041.3622 0,8 1.0000002,0 5.5000016,0 1.5,0 0,-1 -1,0 0,-0.5 c 3e-6,-0.277 -0.223005,-0.5 -0.5,-0.5 -0.276995,0 -0.499997,0.223 -0.5,0.5 l 0,0.5 -2.0000011,0 0,-0.5 c 3.2e-6,-0.277 -0.2230047,-0.5 -0.5000001,-0.5 -0.2769953,0 -0.4999968,0.223 -0.5,0.5 l 0,0.5 -2.0000004,0 0,-2 0.5000001,0 c 0.2769953,0 0.5000001,-0.223 0.5000001,-0.5 0,-0.277 -0.2230048,-0.5 -0.5000001,-0.5 l -0.5000001,0 0,-2 0.5000001,0 c 0.2769953,0 0.5000001,-0.223 0.5000001,-0.5 0,-0.277 -0.2230048,-0.5 -0.5000001,-0.5 l -0.5000001,0 0,-1 -1.0000002,0 z"
       id="rect5158-4" />
    <path
       style="fill:url(#linearGradient5230);fill-opacity:1;stroke:none;stroke-width:1;stroke-linecap:round;stroke-linejoin:miter;stroke-miterlimit:4;stroke-dasharray:none;stroke-opacity:1"
       d="M 4 4 L 4 12 L 5 12 L 10.5 12 L 12 12 L 12 11 L 11 11 L 11 10.5 C 11.000003 10.223005 10.776995 10.000003 10.5 10 C 10.223005 9.9999968 10.000003 10.223005 10 10.5 L 10 11 L 8 11 L 8 10.5 C 8.0000032 10.223005 7.7769953 10.000003 7.5 10 C 7.2230047 9.9999968 7.0000032 10.223005 7 10.5 L 7 11 L 5 11 L 5 9 L 5.5 9 C 5.7769953 9 6 8.7769953 6 8.5 C 6 8.2230047 5.7769953 8 5.5 8 L 5 8 L 5 6 L 5.5 6 C 5.7769953 6 6 5.7769953 6 5.5 C 6 5.2230047 5.7769953 5 5.5 5 L 5 5 L 5 4 L 4 4 z "
       transform="translate(-4.7683724e-7,1036.3622)"
       id="rect5158" />
  </g>
</svg>
