<?xml version="1.0" encoding="UTF-8" standalone="no"?>
<!-- Created with Inkscape (http://www.inkscape.org/) -->

<svg
   xmlns:dc="http://purl.org/dc/elements/1.1/"
   xmlns:cc="http://creativecommons.org/ns#"
   xmlns:rdf="http://www.w3.org/1999/02/22-rdf-syntax-ns#"
   xmlns:svg="http://www.w3.org/2000/svg"
   xmlns="http://www.w3.org/2000/svg"
   xmlns:xlink="http://www.w3.org/1999/xlink"
   xmlns:sodipodi="http://sodipodi.sourceforge.net/DTD/sodipodi-0.dtd"
   xmlns:inkscape="http://www.inkscape.org/namespaces/inkscape"
   width="24"
   height="24"
   id="svg2"
   version="1.1"
   inkscape:version="0.48.5 r10040"
   inkscape:export-filename="C:\Users\Lutz\Desktop\Octave Icons\qthandles\view-axes.png"
   inkscape:export-xdpi="90"
   inkscape:export-ydpi="90"
   sodipodi:docname="view-axes.svg">
  <defs
     id="defs4">
    <linearGradient
       inkscape:collect="always"
       id="linearGradient6404">
      <stop
         style="stop-color:#ffffff;stop-opacity:1;"
         offset="0"
         id="stop6406" />
      <stop
         style="stop-color:#ffffff;stop-opacity:0;"
         offset="1"
         id="stop6408" />
    </linearGradient>
    <linearGradient
       id="linearGradient4655">
      <stop
         id="stop4657"
         offset="0"
         style="stop-color:#ffffff;stop-opacity:1;" />
      <stop
         style="stop-color:#ffffff;stop-opacity:1;"
         offset="0.62588841"
         id="stop4659" />
      <stop
         style="stop-color:#75507b;stop-opacity:1;"
         offset="1"
         id="stop4661" />
    </linearGradient>
    <radialGradient
       inkscape:collect="always"
       xlink:href="#linearGradient4655"
       id="radialGradient6365"
       cx="5.5789971"
       cy="1046.7833"
       fx="5.5789971"
       fy="1046.7833"
       r="8"
       gradientTransform="matrix(7.7198058e-6,2.3750001,-2.3750123,7.7198453e-6,2493.1231,1022.104)"
       gradientUnits="userSpaceOnUse" />
    <radialGradient
       inkscape:collect="always"
       xlink:href="#linearGradient6404"
       id="radialGradient6410"
       cx="3"
       cy="3"
       fx="3"
       fy="3"
       r="9"
       gradientUnits="userSpaceOnUse"
       gradientTransform="matrix(0,2,-2,0,9,-3)" />
  </defs>
  <sodipodi:namedview
     id="base"
     pagecolor="#ffffff"
     bordercolor="#666666"
     borderopacity="1.0"
     inkscape:pageopacity="0.0"
     inkscape:pageshadow="2"
     inkscape:zoom="1"
     inkscape:cx="51.474459"
     inkscape:cy="-6.6034538"
     inkscape:document-units="px"
     inkscape:current-layer="layer1"
     showgrid="true"
     inkscape:window-width="1600"
     inkscape:window-height="1138"
     inkscape:window-x="-8"
     inkscape:window-y="-8"
     inkscape:window-maximized="1">
    <inkscape:grid
       type="xygrid"
       id="grid2985"
       empspacing="12"
       visible="true"
       enabled="true"
       snapvisiblegridlinesonly="true" />
  </sodipodi:namedview>
  <metadata
     id="metadata7">
    <rdf:RDF>
      <cc:Work
         rdf:about="">
        <dc:format>image/svg+xml</dc:format>
        <dc:type
           rdf:resource="http://purl.org/dc/dcmitype/StillImage" />
        <dc:title></dc:title>
      </cc:Work>
    </rdf:RDF>
  </metadata>
  <g
     inkscape:label="Ebene 1"
     inkscape:groupmode="layer"
     id="layer1"
     transform="translate(0,-1028.3622)">
    <rect
       style="fill:#75507b;fill-opacity:1;fill-rule:nonzero;stroke:none"
       id="rect3823"
       width="16"
       height="16.000017"
       x="4"
       y="1032.3622"
       ry="0" />
    <rect
       ry="0"
       y="1032.3622"
       x="4"
       height="16.000017"
       width="16"
       id="rect6367"
       style="fill:#ffffff;fill-opacity:1;fill-rule:nonzero;stroke:none;opacity:0.95" />
    <rect
       ry="0"
       y="1032.3622"
       x="4"
       height="16.000017"
       width="16"
       id="rect4333"
       style="opacity:0.50000000000000000;fill:url(#radialGradient6365);fill-opacity:1;fill-rule:nonzero;stroke:none" />
    <rect
       ry="0.5"
       transform="scale(-1,-1)"
       y="-1032.3622"
       x="-21"
       height="1"
       width="18"
       id="rect3802"
       style="fill:#ad7fa8;fill-opacity:1;fill-rule:nonzero;stroke:none" />
    <rect
       ry="0.45000002"
       transform="scale(-1,-1)"
       y="-1049.3622"
       x="-21"
       height="18"
       width="1"
       id="rect3800"
       style="fill:#ad7fa8;fill-opacity:1;fill-rule:nonzero;stroke:none" />
    <rect
       ry="0.5"
       y="1045.3622"
       x="3"
       height="1"
       width="3"
       id="rect3768"
       style="fill:#5c3566;fill-opacity:1;fill-rule:nonzero;stroke:none" />
    <rect
       ry="0.5"
       y="1042.3622"
       x="3"
       height="1"
       width="3"
       id="rect3772"
       style="fill:#5c3566;fill-opacity:1;fill-rule:nonzero;stroke:none" />
    <rect
       style="fill:#5c3566;fill-opacity:1;fill-rule:nonzero;stroke:none"
       id="rect3774"
       width="3"
       height="1"
       x="3"
       y="1039.3622"
       ry="0.5" />
    <rect
       ry="0.5"
       y="1036.3622"
       x="3"
       height="1"
       width="3"
       id="rect3776"
       style="fill:#5c3566;fill-opacity:1;fill-rule:nonzero;stroke:none" />
    <rect
       ry="0.5"
       y="1033.3622"
       x="3"
       height="1"
       width="3"
       id="rect3780"
       style="fill:#5c3566;fill-opacity:1;fill-rule:nonzero;stroke:none" />
    <rect
       transform="matrix(0,-1,1,0,0,0)"
       ry="0.5"
       y="6"
       x="-1049.3622"
       height="1"
       width="3"
       id="rect3784"
       style="fill:#5c3566;fill-opacity:1;fill-rule:nonzero;stroke:none" />
    <rect
       style="fill:#5c3566;fill-opacity:1;fill-rule:nonzero;stroke:none"
       id="rect3786"
       width="3"
       height="1"
       x="-1049.3622"
       y="9"
       ry="0.5"
       transform="matrix(0,-1,1,0,0,0)" />
    <rect
       transform="matrix(0,-1,1,0,0,0)"
       ry="0.5"
       y="12"
       x="-1049.3622"
       height="1"
       width="3"
       id="rect3788"
       style="fill:#5c3566;fill-opacity:1;fill-rule:nonzero;stroke:none" />
    <rect
       style="fill:#5c3566;fill-opacity:1;fill-rule:nonzero;stroke:none"
       id="rect3790"
       width="3"
       height="1"
       x="-1049.3622"
       y="15"
       ry="0.5"
       transform="matrix(0,-1,1,0,0,0)" />
    <rect
       transform="matrix(0,-1,1,0,0,0)"
       ry="0.5"
       y="18"
       x="-1049.3622"
       height="1"
       width="3"
       id="rect3792"
       style="fill:#5c3566;fill-opacity:1;fill-rule:nonzero;stroke:none" />
    <rect
       style="fill:#5c3566;fill-opacity:1;fill-rule:nonzero;stroke:none"
       id="rect3798"
       width="18"
       height="1"
       x="3"
       y="1048.3622"
       ry="0.5" />
    <rect
       style="fill:#5c3566;fill-opacity:1;fill-rule:nonzero;stroke:none"
       id="rect3796"
       width="1"
       height="18.000017"
       x="3"
       y="1031.3622"
       ry="0.5" />
    <path
       style="fill:url(#radialGradient6410);fill-opacity:1;fill-rule:nonzero;stroke:none;opacity:0.75000000000000000"
       d="M 3.5 3 C 3.223 3 3 3.223 3 3.5 L 3 5.5 L 3 8.5 L 3 11.5 L 3 14.5 L 3 17.5 L 3 20.5 C 3 20.777 3.223 21 3.5 21 L 20.5 21 C 20.577695 21 20.653281 21.000109 20.71875 20.96875 C 20.826497 20.923328 20.923328 20.826497 20.96875 20.71875 C 21.000109 20.653281 21 20.577695 21 20.5 L 21 3.5 C 21 3.4223049 21.000109 3.3467191 20.96875 3.28125 C 20.918961 3.1631428 20.80998 3.0722738 20.6875 3.03125 C 20.647054 3.0141997 20.607624 3.0059208 20.5625 3 L 20.5 3 L 3.5 3 z "
       id="rect6369"
       transform="translate(0,1028.3622)" />
  </g>
</svg>
