<?xml version="1.0" encoding="UTF-8" standalone="no"?>
<!-- Created with Inkscape (http://www.inkscape.org/) -->

<svg
   xmlns:dc="http://purl.org/dc/elements/1.1/"
   xmlns:cc="http://creativecommons.org/ns#"
   xmlns:rdf="http://www.w3.org/1999/02/22-rdf-syntax-ns#"
   xmlns:svg="http://www.w3.org/2000/svg"
   xmlns="http://www.w3.org/2000/svg"
   xmlns:xlink="http://www.w3.org/1999/xlink"
   xmlns:sodipodi="http://sodipodi.sourceforge.net/DTD/sodipodi-0.dtd"
   xmlns:inkscape="http://www.inkscape.org/namespaces/inkscape"
   width="24"
   height="24"
   id="svg2"
   version="1.1"
   inkscape:version="0.48.5 r10040"
   inkscape:export-filename="C:\Users\Lutz\Desktop\Octave Icons\qthandles\view-grid.png"
   inkscape:export-xdpi="90"
   inkscape:export-ydpi="90"
   sodipodi:docname="view-grid.svg">
  <defs
     id="defs4">
    <linearGradient
       inkscape:collect="always"
       id="linearGradient3975">
      <stop
         style="stop-color:#ffffff;stop-opacity:1;"
         offset="0"
         id="stop3977" />
      <stop
         style="stop-color:#ffffff;stop-opacity:0;"
         offset="1"
         id="stop3979" />
    </linearGradient>
    <linearGradient
       inkscape:collect="always"
       id="linearGradient3940">
      <stop
         style="stop-color:#ffffff;stop-opacity:1;"
         offset="0"
         id="stop3942" />
      <stop
         style="stop-color:#ffffff;stop-opacity:0;"
         offset="1"
         id="stop3944" />
    </linearGradient>
    <linearGradient
       inkscape:collect="always"
       id="linearGradient3935">
      <stop
         style="stop-color:#ffffff;stop-opacity:1;"
         offset="0"
         id="stop3937" />
      <stop
         style="stop-color:#ffffff;stop-opacity:0;"
         offset="1"
         id="stop3939" />
    </linearGradient>
    <linearGradient
       inkscape:collect="always"
       id="linearGradient4127">
      <stop
         style="stop-color:#ffffff;stop-opacity:1;"
         offset="0"
         id="stop4129" />
      <stop
         style="stop-color:#ffffff;stop-opacity:0;"
         offset="1"
         id="stop4131" />
    </linearGradient>
    <linearGradient
       inkscape:collect="always"
       id="linearGradient4979">
      <stop
         style="stop-color:#ffffff;stop-opacity:1;"
         offset="0"
         id="stop4981" />
      <stop
         style="stop-color:#ffffff;stop-opacity:0;"
         offset="1"
         id="stop4983" />
    </linearGradient>
    <linearGradient
       inkscape:collect="always"
       id="linearGradient4772">
      <stop
         style="stop-color:#ffffff;stop-opacity:1;"
         offset="0"
         id="stop4774" />
      <stop
         style="stop-color:#ffffff;stop-opacity:0;"
         offset="1"
         id="stop4776" />
    </linearGradient>
    <linearGradient
       inkscape:collect="always"
       id="linearGradient4505">
      <stop
         style="stop-color:#ffffff;stop-opacity:1;"
         offset="0"
         id="stop4507" />
      <stop
         style="stop-color:#ffffff;stop-opacity:0;"
         offset="1"
         id="stop4509" />
    </linearGradient>
    <linearGradient
       inkscape:collect="always"
       id="linearGradient4350">
      <stop
         style="stop-color:#ffffff;stop-opacity:1;"
         offset="0"
         id="stop4352" />
      <stop
         style="stop-color:#ffffff;stop-opacity:0;"
         offset="1"
         id="stop4354" />
    </linearGradient>
    <linearGradient
       id="linearGradient4155">
      <stop
         style="stop-color:#ffffff;stop-opacity:1;"
         offset="0"
         id="stop4157" />
      <stop
         style="stop-color:#ffffff;stop-opacity:0;"
         offset="1"
         id="stop4159" />
    </linearGradient>
    <inkscape:perspective
       sodipodi:type="inkscape:persp3d"
       inkscape:vp_x="20.960666 : 19.4724 : 1"
       inkscape:vp_y="0 : 1000 : 0"
       inkscape:vp_z="21.961609 : 7.6662411 : 1"
       inkscape:persp3d-origin="16 : 10.666667 : 1"
       id="perspective2987" />
    <radialGradient
       inkscape:collect="always"
       xlink:href="#linearGradient4350"
       id="radialGradient4356"
       cx="2.9999886"
       cy="1031.3622"
       fx="2.9999886"
       fy="1031.3622"
       r="9"
       gradientUnits="userSpaceOnUse"
       gradientTransform="matrix(1.2855771e-6,1.9999985,-1.9999981,1.2855768e-6,2065.0974,1004.2984)" />
    <radialGradient
       inkscape:collect="always"
       xlink:href="#linearGradient4505"
       id="radialGradient4511"
       cx="7"
       cy="7"
       fx="7"
       fy="7"
       r="5"
       gradientUnits="userSpaceOnUse"
       gradientTransform="matrix(0,2,-2,0,1,1001.3622)" />
    <radialGradient
       inkscape:collect="always"
       xlink:href="#linearGradient4772"
       id="radialGradient4778"
       cx="5"
       cy="5"
       fx="5"
       fy="5"
       r="7"
       gradientUnits="userSpaceOnUse"
       gradientTransform="matrix(0,2,-2,0,15,-5)" />
    <radialGradient
       inkscape:collect="always"
       xlink:href="#linearGradient4979"
       id="radialGradient4985"
       cx="5"
       cy="5"
       fx="5"
       fy="5"
       r="7"
       gradientUnits="userSpaceOnUse"
       gradientTransform="matrix(0,2,-2,0,15,-5)" />
    <radialGradient
       inkscape:collect="always"
       xlink:href="#linearGradient4127"
       id="radialGradient4133"
       cx="4"
       cy="4"
       fx="4"
       fy="4"
       r="8"
       gradientUnits="userSpaceOnUse"
       gradientTransform="matrix(0,2,-2,0,12,1024.3622)" />
    <radialGradient
       inkscape:collect="always"
       xlink:href="#linearGradient4368"
       id="radialGradient4374"
       cx="3"
       cy="3"
       fx="3"
       fy="3"
       r="9"
       gradientUnits="userSpaceOnUse"
       gradientTransform="matrix(0,2,-2,0,29,1025.3622)" />
    <linearGradient
       inkscape:collect="always"
       id="linearGradient4368">
      <stop
         style="stop-color:#ffffff;stop-opacity:1;"
         offset="0"
         id="stop4370" />
      <stop
         style="stop-color:#ffffff;stop-opacity:0;"
         offset="1"
         id="stop4372" />
    </linearGradient>
    <radialGradient
       inkscape:collect="always"
       xlink:href="#linearGradient3935"
       id="radialGradient3941"
       cx="3"
       cy="3"
       fx="3"
       fy="3"
       r="9"
       gradientUnits="userSpaceOnUse"
       gradientTransform="matrix(0,2,-2,0,-31,1045.3622)" />
    <radialGradient
       inkscape:collect="always"
       xlink:href="#linearGradient3940"
       id="radialGradient3946"
       cx="4"
       cy="4"
       fx="4"
       fy="4"
       r="8"
       gradientUnits="userSpaceOnUse"
       gradientTransform="matrix(0,2,-2,0,-8,1024.3622)" />
    <radialGradient
       inkscape:collect="always"
       xlink:href="#linearGradient3975"
       id="radialGradient3981"
       cx="5"
       cy="5"
       fx="5"
       fy="5"
       r="7"
       gradientUnits="userSpaceOnUse"
       gradientTransform="matrix(0,2,-2,0,15,-5)" />
  </defs>
  <sodipodi:namedview
     id="base"
     pagecolor="#ffffff"
     bordercolor="#666666"
     borderopacity="1.0"
     inkscape:pageopacity="0.0"
     inkscape:pageshadow="2"
     inkscape:zoom="16"
     inkscape:cx="16.58332"
     inkscape:cy="4.9379559"
     inkscape:document-units="px"
     inkscape:current-layer="layer1"
     showgrid="true"
     inkscape:window-width="1600"
     inkscape:window-height="1138"
     inkscape:window-x="-8"
     inkscape:window-y="-8"
     inkscape:window-maximized="1"
     inkscape:snap-nodes="false"
     inkscape:snap-bbox="true">
    <inkscape:grid
       type="xygrid"
       id="grid2985"
       empspacing="12"
       visible="true"
       enabled="true"
       snapvisiblegridlinesonly="true" />
  </sodipodi:namedview>
  <metadata
     id="metadata7">
    <rdf:RDF>
      <cc:Work
         rdf:about="">
        <dc:format>image/svg+xml</dc:format>
        <dc:type
           rdf:resource="http://purl.org/dc/dcmitype/StillImage" />
        <dc:title></dc:title>
      </cc:Work>
    </rdf:RDF>
  </metadata>
  <g
     inkscape:label="Ebene 1"
     inkscape:groupmode="layer"
     id="layer1"
     transform="translate(0,-1028.3622)">
    <rect
       style="fill:#75507b;fill-opacity:1;fill-rule:nonzero;stroke:none"
       id="rect4446"
       width="8"
       height="8.0000172"
       x="8"
       y="1036.3622" />
    <rect
       y="1036.3622"
       x="8"
       height="8"
       width="8"
       id="rect4956"
       style="opacity:0.95;fill:#ffffff;fill-opacity:1;fill-rule:nonzero;stroke:none" />
    <rect
       style="fill:#3465a4;fill-opacity:1;fill-rule:nonzero;stroke:none"
       id="rect4301"
       width="1"
       height="18.000017"
       x="4"
       y="991.36218"
       ry="0.45000044" />
    <rect
       ry="0.45000044"
       y="991.36218"
       x="7"
       height="18.000017"
       width="1"
       id="rect4303"
       style="fill:#3465a4;fill-opacity:1;fill-rule:nonzero;stroke:none" />
    <rect
       style="fill:#3465a4;fill-opacity:1;fill-rule:nonzero;stroke:none"
       id="rect4305"
       width="1"
       height="18.000017"
       x="10"
       y="991.36218"
       ry="0.45000044" />
    <rect
       ry="0.45000044"
       y="991.36218"
       x="13"
       height="18.000017"
       width="1"
       id="rect4307"
       style="fill:#3465a4;fill-opacity:1;fill-rule:nonzero;stroke:none" />
    <rect
       style="fill:#3465a4;fill-opacity:1;fill-rule:nonzero;stroke:none"
       id="rect4309"
       width="1"
       height="18.000017"
       x="16"
       y="991.36218"
       ry="0.47368425" />
    <rect
       transform="matrix(0,1,-1,0,0,0)"
       ry="0.44999999"
       y="-21"
       x="995.36218"
       height="18"
       width="1"
       id="rect4311"
       style="fill:#3465a4;fill-opacity:1;fill-rule:nonzero;stroke:none" />
    <rect
       style="fill:#3465a4;fill-opacity:1;fill-rule:nonzero;stroke:none"
       id="rect4313"
       width="1"
       height="18"
       x="998.36218"
       y="-21"
       ry="0.44999999"
       transform="matrix(0,1,-1,0,0,0)" />
    <rect
       transform="matrix(0,1,-1,0,0,0)"
       ry="0.44999999"
       y="-21"
       x="1001.3622"
       height="18"
       width="1"
       id="rect4315"
       style="fill:#3465a4;fill-opacity:1;fill-rule:nonzero;stroke:none" />
    <rect
       style="fill:#3465a4;fill-opacity:1;fill-rule:nonzero;stroke:none"
       id="rect4317"
       width="1"
       height="18"
       x="1004.3622"
       y="-21"
       ry="0.44999999"
       transform="matrix(0,1,-1,0,0,0)" />
    <rect
       transform="matrix(0,1,-1,0,0,0)"
       ry="0.44999999"
       y="-21"
       x="1007.3622"
       height="18"
       width="1"
       id="rect4319"
       style="fill:#3465a4;fill-opacity:1;fill-rule:nonzero;stroke:none" />
    <rect
       ry="0.45000044"
       y="991.36218"
       x="19"
       height="18.000017"
       width="1"
       id="rect4321"
       style="fill:#3465a4;fill-opacity:1;fill-rule:nonzero;stroke:none" />
    <rect
       style="fill:#3465a4;fill-opacity:1;fill-rule:nonzero;stroke:none"
       id="rect4323"
       width="1"
       height="18"
       x="992.36218"
       y="-21"
       ry="0.44999999"
       transform="matrix(0,1,-1,0,0,0)" />
    <path
       style="opacity:0.75;fill:url(#radialGradient4511);fill-opacity:1;fill-rule:nonzero;stroke:none"
       d="m -13,1015.3622 0,1 1,0 0,-1 -1,0 z m 3,0 0,1 1,0 0,-1 -1,0 z m 3,0 0,1 1,0 0,-1 -1,0 z m 3,0 0,1 1,0 0,-1 -1,0 z m -9,3 0,1 1,0 0,-1 -1,0 z m 3,0 0,1 1,0 0,-1 -1,0 z m 3,0 0,1 1,0 0,-1 -1,0 z m 3,0 0,1 1,0 0,-1 -1,0 z m -9,3 0,1 1,0 0,-1 -1,0 z m 3,0 0,1 1,0 0,-1 -1,0 z m 3,0 0,1 1,0 0,-1 -1,0 z m 3,0 0,1 1,0 0,-1 -1,0 z m -9,3 0,1 1,0 0,-1 -1,0 z m 3,0 0,1 1,0 0,-1 -1,0 z m 3,0 0,1 1,0 0,-1 -1,0 z m 3,0 0,1 1,0 0,-1 -1,0 z"
       id="rect4472"
       inkscape:connector-curvature="0" />
    <g
       id="g6627"
       style="fill:#5c3566"
       transform="translate(-20,0)">
      <rect
         ry="0"
         y="1035.3622"
         x="-13"
         height="1"
         width="1"
         id="rect4438"
         style="fill:#5c3566;fill-opacity:1;fill-rule:nonzero;stroke:none" />
      <rect
         style="fill:#5c3566;fill-opacity:1;fill-rule:nonzero;stroke:none"
         id="rect4440"
         width="1"
         height="1"
         x="-10"
         y="1035.3622"
         ry="0" />
      <rect
         ry="0"
         y="1035.3622"
         x="-7"
         height="1"
         width="1"
         id="rect4442"
         style="fill:#5c3566;fill-opacity:1;fill-rule:nonzero;stroke:none" />
      <rect
         style="fill:#5c3566;fill-opacity:1;fill-rule:nonzero;stroke:none"
         id="rect4444"
         width="1"
         height="1"
         x="-4"
         y="1035.3622"
         ry="0" />
      <rect
         style="fill:#5c3566;fill-opacity:1;fill-rule:nonzero;stroke:none"
         id="rect4448"
         width="1"
         height="1"
         x="-13"
         y="1038.3622"
         ry="0" />
      <rect
         ry="0"
         y="1038.3622"
         x="-10"
         height="1"
         width="1"
         id="rect4450"
         style="fill:#5c3566;fill-opacity:1;fill-rule:nonzero;stroke:none" />
      <rect
         style="fill:#5c3566;fill-opacity:1;fill-rule:nonzero;stroke:none"
         id="rect4452"
         width="1"
         height="1"
         x="-7"
         y="1038.3622"
         ry="0" />
      <rect
         ry="0"
         y="1038.3622"
         x="-4"
         height="1"
         width="1"
         id="rect4454"
         style="fill:#5c3566;fill-opacity:1;fill-rule:nonzero;stroke:none" />
      <rect
         ry="0"
         y="1041.3622"
         x="-13"
         height="1"
         width="1"
         id="rect4456"
         style="fill:#5c3566;fill-opacity:1;fill-rule:nonzero;stroke:none" />
      <rect
         style="fill:#5c3566;fill-opacity:1;fill-rule:nonzero;stroke:none"
         id="rect4458"
         width="1"
         height="1"
         x="-10"
         y="1041.3622"
         ry="0" />
      <rect
         ry="0"
         y="1041.3622"
         x="-7"
         height="1"
         width="1"
         id="rect4460"
         style="fill:#5c3566;fill-opacity:1;fill-rule:nonzero;stroke:none" />
      <rect
         style="fill:#5c3566;fill-opacity:1;fill-rule:nonzero;stroke:none"
         id="rect4462"
         width="1"
         height="1"
         x="-4"
         y="1041.3622"
         ry="0" />
      <rect
         style="fill:#5c3566;fill-opacity:1;fill-rule:nonzero;stroke:none"
         id="rect4464"
         width="1"
         height="1"
         x="-13"
         y="1044.3622"
         ry="0" />
      <rect
         ry="0"
         y="1044.3622"
         x="-10"
         height="1"
         width="1"
         id="rect4466"
         style="fill:#5c3566;fill-opacity:1;fill-rule:nonzero;stroke:none" />
      <rect
         style="fill:#5c3566;fill-opacity:1;fill-rule:nonzero;stroke:none"
         id="rect4468"
         width="1"
         height="1"
         x="-7"
         y="1044.3622"
         ry="0" />
      <rect
         ry="0"
         y="1044.3622"
         x="-4"
         height="1"
         width="1"
         id="rect4470"
         style="fill:#5c3566;fill-opacity:1;fill-rule:nonzero;stroke:none" />
    </g>
    <rect
       style="fill:#75507b;fill-opacity:1;fill-rule:nonzero;stroke:none"
       id="rect4275"
       width="1"
       height="14"
       x="7"
       y="1033.3622"
       ry="0.43749952"
       rx="0.5" />
    <rect
       ry="0.43750006"
       y="1033.3622"
       x="10"
       height="14.000017"
       width="1"
       id="rect4277"
       style="fill:#75507b;fill-opacity:1;fill-rule:nonzero;stroke:none"
       rx="0.5" />
    <rect
       style="fill:#75507b;fill-opacity:1;fill-rule:nonzero;stroke:none"
       id="rect4279"
       width="1"
       height="13.999983"
       x="13"
       y="1033.3622"
       ry="0.43749946"
       rx="0.5" />
    <rect
       ry="0.43750006"
       y="1033.3622"
       x="16"
       height="14.000017"
       width="1"
       id="rect4281"
       style="fill:#75507b;fill-opacity:1;fill-rule:nonzero;stroke:none"
       rx="0.5" />
    <rect
       style="fill:#75507b;fill-opacity:1;fill-rule:nonzero;stroke:none"
       id="rect4287"
       width="1"
       height="14"
       x="1035.3622"
       y="-19"
       ry="0.4375"
       transform="matrix(0,1,-1,0,0,0)"
       rx="0.5" />
    <rect
       transform="matrix(0,1,-1,0,0,0)"
       ry="0.4375"
       y="-19"
       x="1038.3622"
       height="14"
       width="1"
       id="rect4289"
       style="fill:#75507b;fill-opacity:1;fill-rule:nonzero;stroke:none"
       rx="0.5" />
    <rect
       style="fill:#75507b;fill-opacity:1;fill-rule:nonzero;stroke:none"
       id="rect4291"
       width="1"
       height="14"
       x="1041.3622"
       y="-19"
       ry="0.4375"
       transform="matrix(0,1,-1,0,0,0)"
       rx="0.5" />
    <rect
       transform="matrix(0,1,-1,0,0,0)"
       ry="0.4375"
       y="-19"
       x="1044.3622"
       height="14"
       width="1"
       id="rect4293"
       style="fill:#75507b;fill-opacity:1;fill-rule:nonzero;stroke:none"
       rx="0.5" />
    <path
       style="opacity:0.75;fill:url(#radialGradient3941);fill-opacity:1;fill-rule:nonzero;stroke:none"
       d="m -36.5,1051.3622 c -0.277,0 -0.5,0.223 -0.5,0.5 l 0,17 c 0,0.277 0.223,0.5 0.5,0.5 l 17,0 c 0.277,0 0.5,-0.223 0.5,-0.5 l 0,-17 c 0,-0.277 -0.223,-0.5 -0.5,-0.5 l -17,0 z"
       id="rect3130"
       inkscape:connector-curvature="0" />
    <path
       style="fill:url(#radialGradient3981);fill-opacity:1;fill-rule:nonzero;stroke:none;opacity:0.75000000000000000"
       d="M 7.5 5 C 7.223 5 7 5.1951253 7 5.4375 L 7 7 L 5.4375 7 C 5.195125 7 5 7.223 5 7.5 C 5 7.777 5.195125 8 5.4375 8 L 7 8 L 7 10 L 5.4375 10 C 5.195125 10 5 10.223 5 10.5 C 5 10.777 5.195125 11 5.4375 11 L 7 11 L 7 13 L 5.4375 13 C 5.195125 13 5 13.223 5 13.5 C 5 13.777 5.195125 14 5.4375 14 L 7 14 L 7 16 L 5.4375 16 C 5.195125 16 5 16.223 5 16.5 C 5 16.777 5.195125 17 5.4375 17 L 7 17 L 7 18.5625 C 7 18.804875 7.223 19 7.5 19 C 7.777 19 8 18.804875 8 18.5625 L 8 17 L 10 17 L 10 18.5625 C 10 18.804875 10.223 19 10.5 19 C 10.777 19 11 18.804875 11 18.5625 L 11 17 L 13 17 L 13 18.5625 C 13 18.804875 13.223 19 13.5 19 C 13.777 19 14 18.804875 14 18.5625 L 14 17 L 16 17 L 16 18.5625 C 16 18.804875 16.223 19 16.5 19 C 16.777 19 17 18.804875 17 18.5625 L 17 17 L 18.5625 17 C 18.804875 17 19 16.777 19 16.5 C 19 16.223 18.804875 16 18.5625 16 L 17 16 L 17 14 L 18.5625 14 C 18.804875 14 19 13.777 19 13.5 C 19 13.223 18.804875 13 18.5625 13 L 17 13 L 17 11 L 18.5625 11 C 18.804875 11 19 10.777 19 10.5 C 19 10.223 18.804875 10 18.5625 10 L 17 10 L 17 8 L 18.5625 8 C 18.804875 8 19 7.777 19 7.5 C 19 7.223 18.804875 7 18.5625 7 L 17 7 L 17 5.4375 C 17 5.195125 16.777 5 16.5 5 C 16.223 5 16 5.195125 16 5.4375 L 16 7 L 14 7 L 14 5.4375 C 14 5.1951253 13.777 5 13.5 5 C 13.223 5 13 5.1951253 13 5.4375 L 13 7 L 11 7 L 11 5.4375 C 11 5.195125 10.777 5 10.5 5 C 10.223 5 10 5.195125 10 5.4375 L 10 7 L 8 7 L 8 5.4375 C 8 5.1951253 7.777 5 7.5 5 z "
       transform="translate(0,1028.3622)"
       id="rect3954" />
  </g>
</svg>
