<?xml version="1.0" encoding="UTF-8" standalone="no"?>
<!-- Created with Inkscape (http://www.inkscape.org/) -->

<svg
   xmlns:dc="http://purl.org/dc/elements/1.1/"
   xmlns:cc="http://creativecommons.org/ns#"
   xmlns:rdf="http://www.w3.org/1999/02/22-rdf-syntax-ns#"
   xmlns:svg="http://www.w3.org/2000/svg"
   xmlns="http://www.w3.org/2000/svg"
   xmlns:xlink="http://www.w3.org/1999/xlink"
   xmlns:sodipodi="http://sodipodi.sourceforge.net/DTD/sodipodi-0.dtd"
   xmlns:inkscape="http://www.inkscape.org/namespaces/inkscape"
   width="24"
   height="24"
   id="svg2"
   version="1.1"
   inkscape:version="0.48.5 r10040"
   inkscape:export-filename="C:\Users\Lutz\Desktop\Octave Icons\qthandles\zoom-out.png"
   inkscape:export-xdpi="90"
   inkscape:export-ydpi="90"
   sodipodi:docname="zoom-out.svg">
  <defs
     id="defs4">
    <linearGradient
       inkscape:collect="always"
       id="linearGradient5259">
      <stop
         style="stop-color:#ffffff;stop-opacity:1;"
         offset="0"
         id="stop5261" />
      <stop
         style="stop-color:#ffffff;stop-opacity:0;"
         offset="1"
         id="stop5263" />
    </linearGradient>
    <radialGradient
       inkscape:collect="always"
       xlink:href="#linearGradient5259"
       id="radialGradient5265"
       cx="3"
       cy="3"
       fx="3"
       fy="3"
       r="9.0016023"
       gradientUnits="userSpaceOnUse"
       gradientTransform="matrix(-1.8515881e-8,1.999644,-1.999644,-1.8515881e-8,8.998932,1025.3633)" />
    <linearGradient
       id="linearGradient4655">
      <stop
         id="stop4657"
         offset="0"
         style="stop-color:#ffffff;stop-opacity:1;" />
      <stop
         style="stop-color:#ffffff;stop-opacity:1;"
         offset="0.62588841"
         id="stop4659" />
      <stop
         style="stop-color:#3465a4;stop-opacity:1;"
         offset="1"
         id="stop4661" />
    </linearGradient>
    <radialGradient
       r="10"
       fy="6.8751249"
       fx="10.4603"
       cy="6.8751249"
       cx="10.4603"
       gradientTransform="matrix(0.17174465,1.7244498,-1.487321,0.14812807,18.658184,-9.9733287)"
       gradientUnits="userSpaceOnUse"
       id="radialGradient5655"
       xlink:href="#linearGradient4655"
       inkscape:collect="always" />
  </defs>
  <sodipodi:namedview
     id="base"
     pagecolor="#ffffff"
     bordercolor="#666666"
     borderopacity="1.0"
     inkscape:pageopacity="0.0"
     inkscape:pageshadow="2"
     inkscape:zoom="22.627417"
     inkscape:cx="17.913725"
     inkscape:cy="15.747515"
     inkscape:document-units="px"
     inkscape:current-layer="layer1"
     showgrid="true"
     inkscape:window-width="1600"
     inkscape:window-height="1138"
     inkscape:window-x="-8"
     inkscape:window-y="-8"
     inkscape:window-maximized="1"
     inkscape:snap-nodes="false"
     inkscape:snap-bbox="true"
     showguides="true"
     inkscape:guide-bbox="true">
    <inkscape:grid
       type="xygrid"
       id="grid2985"
       empspacing="12"
       visible="true"
       enabled="true"
       snapvisiblegridlinesonly="true" />
  </sodipodi:namedview>
  <metadata
     id="metadata7">
    <rdf:RDF>
      <cc:Work
         rdf:about="">
        <dc:format>image/svg+xml</dc:format>
        <dc:type
           rdf:resource="http://purl.org/dc/dcmitype/StillImage" />
        <dc:title></dc:title>
      </cc:Work>
    </rdf:RDF>
  </metadata>
  <g
     inkscape:label="Ebene 1"
     inkscape:groupmode="layer"
     id="layer1"
     transform="translate(0,-1028.3622)">
    <rect
       style="fill:#555753;fill-opacity:1;fill-rule:nonzero;stroke:none"
       id="rect3802"
       width="3"
       height="8.9999828"
       x="-728.66187"
       y="747.23712"
       ry="1.5"
       transform="matrix(0.70710678,-0.70710678,0.70710678,0.70710678,0,0)" />
    <rect
       style="fill:#204a87;fill-opacity:1;stroke:none"
       id="rect4576"
       width="2.9999826"
       height="3.0000172"
       x="-749.70349"
       y="-728.66187"
       transform="matrix(-0.70710678,-0.70710678,0.70710678,-0.70710678,0,0)" />
    <path
       transform="matrix(0.6,0,0,0.6,2.8,1031.1622)"
       d="M 22,12 C 22,17.522847 17.522847,22 12,22 6.4771525,22 2,17.522847 2,12 2,6.4771525 6.4771525,2 12,2 17.522847,2 22,6.4771525 22,12 z"
       sodipodi:ry="10"
       sodipodi:rx="10"
       sodipodi:cy="12"
       sodipodi:cx="12"
       id="path4499"
       style="fill:#3465a4;fill-opacity:1;stroke:none"
       sodipodi:type="arc" />
    <path
       sodipodi:type="arc"
       style="opacity:0.95;fill:#ffffff;fill-opacity:1;stroke:none"
       id="path4502"
       sodipodi:cx="12"
       sodipodi:cy="12"
       sodipodi:rx="10"
       sodipodi:ry="10"
       d="M 22,12 C 22,17.522847 17.522847,22 12,22 6.4771525,22 2,17.522847 2,12 2,6.4771525 6.4771525,2 12,2 17.522847,2 22,6.4771525 22,12 z"
       transform="matrix(0.6,0,0,0.6,2.8,1031.1622)" />
    <rect
       style="fill:#204a87;fill-opacity:1;fill-rule:nonzero;stroke:none"
       id="rect3819"
       width="8"
       height="2"
       x="6"
       y="1037.3622"
       ry="1" />
    <path
       sodipodi:type="arc"
       style="fill:#3465a4;fill-opacity:1;stroke:none"
       id="path4520"
       sodipodi:cx="12"
       sodipodi:cy="12"
       sodipodi:rx="10"
       sodipodi:ry="10"
       d="M 22,12 C 22,17.522847 17.522847,22 12,22 6.4771525,22 2,17.522847 2,12 2,6.4771525 6.4771525,2 12,2 17.522847,2 22,6.4771525 22,12 z"
       transform="matrix(0.6,0,0,0.6,2.8,1031.1622)" />
    <path
       transform="matrix(0.6,0,0,0.6,2.8,1031.1622)"
       d="M 22,12 C 22,17.522847 17.522847,22 12,22 6.4771525,22 2,17.522847 2,12 2,6.4771525 6.4771525,2 12,2 17.522847,2 22,6.4771525 22,12 z"
       sodipodi:ry="10"
       sodipodi:rx="10"
       sodipodi:cy="12"
       sodipodi:cx="12"
       id="path4522"
       style="opacity:0.95;fill:#ffffff;fill-opacity:1;stroke:none"
       sodipodi:type="arc" />
    <path
       style="fill:#204a87;fill-opacity:1;stroke:none"
       d="m 10,1031.3622 c -3.8659932,0 -7,3.134 -7,7 0,3.866 3.1340068,7 7,7 3.865993,0 7,-3.134 7,-7 0,-3.866 -3.134007,-7 -7,-7 z m 0,1 c 3.313708,0 6,2.6863 6,6 0,3.3137 -2.686292,6 -6,6 -3.3137085,0 -6,-2.6863 -6,-6 0,-3.3137 2.6862915,-6 6,-6 z"
       id="path3757"
       inkscape:connector-curvature="0" />
    <path
       transform="matrix(0.6,0,0,0.6,2.8,1031.1622)"
       d="M 22,12 A 10,10 0 1 1 2,12 10,10 0 1 1 22,12 z"
       sodipodi:ry="10"
       sodipodi:rx="10"
       sodipodi:cy="12"
       sodipodi:cx="12"
       id="path4522-3"
       style="opacity:0.95;fill:url(#radialGradient5655);fill-opacity:1;stroke:none"
       sodipodi:type="arc" />
    <rect
       ry="1"
       y="1037.3622"
       x="6"
       height="2"
       width="8"
       id="rect4526"
       style="fill:#204a87;fill-opacity:1;fill-rule:nonzero;stroke:none" />
    <path
       style="opacity:0.75;fill:url(#radialGradient5265);fill-opacity:1;fill-rule:nonzero;stroke:none"
       d="m 10,1031.3622 c -3.865993,0 -7,3.134 -7,7 0,3.866 3.134007,7 7,7 1.398708,0 2.687929,-0.4183 3.78125,-1.125 L 14,1044.456 c 0.05509,0.083 0.114049,0.1452 0.1875,0.2187 l 4.25,4.25 c 0.587606,0.5876 1.537394,0.5876 2.125,0 0.587606,-0.5876 0.587606,-1.5374 0,-2.125 l -4.03125,-4.0312 -0.21875,-0.2188 c -0.07345,-0.073 -0.135496,-0.1324 -0.21875,-0.1875 l -0.21875,-0.2187 c 0.706712,-1.0934 1.125,-2.3826 1.125,-3.7813 0,-3.866 -3.134007,-7 -7,-7 z"
       id="rect3804"
       inkscape:connector-curvature="0" />
  </g>
</svg>
