<?xml version="1.0" encoding="UTF-8" standalone="no"?>
<!-- Created with Inkscape (http://www.inkscape.org/) -->

<svg
   xmlns:dc="http://purl.org/dc/elements/1.1/"
   xmlns:cc="http://creativecommons.org/ns#"
   xmlns:rdf="http://www.w3.org/1999/02/22-rdf-syntax-ns#"
   xmlns:svg="http://www.w3.org/2000/svg"
   xmlns="http://www.w3.org/2000/svg"
   xmlns:xlink="http://www.w3.org/1999/xlink"
   xmlns:sodipodi="http://sodipodi.sourceforge.net/DTD/sodipodi-0.dtd"
   xmlns:inkscape="http://www.inkscape.org/namespaces/inkscape"
   width="24"
   height="24"
   viewBox="0 0 24 24"
   id="svg10011"
   version="1.1"
   inkscape:version="0.91 r13725"
   sodipodi:docname="debug-profile.svg"
   inkscape:export-filename="C:\Users\Lutz\Desktop\octave-icons\24x24\debug-profile.png"
   inkscape:export-xdpi="90"
   inkscape:export-ydpi="90">
  <defs
     id="defs10013">
    <linearGradient
       inkscape:collect="always"
       id="linearGradient10620">
      <stop
         style="stop-color:#ffffff;stop-opacity:1"
         offset="0"
         id="stop10622" />
      <stop
         id="stop10628"
         offset="0.7410714"
         style="stop-color:#ffffff;stop-opacity:1" />
      <stop
         style="stop-color:#d3d7cf;stop-opacity:1"
         offset="1"
         id="stop10624" />
    </linearGradient>
    <linearGradient
       inkscape:collect="always"
       xlink:href="#linearGradient9220"
       id="linearGradient4174"
       x1="10.24932"
       y1="1034.3622"
       x2="6.875"
       y2="1040.1768"
       gradientUnits="userSpaceOnUse"
       gradientTransform="matrix(-1,0,0,1,-4.999997,-0.9983857)" />
    <linearGradient
       inkscape:collect="always"
       xlink:href="#linearGradient9968"
       id="linearGradient4194"
       x1="9.8125"
       y1="1035.6122"
       x2="6.375"
       y2="1041.1122"
       gradientUnits="userSpaceOnUse"
       gradientTransform="matrix(-1,0,0,1,-4.999997,-0.9983857)" />
    <radialGradient
       inkscape:collect="always"
       xlink:href="#linearGradient10620"
       id="radialGradient10626"
       cx="12.5"
       cy="1040.7372"
       fx="12.5"
       fy="1040.7372"
       r="7"
       gradientTransform="matrix(0.92857143,0,0,0.92856961,0.5,74.956344)"
       gradientUnits="userSpaceOnUse" />
    <linearGradient
       x1="302.85715"
       y1="366.64789"
       x2="302.85715"
       y2="609.50507"
       id="linearGradient4218"
       xlink:href="#linearGradient5048"
       gradientUnits="userSpaceOnUse"
       gradientTransform="matrix(0.02278107,0,0,0.00823529,5.2662727,1046.3426)" />
    <linearGradient
       id="linearGradient5048">
      <stop
         id="stop5050"
         style="stop-color:#000000;stop-opacity:0"
         offset="0" />
      <stop
         id="stop5056"
         style="stop-color:#000000;stop-opacity:1"
         offset="0.5" />
      <stop
         id="stop5052"
         style="stop-color:#000000;stop-opacity:0"
         offset="1" />
    </linearGradient>
    <radialGradient
       cx="605.71429"
       cy="486.64789"
       r="117.14286"
       fx="605.71429"
       fy="486.64789"
       id="radialGradient3048-2"
       xlink:href="#linearGradient5060"
       gradientUnits="userSpaceOnUse"
       gradientTransform="matrix(-0.01606478,0,0,0.00823529,17.681608,1046.3428)" />
    <linearGradient
       id="linearGradient5060">
      <stop
         id="stop5062"
         style="stop-color:#000000;stop-opacity:1"
         offset="0" />
      <stop
         id="stop5064"
         style="stop-color:#000000;stop-opacity:0"
         offset="1" />
    </linearGradient>
    <radialGradient
       cx="605.71429"
       cy="486.64789"
       r="117.14286"
       fx="605.71429"
       fy="486.64789"
       id="radialGradient3045-5"
       xlink:href="#linearGradient5060"
       gradientUnits="userSpaceOnUse"
       gradientTransform="matrix(0.01606478,0,0,0.00823529,9.318391,1046.3428)" />
    <linearGradient
       inkscape:collect="always"
       xlink:href="#linearGradient5048"
       id="linearGradient11483"
       gradientUnits="userSpaceOnUse"
       gradientTransform="matrix(0.00621302,0,0,0.00823529,2.2544378,1046.3426)"
       x1="302.85715"
       y1="366.64789"
       x2="302.85715"
       y2="609.50507" />
    <radialGradient
       inkscape:collect="always"
       xlink:href="#linearGradient5060"
       id="radialGradient11485"
       gradientUnits="userSpaceOnUse"
       gradientTransform="matrix(-0.01606478,0,0,0.00823529,12.681608,1046.3428)"
       cx="605.71429"
       cy="486.64789"
       fx="605.71429"
       fy="486.64789"
       r="117.14286" />
    <radialGradient
       inkscape:collect="always"
       xlink:href="#linearGradient5060"
       id="radialGradient11487"
       gradientUnits="userSpaceOnUse"
       gradientTransform="matrix(0.01606478,0,0,0.00823529,-3.681609,1046.3427)"
       cx="605.71429"
       cy="486.64789"
       fx="605.71429"
       fy="486.64789"
       r="117.14286" />
    <linearGradient
       inkscape:collect="always"
       id="linearGradient4994">
      <stop
         style="stop-color:#888a85;stop-opacity:1"
         offset="0"
         id="stop4996" />
      <stop
         style="stop-color:#555753;stop-opacity:1"
         offset="1"
         id="stop4998" />
    </linearGradient>
    <linearGradient
       inkscape:collect="always"
       xlink:href="#linearGradient4994"
       id="linearGradient11568"
       x1="26"
       y1="1042.8622"
       x2="41"
       y2="1042.8622"
       gradientUnits="userSpaceOnUse"
       gradientTransform="matrix(0.70710678,0.70710678,-0.70710678,0.70710678,727.22686,281.75919)" />
    <linearGradient
       inkscape:collect="always"
       xlink:href="#linearGradient4994"
       id="linearGradient11578"
       x1="11"
       y1="1034.8622"
       x2="16"
       y2="1034.8622"
       gradientUnits="userSpaceOnUse" />
    <linearGradient
       inkscape:collect="always"
       id="linearGradient9220">
      <stop
         style="stop-color:#ffffff;stop-opacity:1;"
         offset="0"
         id="stop9222" />
      <stop
         id="stop9230"
         offset="0.42857143"
         style="stop-color:#ffffff;stop-opacity:0.23529412" />
      <stop
         id="stop9228"
         offset="0.88571477"
         style="stop-color:#ffffff;stop-opacity:0.07843138" />
      <stop
         style="stop-color:#ffffff;stop-opacity:0.15686275"
         offset="1"
         id="stop9224" />
    </linearGradient>
    <linearGradient
       id="linearGradient9980"
       inkscape:collect="always">
      <stop
         id="stop9982"
         offset="0"
         style="stop-color:#92d216;stop-opacity:1" />
      <stop
         style="stop-color:#83c214;stop-opacity:1"
         offset="0.59999764"
         id="stop13667" />
      <stop
         id="stop9984"
         offset="1"
         style="stop-color:#569a06;stop-opacity:1" />
    </linearGradient>
    <linearGradient
       id="linearGradient9968"
       inkscape:collect="always">
      <stop
         id="stop9970"
         offset="0"
         style="stop-color:#69ad07;stop-opacity:1" />
      <stop
         id="stop9972"
         offset="1"
         style="stop-color:#345703;stop-opacity:1" />
    </linearGradient>
    <radialGradient
       inkscape:collect="always"
       xlink:href="#linearGradient9980"
       id="radialGradient13779"
       cx="5.7394395"
       cy="1036.1989"
       fx="5.7394395"
       fy="1036.1989"
       r="4.5000019"
       gradientTransform="matrix(-0.18731738,0.69907797,-0.85156388,-0.22817585,869.02714,1267.473)"
       gradientUnits="userSpaceOnUse" />
    <linearGradient
       inkscape:collect="always"
       xlink:href="#linearGradient5048"
       id="linearGradient13794"
       gradientUnits="userSpaceOnUse"
       gradientTransform="matrix(0.00621302,0,0,0.00823529,2.2544378,1046.3426)"
       x1="302.85715"
       y1="366.64789"
       x2="302.85715"
       y2="609.50507" />
    <radialGradient
       inkscape:collect="always"
       xlink:href="#linearGradient5060"
       id="radialGradient13796"
       gradientUnits="userSpaceOnUse"
       gradientTransform="matrix(-0.01606478,0,0,0.00823529,12.681608,1046.3428)"
       cx="605.71429"
       cy="486.64789"
       fx="605.71429"
       fy="486.64789"
       r="117.14286" />
    <radialGradient
       inkscape:collect="always"
       xlink:href="#linearGradient5060"
       id="radialGradient13798"
       gradientUnits="userSpaceOnUse"
       gradientTransform="matrix(0.01606478,0,0,0.00823529,-3.681609,1046.3427)"
       cx="605.71429"
       cy="486.64789"
       fx="605.71429"
       fy="486.64789"
       r="117.14286" />
  </defs>
  <sodipodi:namedview
     id="base"
     pagecolor="#ffffff"
     bordercolor="#666666"
     borderopacity="1.0"
     inkscape:pageopacity="0.0"
     inkscape:pageshadow="2"
     inkscape:zoom="8"
     inkscape:cx="14.1614"
     inkscape:cy="-5.3991054"
     inkscape:document-units="px"
     inkscape:current-layer="layer1"
     showgrid="false"
     units="px"
     inkscape:snap-bbox="true"
     inkscape:bbox-nodes="true"
     inkscape:snap-nodes="true"
     showguides="false"
     inkscape:guide-bbox="true"
     inkscape:object-paths="true"
     inkscape:snap-intersection-paths="true"
     inkscape:object-nodes="true"
     inkscape:snap-smooth-nodes="true"
     inkscape:snap-midpoints="true"
     inkscape:snap-bbox-edge-midpoints="false"
     inkscape:snap-global="true">
    <inkscape:grid
       type="xygrid"
       id="grid10559"
       empspacing="12" />
    <sodipodi:guide
       position="13.5,10"
       orientation="1,0"
       id="guide10638"
       inkscape:label=""
       inkscape:color="rgb(0,0,255)" />
    <sodipodi:guide
       position="11,9.5"
       orientation="0,1"
       id="guide11367"
       inkscape:label=""
       inkscape:color="rgb(0,0,255)" />
  </sodipodi:namedview>
  <metadata
     id="metadata10016">
    <rdf:RDF>
      <cc:Work
         rdf:about="">
        <dc:format>image/svg+xml</dc:format>
        <dc:type
           rdf:resource="http://purl.org/dc/dcmitype/StillImage" />
        <dc:title />
      </cc:Work>
    </rdf:RDF>
  </metadata>
  <g
     inkscape:label="Ebene 1"
     inkscape:groupmode="layer"
     id="layer1"
     transform="translate(0,-1028.3622)">
    <g
       id="g11492">
      <rect
         width="11"
         height="2"
         x="8"
         y="1049.3622"
         id="rect2879"
         style="display:inline;overflow:visible;visibility:visible;opacity:0.15;fill:url(#linearGradient4218);fill-opacity:1;fill-rule:nonzero;stroke:none;stroke-width:1;marker:none" />
      <path
         d="m 8,1049.3623 c 0,0 0,1.9999 0,1.9999 -0.827296,0 -2,-0.4481 -2,-1.0001 0,-0.552 0.9232001,-0.9998 2,-0.9998 z"
         inkscape:connector-curvature="0"
         id="path2881"
         style="display:inline;overflow:visible;visibility:visible;opacity:0.15;fill:url(#radialGradient3048-2);fill-opacity:1;fill-rule:nonzero;stroke:none;stroke-width:1;marker:none" />
      <path
         d="m 19,1049.3623 c 0,0 0,1.9999 0,1.9999 0.827296,0 2,-0.4481 2,-1.0001 0,-0.552 -0.923201,-0.9998 -2,-0.9998 z"
         inkscape:connector-curvature="0"
         id="path2883"
         style="display:inline;overflow:visible;visibility:visible;opacity:0.15;fill:url(#radialGradient3045-5);fill-opacity:1;fill-rule:nonzero;stroke:none;stroke-width:1;marker:none" />
    </g>
    <ellipse
       style="opacity:1;fill:#555753;fill-opacity:1;fill-rule:evenodd;stroke:none;stroke-width:4;stroke-linecap:butt;stroke-linejoin:round;stroke-miterlimit:4;stroke-dasharray:none;stroke-dashoffset:1.5;stroke-opacity:0.23529412"
       id="path10599"
       cx="13.5"
       cy="1042.8622"
       rx="7.5"
       ry="7.4999847" />
    <ellipse
       ry="6.4999871"
       rx="6.5"
       cy="1042.8622"
       cx="13.5"
       id="ellipse10606"
       style="opacity:1;fill:url(#radialGradient10626);fill-opacity:1;fill-rule:evenodd;stroke:none;stroke-width:4;stroke-linecap:butt;stroke-linejoin:round;stroke-miterlimit:4;stroke-dasharray:none;stroke-dashoffset:1.5;stroke-opacity:0.23529412" />
    <path
       style="opacity:1;fill:url(#linearGradient11578);fill-opacity:1.0;fill-rule:evenodd;stroke:none;stroke-width:4;stroke-linecap:butt;stroke-linejoin:round;stroke-miterlimit:4;stroke-dasharray:none;stroke-dashoffset:1.5;stroke-opacity:0.23529412"
       d="m 11,1033.3622 0,1 2,0 0,2 1,0 0,-2 2,0 0,-1 z"
       id="rect10608"
       inkscape:connector-curvature="0"
       sodipodi:nodetypes="ccccccccc" />
    <g
       id="g4385">
      <path
         id="rect11329"
         d="m 7.0253906,1042.3622 a 6.5,6.4999871 0 0 0 -0.025391,0.5 6.5,6.4999871 0 0 0 0.021484,0.5 l 1.4785156,0 c 0.2769952,0 0.5,-0.223 0.5,-0.5 0,-0.277 -0.2230048,-0.5 -0.5,-0.5 l -1.4746094,0 z"
         style="opacity:1;fill:#204a87;fill-opacity:1;fill-rule:evenodd;stroke:none;stroke-width:2;stroke-linecap:butt;stroke-linejoin:round;stroke-miterlimit:4;stroke-dasharray:none;stroke-dashoffset:1.5;stroke-opacity:1"
         inkscape:connector-curvature="0" />
      <path
         id="rect11331"
         d="m 18.5,1042.3622 c -0.277,0 -0.5,0.223 -0.5,0.5 0,0.277 0.223,0.5 0.5,0.5 l 1.474609,0 a 6.5,6.4999871 0 0 0 0.02539,-0.5 6.5,6.4999871 0 0 0 -0.02148,-0.5 l -1.478516,0 z"
         style="opacity:1;fill:#204a87;fill-opacity:1;fill-rule:evenodd;stroke:none;stroke-width:2;stroke-linecap:butt;stroke-linejoin:round;stroke-miterlimit:4;stroke-dasharray:none;stroke-dashoffset:1.5;stroke-opacity:1"
         inkscape:connector-curvature="0" />
      <g
         id="g4382">
        <path
           inkscape:connector-curvature="0"
           style="opacity:1;fill:#204a87;fill-opacity:1;fill-rule:evenodd;stroke:none;stroke-width:2;stroke-linecap:butt;stroke-linejoin:round;stroke-miterlimit:4;stroke-dasharray:none;stroke-dashoffset:1.5;stroke-opacity:1"
           d="m 13.5,1036.3622 a 6.5,6.4999871 0 0 0 -0.5,0.022 l 0,0.4785 c 0,0.277 0.222998,0.5 0.5,0.5 0.277002,0 0.5,-0.223 0.5,-0.5 l 0,-0.4746 a 6.5,6.4999871 0 0 0 -0.5,-0.025 z"
           id="rect11335" />
      </g>
      <path
         id="rect11337"
         d="m 13.5,1047.3622 c -0.277002,0 -0.5,0.223 -0.5,0.5 l 0,1.4746 a 6.5,6.4999871 0 0 0 0.5,0.025 6.5,6.4999871 0 0 0 0.5,-0.022 l 0,-1.4785 c 0,-0.277 -0.222998,-0.5 -0.5,-0.5 z"
         style="opacity:1;fill:#204a87;fill-opacity:1;fill-rule:evenodd;stroke:none;stroke-width:2;stroke-linecap:butt;stroke-linejoin:round;stroke-miterlimit:4;stroke-dasharray:none;stroke-dashoffset:1.5;stroke-opacity:1"
         inkscape:connector-curvature="0" />
    </g>
    <g
       id="g4372"
       style="fill:#3465a4">
      <rect
         transform="matrix(0.5,0.8660254,-0.8660254,0.5,0,0)"
         style="opacity:1;fill:#3465a4;fill-opacity:1;fill-rule:evenodd;stroke:none;stroke-width:2;stroke-linecap:butt;stroke-linejoin:round;stroke-miterlimit:4;stroke-dasharray:none;stroke-dashoffset:1.5;stroke-opacity:1"
         id="rect11339"
         width="1"
         height="1.0000174"
         x="903.39514"
         y="509.23969" />
      <rect
         transform="matrix(0.5,0.8660254,-0.8660254,0.5,0,0)"
         y="509.23969"
         x="915.39514"
         height="1.0000174"
         width="1"
         id="rect11341"
         style="opacity:1;fill:#3465a4;fill-opacity:1;fill-rule:evenodd;stroke:none;stroke-width:2;stroke-linecap:butt;stroke-linejoin:round;stroke-miterlimit:4;stroke-dasharray:none;stroke-dashoffset:1.5;stroke-opacity:1" />
      <rect
         y="-910.39514"
         x="503.23969"
         height="1.0000174"
         width="1.0000174"
         id="rect11343"
         style="opacity:1;fill:#3465a4;fill-opacity:1;fill-rule:evenodd;stroke:none;stroke-width:2;stroke-linecap:butt;stroke-linejoin:round;stroke-miterlimit:4;stroke-dasharray:none;stroke-dashoffset:1.5;stroke-opacity:1"
         transform="matrix(-0.8660254,0.5,-0.5,-0.8660254,0,0)" />
      <rect
         style="opacity:1;fill:#3465a4;fill-opacity:1;fill-rule:evenodd;stroke:none;stroke-width:2;stroke-linecap:butt;stroke-linejoin:round;stroke-miterlimit:4;stroke-dasharray:none;stroke-dashoffset:1.5;stroke-opacity:1"
         id="rect11345"
         width="0.9999826"
         height="1.0000174"
         x="515.23975"
         y="-910.39514"
         transform="matrix(-0.8660254,0.5,-0.5,-0.8660254,0,0)" />
      <rect
         y="895.89508"
         x="526.62244"
         height="1.0000174"
         width="1"
         id="rect11357"
         style="opacity:1;fill:#3465a4;fill-opacity:1;fill-rule:evenodd;stroke:none;stroke-width:2;stroke-linecap:butt;stroke-linejoin:round;stroke-miterlimit:4;stroke-dasharray:none;stroke-dashoffset:1.5;stroke-opacity:1"
         transform="matrix(0.8660254,0.5,-0.5,0.8660254,0,0)" />
      <rect
         style="opacity:1;fill:#3465a4;fill-opacity:1;fill-rule:evenodd;stroke:none;stroke-width:2;stroke-linecap:butt;stroke-linejoin:round;stroke-miterlimit:4;stroke-dasharray:none;stroke-dashoffset:1.5;stroke-opacity:1"
         id="rect11359"
         width="1"
         height="1.0000174"
         x="538.62244"
         y="895.89508"
         transform="matrix(0.8660254,0.5,-0.5,0.8660254,0,0)" />
      <rect
         transform="matrix(-0.5,0.8660254,-0.8660254,-0.5,0,0)"
         style="opacity:1;fill:#3465a4;fill-opacity:1;fill-rule:evenodd;stroke:none;stroke-width:2;stroke-linecap:butt;stroke-linejoin:round;stroke-miterlimit:4;stroke-dasharray:none;stroke-dashoffset:1.5;stroke-opacity:1"
         id="rect11361"
         width="1.0000174"
         height="1.0000174"
         x="889.89508"
         y="-533.62244" />
      <rect
         transform="matrix(-0.5,0.8660254,-0.8660254,-0.5,0,0)"
         y="-533.62244"
         x="901.89514"
         height="1.0000174"
         width="0.9999826"
         id="rect11363"
         style="opacity:1;fill:#3465a4;fill-opacity:1;fill-rule:evenodd;stroke:none;stroke-width:2;stroke-linecap:butt;stroke-linejoin:round;stroke-miterlimit:4;stroke-dasharray:none;stroke-dashoffset:1.5;stroke-opacity:1" />
    </g>
    <rect
       ry="0.5"
       y="1041.3622"
       x="13"
       height="1.9999826"
       width="1"
       id="rect11385"
       style="opacity:1;fill:#555753;fill-opacity:1;fill-rule:evenodd;stroke:none;stroke-width:2;stroke-linecap:butt;stroke-linejoin:round;stroke-miterlimit:4;stroke-dasharray:none;stroke-dashoffset:1.5;stroke-opacity:1" />
    <path
       style="opacity:1;fill:url(#linearGradient11568);fill-opacity:1;fill-rule:evenodd;stroke:none;stroke-width:4;stroke-linecap:butt;stroke-linejoin:round;stroke-miterlimit:4;stroke-dasharray:none;stroke-dashoffset:1.5;stroke-opacity:0.23529412"
       d="m 18.803301,1037.5589 a 7.5,7.4999847 45 0 0 -10.606602,0 7.5,7.4999847 45 0 0 0,10.6066 7.5,7.4999847 45 0 0 10.606602,0 7.5,7.4999847 45 0 0 0,-10.6066 z m -0.707107,0.7071 a 6.5,6.4999871 45 0 1 0,9.1924 6.5,6.4999871 45 0 1 -9.192388,0 6.5,6.4999871 45 0 1 0,-9.1924 6.5,6.4999871 45 0 1 9.192388,0 z"
       id="ellipse11516"
       inkscape:connector-curvature="0" />
    <rect
       style="opacity:1;fill:#2e3436;fill-opacity:1;fill-rule:evenodd;stroke:none;stroke-width:2;stroke-linecap:butt;stroke-linejoin:round;stroke-miterlimit:4;stroke-dasharray:none;stroke-dashoffset:1.5;stroke-opacity:1"
       id="rect11383"
       width="1"
       height="5.9999652"
       x="13"
       y="1037.3622"
       ry="0.5" />
    <rect
       style="opacity:1;fill:#ef2929;fill-opacity:1;fill-rule:evenodd;stroke:none;stroke-width:2;stroke-linecap:butt;stroke-linejoin:round;stroke-miterlimit:4;stroke-dasharray:none;stroke-dashoffset:1.5;stroke-opacity:1"
       id="rect11570"
       width="1"
       height="2.0000174"
       x="13"
       y="1037.3622"
       ry="0" />
    <g
       id="g13800"
       transform="translate(5.2592344,-0.96806115)">
      <g
         transform="matrix(1.185687,-0.49719981,1.3534778,3.2276782,-1423.7344,-2348.2381)"
         id="g11475">
        <rect
           width="3"
           height="2"
           x="3"
           y="1049.3622"
           id="rect11477"
           style="display:inline;overflow:visible;visibility:visible;opacity:0.15;fill:url(#linearGradient11483);fill-opacity:1;fill-rule:nonzero;stroke:none;stroke-width:1;marker:none" />
        <path
           d="m 3.0000001,1049.3623 c 0,0 0,1.9999 0,1.9999 C 2.1727035,1051.3622 1,1050.9141 1,1050.3621 c 0,-0.552 0.9232001,-0.9998 2.0000001,-0.9998 z"
           inkscape:connector-curvature="0"
           id="path11479"
           style="display:inline;overflow:visible;visibility:visible;opacity:0.15;fill:url(#radialGradient11485);fill-opacity:1;fill-rule:nonzero;stroke:none;stroke-width:1;marker:none" />
        <path
           d="m 6,1049.3622 c 0,0 0,1.9999 0,1.9999 0.827296,0 2,-0.4481 2,-1.0001 0,-0.552 -0.923201,-0.9998 -2,-0.9998 z"
           inkscape:connector-curvature="0"
           id="path11481"
           style="display:inline;overflow:visible;visibility:visible;opacity:0.15;fill:url(#radialGradient11487);fill-opacity:1;fill-rule:nonzero;stroke:none;stroke-width:1;marker:none" />
      </g>
      <g
         id="g13781"
         transform="matrix(1.185687,-0.49719981,1.3534778,3.2276782,-1423.7344,-2348.2381)">
        <rect
           style="display:inline;overflow:visible;visibility:visible;opacity:0.15;fill:url(#linearGradient13794);fill-opacity:1;fill-rule:nonzero;stroke:none;stroke-width:1;marker:none"
           id="rect13783"
           y="1049.3622"
           x="3"
           height="2"
           width="3" />
        <path
           style="display:inline;overflow:visible;visibility:visible;opacity:0.15;fill:url(#radialGradient13796);fill-opacity:1;fill-rule:nonzero;stroke:none;stroke-width:1;marker:none"
           id="path13785"
           inkscape:connector-curvature="0"
           d="m 3.0000001,1049.3623 c 0,0 0,1.9999 0,1.9999 C 2.1727035,1051.3622 1,1050.9141 1,1050.3621 c 0,-0.552 0.9232001,-0.9998 2.0000001,-0.9998 z" />
        <path
           style="display:inline;overflow:visible;visibility:visible;opacity:0.15;fill:url(#radialGradient13798);fill-opacity:1;fill-rule:nonzero;stroke:none;stroke-width:1;marker:none"
           id="path13787"
           inkscape:connector-curvature="0"
           d="m 6,1049.3622 c 0,0 0,1.9999 0,1.9999 0.827296,0 2,-0.4481 2,-1.0001 0,-0.552 -0.923201,-0.9998 -2,-0.9998 z" />
      </g>
    </g>
    <g
       id="g13789"
       transform="translate(20,0)">
      <path
         sodipodi:nodetypes="cccccccc"
         inkscape:connector-curvature="0"
         id="path3814"
         d="m -15.46636,1031.3736 c 0.187926,0.023 0.370683,0.087 0.53125,0.1875 l 6.40625,4.2187 c 0.705155,0.4719 0.705155,1.6844 0,2.1563 l -6.40625,4.2187 c -0.779949,0.5026 -2.067205,-0.1658 -2.064884,-1.0937 l 0,-8.4063 c 0.0027,-0.735 0.805067,-1.3784 1.533634,-1.2812 z"
         style="color:#000000;font-style:normal;font-variant:normal;font-weight:normal;font-stretch:normal;font-size:medium;line-height:normal;font-family:Sans;-inkscape-font-specification:Sans;text-indent:0;text-align:start;text-decoration:none;text-decoration-line:none;letter-spacing:normal;word-spacing:normal;text-transform:none;direction:ltr;block-progression:tb;writing-mode:lr-tb;baseline-shift:baseline;text-anchor:start;display:inline;overflow:visible;visibility:visible;fill:url(#radialGradient13779);fill-opacity:1;fill-rule:nonzero;stroke:none;stroke-width:2;stroke-miterlimit:4;stroke-dasharray:none;stroke-opacity:1;marker:none;enable-background:accumulate" />
      <path
         inkscape:connector-curvature="0"
         id="path4158"
         d="m -15.593747,1032.3658 0,0 0.0059,0 c 0.04204,0 0.08631,0.019 0.119141,0.039 l 0.0039,0 6.378906,4.2031 c 0.04716,0.032 0.04716,0.4621 0,0.4941 l -6.390624,4.209 c -0.0097,0.01 -0.153362,0.032 -0.31836,-0.055 -0.164998,-0.087 -0.20508,-0.1944 -0.205078,-0.1953 l 0,-8.4043 c 1.7e-5,0 0.02651,-0.098 0.130859,-0.1836 0.104351,-0.086 0.241575,-0.1093 0.271485,-0.1093 l 0.0039,0 z m 0.59375,1.5488 0,5.8887 4.470703,-2.9454 -4.470703,-2.9433 z"
         style="color:#000000;font-style:normal;font-variant:normal;font-weight:normal;font-stretch:normal;font-size:medium;line-height:normal;font-family:Sans;-inkscape-font-specification:Sans;text-indent:0;text-align:start;text-decoration:none;text-decoration-line:none;text-decoration-style:solid;text-decoration-color:#000000;letter-spacing:normal;word-spacing:normal;text-transform:none;direction:ltr;block-progression:tb;writing-mode:lr-tb;baseline-shift:baseline;text-anchor:start;white-space:normal;clip-rule:nonzero;display:inline;overflow:visible;visibility:visible;opacity:0.6;isolation:auto;mix-blend-mode:normal;color-interpolation:sRGB;color-interpolation-filters:linearRGB;solid-color:#000000;solid-opacity:1;fill:url(#linearGradient4174);fill-opacity:1;fill-rule:nonzero;stroke:none;stroke-width:4;stroke-linecap:butt;stroke-linejoin:miter;stroke-miterlimit:4;stroke-dasharray:none;stroke-dashoffset:0;stroke-opacity:1;marker:none;color-rendering:auto;image-rendering:auto;shape-rendering:auto;text-rendering:auto;enable-background:accumulate" />
      <path
         inkscape:connector-curvature="0"
         id="path4155"
         d="m -15.742185,1031.3697 c 0.09167,-0.01 0.18432,-0.01 0.275391,0 0.187926,0.023 0.370683,0.087 0.53125,0.1875 l 6.40625,4.2187 c 0.705155,0.4719 0.705155,1.6844 0,2.1563 l -6.40625,4.2187 c -0.779949,0.5026 -2.066774,-0.1658 -2.064453,-1.0937 l 0,-8.4063 c 0.0024,-0.6431 0.616115,-1.2171 1.257812,-1.2851 z m 0.148438,0.9961 -0.0039,0 c -0.02991,0 -0.167134,0.023 -0.271485,0.1093 -0.10435,0.086 -0.130842,0.179 -0.130859,0.1836 l 0,8.4043 c -2e-6,9e-4 0.04008,0.1086 0.205078,0.1953 0.164998,0.087 0.308615,0.061 0.31836,0.055 l 6.390625,-4.209 c 0.04716,-0.032 0.04716,-0.4626 0,-0.4941 l -6.378907,-4.2031 -0.0039,0 c -0.03283,-0.02 -0.0771,-0.034 -0.119141,-0.039 l -0.0059,0 0,0 z"
         style="color:#000000;font-style:normal;font-variant:normal;font-weight:normal;font-stretch:normal;font-size:medium;line-height:normal;font-family:Sans;-inkscape-font-specification:Sans;text-indent:0;text-align:start;text-decoration:none;text-decoration-line:none;letter-spacing:normal;word-spacing:normal;text-transform:none;direction:ltr;block-progression:tb;writing-mode:lr-tb;baseline-shift:baseline;text-anchor:start;display:inline;overflow:visible;visibility:visible;fill:url(#linearGradient4194);fill-opacity:1;fill-rule:nonzero;stroke:none;stroke-width:2;stroke-miterlimit:4;stroke-dasharray:none;stroke-opacity:1;marker:none;enable-background:accumulate" />
    </g>
  </g>
</svg>
