<?xml version="1.0" encoding="UTF-8" standalone="no"?>
<!-- Created with Inkscape (http://www.inkscape.org/) -->

<svg
   xmlns:dc="http://purl.org/dc/elements/1.1/"
   xmlns:cc="http://creativecommons.org/ns#"
   xmlns:rdf="http://www.w3.org/1999/02/22-rdf-syntax-ns#"
   xmlns:svg="http://www.w3.org/2000/svg"
   xmlns="http://www.w3.org/2000/svg"
   xmlns:xlink="http://www.w3.org/1999/xlink"
   xmlns:sodipodi="http://sodipodi.sourceforge.net/DTD/sodipodi-0.dtd"
   xmlns:inkscape="http://www.inkscape.org/namespaces/inkscape"
   width="24"
   height="24"
   viewBox="0 0 24 24"
   id="svg13810"
   version="1.1"
   inkscape:version="0.91 r13725"
   inkscape:export-filename="C:\Users\Lutz\Desktop\octave-icons\24x24\debug-breakpoint-toggle.png"
   inkscape:export-xdpi="90"
   inkscape:export-ydpi="90"
   sodipodi:docname="debug-breakpoint-toggle.svg">
  <defs
     id="defs13812">
    <linearGradient
       id="linearGradient9039"
       inkscape:collect="always">
      <stop
         id="stop9041"
         offset="0"
         style="stop-color:#ffffff;stop-opacity:1;" />
      <stop
         style="stop-color:#ffffff;stop-opacity:0.23529412"
         offset="0.27272728"
         id="stop9043" />
      <stop
         style="stop-color:#ffffff;stop-opacity:0.15686275"
         offset="0.90909094"
         id="stop9045" />
      <stop
         id="stop9047"
         offset="1"
         style="stop-color:#ffffff;stop-opacity:0.39215687" />
    </linearGradient>
    <linearGradient
       inkscape:collect="always"
       id="linearGradient16711">
      <stop
         style="stop-color:#ffffff;stop-opacity:1;"
         offset="0"
         id="stop16713" />
      <stop
         style="stop-color:#ffffff;stop-opacity:0;"
         offset="1"
         id="stop16715" />
    </linearGradient>
    <linearGradient
       inkscape:collect="always"
       id="linearGradient12733">
      <stop
         style="stop-color:#ffffff;stop-opacity:1;"
         offset="0"
         id="stop12735" />
      <stop
         id="stop12743"
         offset="0.27429661"
         style="stop-color:#ffffff;stop-opacity:0.23529412" />
      <stop
         id="stop12741"
         offset="0.91432202"
         style="stop-color:#ffffff;stop-opacity:0.15686275" />
      <stop
         style="stop-color:#ffffff;stop-opacity:0.39215687"
         offset="1"
         id="stop12737" />
    </linearGradient>
    <linearGradient
       inkscape:collect="always"
       id="linearGradient12154">
      <stop
         style="stop-color:#cc0000;stop-opacity:1"
         offset="0"
         id="stop12156" />
      <stop
         style="stop-color:#a40000;stop-opacity:1"
         offset="1"
         id="stop12158" />
    </linearGradient>
    <linearGradient
       x1="302.85715"
       y1="366.64789"
       x2="302.85715"
       y2="609.50507"
       id="linearGradient4218"
       xlink:href="#linearGradient5048"
       gradientUnits="userSpaceOnUse"
       gradientTransform="matrix(0.02899409,0,0,0.00823529,1.5207096,1044.3425)" />
    <linearGradient
       id="linearGradient5048">
      <stop
         id="stop5050"
         style="stop-color:#000000;stop-opacity:0"
         offset="0" />
      <stop
         id="stop5056"
         style="stop-color:#000000;stop-opacity:1"
         offset="0.5" />
      <stop
         id="stop5052"
         style="stop-color:#000000;stop-opacity:0"
         offset="1" />
    </linearGradient>
    <radialGradient
       cx="605.71429"
       cy="486.64789"
       r="117.14286"
       fx="605.71429"
       fy="486.64789"
       id="radialGradient3048-2"
       xlink:href="#linearGradient5060"
       gradientUnits="userSpaceOnUse"
       gradientTransform="matrix(-0.01606478,0,0,0.00823529,14.681608,1044.3427)" />
    <linearGradient
       id="linearGradient5060">
      <stop
         id="stop5062"
         style="stop-color:#000000;stop-opacity:1"
         offset="0" />
      <stop
         id="stop5064"
         style="stop-color:#000000;stop-opacity:0"
         offset="1" />
    </linearGradient>
    <radialGradient
       cx="605.71429"
       cy="486.64789"
       r="117.14286"
       fx="605.71429"
       fy="486.64789"
       id="radialGradient3045-5"
       xlink:href="#linearGradient5060"
       gradientUnits="userSpaceOnUse"
       gradientTransform="matrix(0.01606478,0,0,0.00823529,9.3183906,1044.3427)" />
    <linearGradient
       inkscape:collect="always"
       xlink:href="#linearGradient12154"
       id="linearGradient15956"
       x1="12"
       y1="1033.2372"
       x2="12"
       y2="1047.2997"
       gradientUnits="userSpaceOnUse"
       gradientTransform="matrix(0.875,0,0,0.87500032,-1.5,130.04499)" />
    <linearGradient
       inkscape:collect="always"
       xlink:href="#linearGradient9039"
       id="linearGradient15999"
       x1="6.5"
       y1="1039.8622"
       x2="17.5"
       y2="1039.8622"
       gradientUnits="userSpaceOnUse"
       gradientTransform="matrix(0,1,-1,0,1049.3622,1028.3622)" />
    <linearGradient
       inkscape:collect="always"
       xlink:href="#linearGradient12733"
       id="linearGradient16795"
       gradientUnits="userSpaceOnUse"
       gradientTransform="matrix(0,1,-1,0,1075.3622,988.3622)"
       x1="5"
       y1="1040.3622"
       x2="19"
       y2="1040.3622" />
    <linearGradient
       inkscape:collect="always"
       xlink:href="#linearGradient12154"
       id="linearGradient16814"
       x1="34.8125"
       y1="1014.9247"
       x2="34.75"
       y2="1025.9247"
       gradientUnits="userSpaceOnUse"
       gradientTransform="translate(-20,20)" />
    <linearGradient
       inkscape:collect="always"
       xlink:href="#linearGradient9039"
       id="linearGradient16832"
       gradientUnits="userSpaceOnUse"
       gradientTransform="matrix(0,1,-1,0,1055.3622,1028.3622)"
       x1="6.5"
       y1="1039.8622"
       x2="17.5"
       y2="1039.8622" />
    <radialGradient
       inkscape:collect="always"
       xlink:href="#linearGradient16711"
       id="radialGradient9049"
       cx="6.163825"
       cy="1036.9742"
       fx="6.163825"
       fy="1036.9742"
       r="6.000001"
       gradientTransform="matrix(0.95087804,0,0,0.95087787,0.97290134,51.968522)"
       gradientUnits="userSpaceOnUse" />
  </defs>
  <sodipodi:namedview
     id="base"
     pagecolor="#ffffff"
     bordercolor="#666666"
     borderopacity="1.0"
     inkscape:pageopacity="0.0"
     inkscape:pageshadow="2"
     inkscape:zoom="2.8284271"
     inkscape:cx="21.503327"
     inkscape:cy="-3.0720568"
     inkscape:document-units="px"
     inkscape:current-layer="layer1"
     showgrid="true"
     units="px"
     inkscape:snap-nodes="true"
     inkscape:snap-bbox="true"
     inkscape:bbox-nodes="true"
     inkscape:object-nodes="true"
     inkscape:snap-global="true">
    <inkscape:grid
       type="xygrid"
       id="grid14358"
       empspacing="12"
       originx="0"
       originy="0" />
  </sodipodi:namedview>
  <metadata
     id="metadata13815">
    <rdf:RDF>
      <cc:Work
         rdf:about="">
        <dc:format>image/svg+xml</dc:format>
        <dc:type
           rdf:resource="http://purl.org/dc/dcmitype/StillImage" />
        <dc:title></dc:title>
      </cc:Work>
    </rdf:RDF>
  </metadata>
  <g
     inkscape:label="Ebene 1"
     inkscape:groupmode="layer"
     id="layer1"
     transform="translate(0,-1028.3622)">
    <g
       transform="translate(0,-0.99986055)"
       id="g13371">
      <rect
         width="14"
         height="2"
         x="5"
         y="1047.3621"
         id="rect2879"
         style="display:inline;overflow:visible;visibility:visible;opacity:0.15;fill:url(#linearGradient4218);fill-opacity:1;fill-rule:nonzero;stroke:none;stroke-width:1;marker:none" />
      <path
         d="m 5.0000001,1047.3622 c 0,0 0,1.9999 0,1.9999 C 4.1727035,1049.3621 3,1048.914 3,1048.362 c 0,-0.552 0.9232001,-0.9998 2.0000001,-0.9998 z"
         inkscape:connector-curvature="0"
         id="path2881"
         style="display:inline;overflow:visible;visibility:visible;opacity:0.15;fill:url(#radialGradient3048-2);fill-opacity:1;fill-rule:nonzero;stroke:none;stroke-width:1;marker:none" />
      <path
         d="m 19,1047.3622 c 0,0 0,1.9999 0,1.9999 0.827296,0 2,-0.4481 2,-1.0001 0,-0.552 -0.923201,-0.9998 -2,-0.9998 z"
         inkscape:connector-curvature="0"
         id="path2883"
         style="display:inline;overflow:visible;visibility:visible;opacity:0.15;fill:url(#radialGradient3045-5);fill-opacity:1;fill-rule:nonzero;stroke:none;stroke-width:1;marker:none" />
    </g>
    <ellipse
       ry="7.0000052"
       rx="7"
       cy="1040.3622"
       cx="15"
       id="ellipse16783"
       style="opacity:1;fill:#fbeff0;fill-opacity:1;fill-rule:evenodd;stroke:none;stroke-width:1;stroke-linecap:butt;stroke-linejoin:miter;stroke-miterlimit:4;stroke-dasharray:none;stroke-dashoffset:1.5;stroke-opacity:1" />
    <path
       inkscape:connector-curvature="0"
       id="path16785"
       d="m 42,1000.3622 a 6.9999962,7 0 0 0 -7,-7 6.9999962,7 0 0 0 -7,7 6.9999962,7 0 0 0 7,7 6.9999962,7 0 0 0 7,-7 z m -1,0 a 6.0000033,6 0 0 1 -6,6 6.0000033,6 0 0 1 -6,-6 6.0000033,6 0 0 1 6,-6 6.0000033,6 0 0 1 6,6 z"
       style="opacity:0.5;fill:url(#linearGradient16795);fill-opacity:1;fill-rule:evenodd;stroke:none;stroke-width:1;stroke-linecap:butt;stroke-linejoin:miter;stroke-miterlimit:4;stroke-dasharray:none;stroke-dashoffset:1.5;stroke-opacity:1" />
    <path
       style="color:#000000;font-style:normal;font-variant:normal;font-weight:normal;font-stretch:normal;font-size:medium;line-height:normal;font-family:sans-serif;text-indent:0;text-align:start;text-decoration:none;text-decoration-line:none;text-decoration-style:solid;text-decoration-color:#000000;letter-spacing:normal;word-spacing:normal;text-transform:none;direction:ltr;block-progression:tb;writing-mode:lr-tb;baseline-shift:baseline;text-anchor:start;white-space:normal;clip-rule:nonzero;display:inline;overflow:visible;visibility:visible;opacity:1;isolation:auto;mix-blend-mode:normal;color-interpolation:sRGB;color-interpolation-filters:linearRGB;solid-color:#000000;solid-opacity:1;fill:#f8dee0;fill-opacity:1;fill-rule:evenodd;stroke:none;stroke-width:2;stroke-linecap:butt;stroke-linejoin:miter;stroke-miterlimit:4;stroke-dasharray:4, 2;stroke-dashoffset:0;stroke-opacity:1;color-rendering:auto;image-rendering:auto;shape-rendering:auto;text-rendering:auto;enable-background:accumulate"
       d="m 14.683594,1033.3778 -0.347656,0.018 -0.05078,0 -0.04883,0.01 -0.595703,0.092 -0.05078,0.01 -0.04883,0.012 -0.574219,0.1484 -0.04883,0.012 -0.04492,0.018 -0.552735,0.2012 -0.04492,0.02 -0.04492,0.019 -0.525391,0.252 -0.04297,0.021 -0.04101,0.025 -0.494141,0.3008 -0.04101,0.024 -0.03906,0.029 -0.462891,0.3457 -0.03711,0.027 -0.03516,0.031 -0.09766,0.088 0.669922,0.7382 a 6.0000033,6 0 0 1 3.648438,-1.4433 l -0.04883,-0.9981 z m 2.27539,0.2696 -0.248046,0.9687 a 6.0000033,6 0 0 1 3.1875,2.2871 l 0.798828,-0.5976 -0.265625,-0.3575 -0.0293,-0.039 -0.0332,-0.035 -0.386719,-0.4258 -0.03125,-0.035 -0.03516,-0.033 -0.427735,-0.3867 -0.03516,-0.031 -0.03711,-0.029 -0.462891,-0.3457 -0.03906,-0.027 -0.04102,-0.024 -0.494141,-0.3008 -0.04102,-0.025 -0.04297,-0.021 -0.525391,-0.252 -0.04492,-0.019 -0.04492,-0.02 -0.552735,-0.2012 -0.04492,-0.018 -0.04883,-0.012 -0.07422,-0.02 z m -2.175781,1.7226 a 5.0000052,5 0 0 0 -0.259765,0.019 l 0.259765,-0.014 0,-0.01 z m -0.419922,0.039 a 5.0000052,5 0 0 0 -0.314453,0.049 l 0.314453,-0.049 z m -0.490234,0.088 a 5.0000052,5 0 0 0 -0.294922,0.074 l 0.294922,-0.074 z m -0.509766,0.1465 a 5.0000052,5 0 0 0 -0.25,0.092 l 0.25,-0.092 z m -0.503906,0.207 a 5.0000052,5 0 0 0 -0.169922,0.08 l 0.169922,-0.08 z m 4.513672,0.1113 0.304687,0.1856 a 5.0000052,5 0 0 0 -0.304687,-0.1856 z m -4.908203,0.098 A 5.0000052,5 0 0 0 12.25,1036.1903 l 0.214844,-0.1308 z m 5.34375,0.166 0.291015,0.2207 a 5.0000052,5 0 0 0 -0.291015,-0.2207 z m -5.753906,0.1055 a 5.0000052,5 0 0 0 -0.210938,0.1582 l 0.210938,-0.1582 z m 6.134765,0.1835 0.236328,0.2129 a 5.0000052,5 0 0 0 -0.236328,-0.2129 z m -9.228515,0.3204 -0.0918,0.1484 -0.02539,0.043 -0.01953,0.043 -0.253907,0.5235 -0.02148,0.045 -0.01563,0.047 -0.203125,0.5507 -0.01563,0.047 -0.01367,0.047 -0.146484,0.5762 -0.01367,0.049 -0.0078,0.049 -0.08984,0.5957 -0.0078,0.051 -0.002,0.051 -0.03125,0.6133 -0.0039,0.049 0.0039,0.051 0.03125,0.6133 0.002,0.053 0.0078,0.051 0.03516,0.2265 0.988281,-0.1503 A 6.0000033,6 0 0 1 9,1040.3622 a 6.0000033,6 0 0 1 0.816406,-3.0078 l -0.855468,-0.5195 z m 9.578124,0 0.214844,0.2343 a 5.0000052,5 0 0 0 -0.214844,-0.2343 z m 0.335938,0.373 0.173828,0.2324 A 5.0000052,5 0 0 0 18.875,1037.2079 Z m -8.207031,0.666 a 5.0000052,5 0 0 0 -0.277344,0.5528 l 0.214844,-0.4454 0.06445,-0.1074 -0.002,0 z m 11.060547,0.5703 -0.96875,0.252 A 6.0000033,6 0 0 1 21,1040.3622 l 0.998047,-0.051 -0.03125,-0.6133 -0.002,-0.051 -0.0078,-0.051 -0.08984,-0.5957 -0.0078,-0.051 -0.01367,-0.049 -0.117187,-0.4571 z M 21,1040.3622 a 6.0000033,6 0 0 1 -1.287109,3.7109 l 0.798828,0.5977 0.263672,-0.3535 0.0293,-0.039 0.02539,-0.041 0.300781,-0.4941 0.02539,-0.043 0.01953,-0.043 0.253907,-0.5254 0.02148,-0.043 0.01563,-0.047 0.203125,-0.5508 0.01563,-0.049 0.01367,-0.049 0.146484,-0.5743 0.01367,-0.049 0.0078,-0.049 0.08984,-0.5957 0.0078,-0.051 0.002,-0.051 0.03125,-0.6133 L 21,1040.3622 Z m -10.775391,-1.4805 a 5.0000052,5 0 0 0 -0.08398,0.3282 l 0.08398,-0.3282 z m 9.566407,0.064 0.06836,0.2656 a 5.0000052,5 0 0 0 -0.06641,-0.2656 5.0000052,5 0 0 0 -0.002,0 z m -9.685547,0.4023 A 5.0000052,5 0 0 0 10,1040.3622 l 0.02734,-0.5039 0.07813,-0.5098 z m 9.798828,0.062 0.05273,0.3457 a 5.0000052,5 0 0 0 -0.05273,-0.3457 z m 0.07031,0.4883 0.02539,0.4629 a 5.0000052,5 0 0 0 -0.02539,-0.4629 z M 10,1040.372 a 5.0000052,5 0 0 0 0.02539,0.4492 L 10,1040.372 Z m 9.998047,0.023 -0.02539,0.4746 a 5.0000052,5 0 0 0 0.02539,-0.4746 z m -0.02539,0.4746 -0.07617,0.5 a 5.0000052,5 0 0 0 0.07617,-0.5 z m -9.925781,0.1309 a 5.0000052,5 0 0 0 0.0059,0.055 l 0.002,0 -0.0078,-0.055 z m 9.783203,0.6289 -0.05664,0.2207 a 5.0000052,5 0 0 0 0.05664,-0.2207 z m -9.115234,1.2988 a 5.0000052,5 0 0 0 0.109375,0.1797 l -0.109375,-0.1797 z m -1.046875,0.1699 -0.904297,0.4375 0.06055,0.1211 0.01953,0.043 0.02539,0.043 0.300781,0.4941 0.02539,0.041 0.0293,0.037 0.34375,0.461 0.0293,0.039 0.0332,0.035 0.386719,0.4258 0.03125,0.035 0.03516,0.033 0.427735,0.3867 0.03516,0.031 0.03711,0.029 0.462891,0.3457 0.03906,0.029 0.04101,0.022 0.494141,0.3008 0.04101,0.025 0.04297,0.024 0.363281,0.1738 0.433594,-0.9023 a 6.0000033,6 0 0 1 -2.833984,-2.711 z m 9.470703,0.068 -0.150391,0.1992 a 5.0000052,5 0 0 0 0.150391,-0.1992 z m -8.19336,0.1094 a 5.0000052,5 0 0 0 0.179688,0.2402 l -0.179688,-0.2402 z m 0.300782,0.3789 a 5.0000052,5 0 0 0 0.214844,0.2343 l -0.214844,-0.2343 z m 0.328125,0.3418 a 5.0000052,5 0 0 0 0.236328,0.2129 l -0.236328,-0.2129 z m 0.326172,0.2812 a 5.0000052,5 0 0 0 0.291015,0.2207 l -0.291015,-0.2207 z m 5.818359,0.2695 -0.205078,0.129 a 5.0000052,5 0 0 0 0.208984,-0.1231 l -0.0039,-0.01 z m -5.382812,0.039 a 5.0000052,5 0 0 0 0.28125,0.1699 l -0.28125,-0.1699 z m 4.964843,0.2109 -0.130859,0.064 a 5.0000052,5 0 0 0 0.130859,-0.064 z m -0.43164,0.1993 -0.173829,0.064 a 5.0000052,5 0 0 0 0.173829,-0.064 z m -0.458985,0.1601 -0.236328,0.061 a 5.0000052,5 0 0 0 0.236328,-0.061 z m -0.476562,0.1133 -0.361328,0.053 a 5.0000052,5 0 0 0 0.361328,-0.053 z m -1.458985,0.062 a 5.0000052,5 0 0 0 0.525391,0.029 5.0000052,5 0 0 0 0.488281,-0.027 L 15,1045.3602 l -0.525391,-0.027 z m 3.765625,0.072 A 6.0000033,6 0 0 1 15,1046.3622 a 6.0000033,6 0 0 1 -0.576172,-0.035 l -0.05078,1.004 0.576172,0.029 0.05078,0 0.05078,0 0.613281,-0.031 0.05078,0 0.04883,-0.01 0.595703,-0.092 0.05078,-0.01 0.04883,-0.012 0.574219,-0.1485 0.04883,-0.012 0.04492,-0.018 0.552735,-0.2012 0.04492,-0.02 0.04492,-0.021 0.525391,-0.2519 0.04297,-0.022 0.04102,-0.025 0.378906,-0.2285 -0.517578,-0.8535 z"
       id="ellipse16787"
       inkscape:connector-curvature="0" />
    <path
       inkscape:connector-curvature="0"
       id="path16791"
       d="m 15,1034.3622 a 6,6.0000033 0 0 0 -0.494141,0.023 A 6.0000033,6 0 0 1 15,1034.3622 Z m 0.494141,0.023 a 6.0000033,6 0 0 1 0.355468,0.043 6,6.0000033 0 0 0 -0.355468,-0.043 z m -1.34375,0.043 a 6,6.0000033 0 0 0 -0.242188,0.037 6.0000033,6 0 0 1 0.242188,-0.037 z m 1.941406,0.037 a 6.0000033,6 0 0 1 0.324219,0.072 6,6.0000033 0 0 0 -0.324219,-0.072 z m -2.507813,0.072 a 6,6.0000033 0 0 0 -0.265625,0.068 6.0000033,6 0 0 1 0.265625,-0.068 z m 3.097657,0.068 a 6.0000033,6 0 0 1 0.320312,0.1075 6,6.0000033 0 0 0 -0.320312,-0.1075 z m -3.66211,0.1 a 6,6.0000033 0 0 0 -0.279297,0.1035 6.0000033,6 0 0 1 0.279297,-0.1035 z m 4.21875,0.094 a 6.0000033,6 0 0 1 0.310547,0.1387 6,6.0000033 0 0 0 -0.310547,-0.1387 z m -4.751953,0.1211 a 6,6.0000033 0 0 0 -0.283203,0.1367 6.0000033,6 0 0 1 0.283203,-0.1367 z m 5.306641,0.1348 a 6.0000033,6 0 0 1 0.265625,0.1523 6,6.0000033 0 0 0 -0.265625,-0.1523 z m -5.851563,0.1523 a 6,6.0000033 0 0 0 -0.259765,0.1602 6.0000033,6 0 0 1 0.259765,-0.1602 z M 15,1035.3622 a 5.0000052,5 0 0 0 -5,5 5.0000052,5 0 0 0 5,5 5.0000052,5 0 0 0 5,-5 5.0000052,5 0 0 0 -5,-5 z m 3.318359,0.01 a 6.0000033,6 0 0 1 0.242188,0.1718 6,6.0000033 0 0 0 -0.242188,-0.1718 z m -6.878906,0.1718 a 6,6.0000033 0 0 0 -0.230469,0.1758 6.0000033,6 0 0 1 0.230469,-0.1758 z m 7.351563,0.1758 a 6.0000033,6 0 0 1 0.238281,0.209 6,6.0000033 0 0 0 -0.238281,-0.209 z m -7.820313,0.209 a 6,6.0000033 0 0 0 -0.210937,0.1973 6.0000033,6 0 0 1 0.210937,-0.1973 z m 8.269531,0.1973 a 6.0000033,6 0 0 1 0.197266,0.2109 6,6.0000033 0 0 0 -0.197266,-0.2109 z m -8.677734,0.2109 a 6,6.0000033 0 0 0 -0.208984,0.2383 6.0000033,6 0 0 1 0.208984,-0.2383 z m 9.083984,0.2383 a 6.0000033,6 0 0 1 0.175782,0.2305 6,6.0000033 0 0 0 -0.175782,-0.2305 z m -9.46875,0.2305 a 6,6.0000033 0 0 0 -0.171875,0.2421 6.0000033,6 0 0 1 0.171875,-0.2421 z m 9.816407,0.2421 a 6.0000033,6 0 0 1 0.160156,0.2598 6,6.0000033 0 0 0 -0.160156,-0.2598 z m -10.148438,0.2598 a 6,6.0000033 0 0 0 -0.150391,0.2617 6.0000033,6 0 0 1 0.150391,-0.2617 z m 10.458985,0.2617 a 6.0000033,6 0 0 1 0.136718,0.2832 6,6.0000033 0 0 0 -0.136718,-0.2832 z m -10.746094,0.2832 a 6,6.0000033 0 0 0 -0.111328,0.2539 6.0000033,6 0 0 1 0.111328,-0.2539 z m 10.99414,0.2539 a 6.0000033,6 0 0 1 0.103516,0.2793 6,6.0000033 0 0 0 -0.103516,-0.2793 z m -11.208984,0.2793 a 6,6.0000033 0 0 0 -0.09961,0.2989 6.0000033,6 0 0 1 0.09961,-0.2989 z m 11.412109,0.2989 a 6.0000033,6 0 0 1 0.06836,0.2656 6,6.0000033 0 0 0 -0.06836,-0.2656 z m -11.580078,0.2656 a 6,6.0000033 0 0 0 -0.07227,0.3242 6.0000033,6 0 0 1 0.07227,-0.3242 z m 11.720703,0.3242 a 6.0000033,6 0 0 1 0.03711,0.2422 6,6.0000033 0 0 0 -0.03711,-0.2422 z m -11.830078,0.2422 a 6,6.0000033 0 0 0 -0.04297,0.3555 6.0000033,6 0 0 1 0.04297,-0.3555 z m 11.910156,0.3555 a 6.0000033,6 0 0 1 0.02344,0.4941 6,6.0000033 0 0 0 -0.02344,-0.4941 z M 9,1040.3622 a 6,6.0000033 0 0 0 0.02344,0.4941 A 6.0000033,6 0 0 1 9,1040.3622 Z m 11.976562,0.4941 a 6.0000033,6 0 0 1 -0.04297,0.3555 6,6.0000033 0 0 0 0.04297,-0.3555 z m -11.910156,0.3555 a 6,6.0000033 0 0 0 0.03711,0.2422 6.0000033,6 0 0 1 -0.03711,-0.2422 z m 11.830078,0.2422 a 6.0000033,6 0 0 1 -0.07227,0.3242 6,6.0000033 0 0 0 0.07227,-0.3242 z m -11.720703,0.3242 a 6,6.0000033 0 0 0 0.06836,0.2656 6.0000033,6 0 0 1 -0.06836,-0.2656 z m 11.580078,0.2656 a 6.0000033,6 0 0 1 -0.09961,0.2989 6,6.0000033 0 0 0 0.09961,-0.2989 z m -11.412109,0.2989 a 6,6.0000033 0 0 0 0.103516,0.2793 6.0000033,6 0 0 1 -0.103516,-0.2793 z m 11.208984,0.2793 a 6.0000033,6 0 0 1 -0.111328,0.2539 6,6.0000033 0 0 0 0.111328,-0.2539 z m -10.99414,0.2539 a 6,6.0000033 0 0 0 0.136718,0.2832 6.0000033,6 0 0 1 -0.136718,-0.2832 z m 10.746094,0.2832 a 6.0000033,6 0 0 1 -0.150391,0.2617 6,6.0000033 0 0 0 0.150391,-0.2617 z m -10.458985,0.2617 a 6,6.0000033 0 0 0 0.160156,0.2598 6.0000033,6 0 0 1 -0.160156,-0.2598 z m 10.148438,0.2598 a 6.0000033,6 0 0 1 -0.171875,0.2421 6,6.0000033 0 0 0 0.171875,-0.2421 z m -9.816407,0.2421 a 6,6.0000033 0 0 0 0.175782,0.2305 6.0000033,6 0 0 1 -0.175782,-0.2305 z m 9.46875,0.2305 a 6.0000033,6 0 0 1 -0.208984,0.2383 6,6.0000033 0 0 0 0.208984,-0.2383 z m -9.083984,0.2383 a 6,6.0000033 0 0 0 0.197266,0.2109 6.0000033,6 0 0 1 -0.197266,-0.2109 z m 8.677734,0.2109 a 6.0000033,6 0 0 1 -0.210937,0.1973 6,6.0000033 0 0 0 0.210937,-0.1973 z m -8.269531,0.1973 a 6,6.0000033 0 0 0 0.238281,0.209 6.0000033,6 0 0 1 -0.238281,-0.209 z m 7.820313,0.209 a 6.0000033,6 0 0 1 -0.230469,0.1758 6,6.0000033 0 0 0 0.230469,-0.1758 z m -7.351563,0.1758 a 6,6.0000033 0 0 0 0.242188,0.1718 6.0000033,6 0 0 1 -0.242188,-0.1718 z m 6.878906,0.1718 a 6.0000033,6 0 0 1 -0.259765,0.1602 6,6.0000033 0 0 0 0.259765,-0.1602 z m -6.376953,0.1602 a 6,6.0000033 0 0 0 0.261719,0.1504 6.0000033,6 0 0 1 -0.261719,-0.1504 z m 5.855469,0.1504 a 6.0000033,6 0 0 1 -0.283203,0.1367 6,6.0000033 0 0 0 0.283203,-0.1367 z m -5.310547,0.1367 a 6,6.0000033 0 0 0 0.253906,0.1113 6.0000033,6 0 0 1 -0.253906,-0.1113 z m 4.773438,0.1113 a 6.0000033,6 0 0 1 -0.279297,0.1036 6,6.0000033 0 0 0 0.279297,-0.1036 z m -4.240235,0.1036 a 6,6.0000033 0 0 0 0.298828,0.1 6.0000033,6 0 0 1 -0.298828,-0.1 z m 3.66211,0.1 a 6.0000033,6 0 0 1 -0.265625,0.068 6,6.0000033 0 0 0 0.265625,-0.068 z m -3.097657,0.068 a 6,6.0000033 0 0 0 0.324219,0.072 6.0000033,6 0 0 1 -0.324219,-0.072 z m 2.507813,0.072 a 6.0000033,6 0 0 1 -0.242188,0.037 6,6.0000033 0 0 0 0.242188,-0.037 z m -1.941406,0.037 a 6,6.0000033 0 0 0 0.355468,0.043 6.0000033,6 0 0 1 -0.355468,-0.043 z m 1.34375,0.043 A 6.0000033,6 0 0 1 15,1046.3622 a 6,6.0000033 0 0 0 0.494141,-0.023 z"
       style="opacity:0.4;fill:none;fill-opacity:1;fill-rule:evenodd;stroke:none;stroke-width:1;stroke-linecap:butt;stroke-linejoin:miter;stroke-miterlimit:4;stroke-dasharray:none;stroke-dashoffset:1.5;stroke-opacity:1" />
    <path
       style="color:#000000;font-style:normal;font-variant:normal;font-weight:normal;font-stretch:normal;font-size:medium;line-height:normal;font-family:sans-serif;text-indent:0;text-align:start;text-decoration:none;text-decoration-line:none;text-decoration-style:solid;text-decoration-color:#000000;letter-spacing:normal;word-spacing:normal;text-transform:none;direction:ltr;block-progression:tb;writing-mode:lr-tb;baseline-shift:baseline;text-anchor:start;white-space:normal;clip-rule:nonzero;display:inline;overflow:visible;visibility:visible;opacity:1;isolation:auto;mix-blend-mode:normal;color-interpolation:sRGB;color-interpolation-filters:linearRGB;solid-color:#000000;solid-opacity:1;fill:url(#linearGradient16814);fill-opacity:1;fill-rule:evenodd;stroke:none;stroke-width:2;stroke-linecap:butt;stroke-linejoin:miter;stroke-miterlimit:4;stroke-dasharray:4, 2;stroke-dashoffset:4;stroke-opacity:1;color-rendering:auto;image-rendering:auto;shape-rendering:auto;text-rendering:auto;enable-background:accumulate"
       d="m 14.949219,1033.3642 -0.613281,0.029 -0.05078,0 -0.04883,0.012 -0.595703,0.092 -0.05078,0.01 -0.04883,0.012 -0.574219,0.1484 -0.04883,0.012 -0.04492,0.018 -0.429688,0.1562 0.34375,0.9395 A 6.0000033,6 0 0 1 15,1034.3622 a 6.0000033,6 0 0 1 1.710938,0.2539 l 0.248046,-0.9687 -0.5,-0.1289 -0.04883,-0.012 -0.05078,-0.01 -0.595703,-0.092 -0.04883,-0.01 -0.05078,0 -0.613281,-0.031 -0.05078,0 -0.05078,0 z m 4.144531,1.3281 -0.599609,0.8008 a 6.0000033,6 0 0 1 2.265625,3.2031 l 0.96875,-0.25 -0.0293,-0.1192 -0.01367,-0.047 -0.01563,-0.047 -0.203125,-0.5508 -0.01563,-0.047 -0.02148,-0.045 -0.253907,-0.5234 -0.01953,-0.043 -0.02539,-0.043 -0.300781,-0.4941 -0.02539,-0.041 -0.0293,-0.039 -0.34375,-0.4609 -0.0293,-0.039 -0.0332,-0.035 -0.386719,-0.4258 -0.03125,-0.035 -0.03516,-0.031 -0.427735,-0.3867 -0.03516,-0.031 -0.03711,-0.029 -0.322266,-0.2402 z m -8.679688,0.3887 -0.330078,0.2988 -0.03516,0.031 -0.03125,0.035 -0.386719,0.4258 -0.0332,0.035 -0.0293,0.039 -0.34375,0.4609 -0.0293,0.039 -0.02539,0.041 -0.300781,0.4941 -0.02539,0.043 -0.01953,0.043 -0.253907,0.5234 -0.02148,0.045 -0.01563,0.047 -0.203125,0.5508 -0.01563,0.047 -0.01367,0.047 -0.146484,0.5762 -0.01367,0.049 -0.0078,0.051 -0.0078,0.061 0.992187,0.1523 a 6.0000033,6 0 0 1 1.966797,-3.3965 l -0.669922,-0.7382 z M 15,1035.3622 a 5.0000052,5 0 0 0 -0.503906,0.029 L 15,1035.3681 l 0.527344,0.025 0.476562,0.074 0.457032,0.1172 0.002,0 A 5.0000052,5 0 0 0 15,1035.3622 Z m -0.578125,0.039 a 5.0000052,5 0 0 0 -0.402344,0.062 l 0.402344,-0.062 z m -0.486328,0.082 a 5.0000052,5 0 0 0 -0.382813,0.098 l 0.382813,-0.098 z m -0.513672,0.1406 a 5.0000052,5 0 0 0 -0.292969,0.1035 l 0.002,0 0.291016,-0.1074 z m 4.474609,0.668 -0.002,0 0.248047,0.1856 a 5.0000052,5 0 0 0 -0.246094,-0.1875 z m 0.292969,0.2226 0.236328,0.2129 a 5.0000052,5 0 0 0 -0.236328,-0.2129 z m -6.511719,0.1192 a 5.0000052,5 0 0 0 -0.197265,0.1797 l 0.197265,-0.1797 z m 6.861328,0.1992 0.248047,0.2754 a 5.0000052,5 0 0 0 -0.248047,-0.2754 z m -7.105468,0.031 a 5.0000052,5 0 0 0 -0.285156,0.3144 l 0.285156,-0.3144 z m -0.285156,0.3144 a 5.0000052,5 0 0 0 -0.28711,0.3789 l 0.28711,-0.3789 z m 7.716796,0.019 0.179688,0.2364 a 5.0000052,5 0 0 0 -0.179688,-0.2364 z m 0.308594,0.418 0.121094,0.1992 a 5.0000052,5 0 0 0 -0.121094,-0.1992 z m -8.414062,0.1074 a 5.0000052,5 0 0 0 -0.154297,0.2559 l 0.154297,-0.2559 z m 8.664062,0.3164 0.101563,0.211 a 5.0000052,5 0 0 0 -0.101563,-0.211 z m 0.208984,0.4493 0.08008,0.2207 a 5.0000052,5 0 0 0 -0.08008,-0.2207 z m -9.527343,0.8574 a 5.0000052,5 0 0 0 -0.0059,0.019 l 0.002,0 0.0039,-0.019 z m -0.05273,1.707 a 5.0000052,5 0 0 0 0.04102,0.252 l -0.03906,-0.252 -0.002,0 z m -0.986328,0.1504 -0.988281,0.1504 0.05469,0.3691 0.0078,0.049 0.01367,0.049 0.146484,0.5742 0.01367,0.049 0.01563,0.047 0.203125,0.5508 0.01563,0.047 0.02148,0.043 0.253907,0.5254 0.01953,0.043 0.02539,0.043 0.300781,0.4941 0.02539,0.041 0.0293,0.039 0.34375,0.4609 0.0293,0.039 0.0332,0.035 0.386719,0.4258 0.03125,0.035 0.03516,0.033 0.09961,0.09 0.671875,-0.7383 a 6.0000033,6 0 0 1 -1.789063,-3.4941 z m 1.080078,0.3379 a 5.0000052,5 0 0 0 0.06055,0.2363 l -0.06055,-0.2363 z m 0.142578,0.4805 a 5.0000052,5 0 0 0 0.07422,0.205 l -0.07422,-0.205 z m 10.373047,0.3027 a 6.0000033,6 0 0 1 -2.425781,3.082 l 0.521484,0.8574 0.115235,-0.072 0.04102,-0.024 0.03906,-0.029 0.462891,-0.3457 0.03711,-0.029 0.03516,-0.031 0.427735,-0.3867 0.03516,-0.031 0.03125,-0.035 0.386719,-0.4258 0.0332,-0.035 0.0293,-0.039 0.34375,-0.461 0.0293,-0.039 0.02539,-0.041 0.300781,-0.4942 0.02539,-0.043 0.01953,-0.043 0.253907,-0.5254 0.02148,-0.043 0.01563,-0.047 0.136719,-0.373 -0.941407,-0.3457 z m -10.173828,0.1777 a 5.0000052,5 0 0 0 0.08203,0.1719 l -0.08203,-0.1719 z m 0.236328,0.4414 a 5.0000052,5 0 0 0 0.09375,0.1543 l -0.09375,-0.1543 z m 8.414063,0.2227 -0.158203,0.209 a 5.0000052,5 0 0 0 0.158203,-0.209 z m -8.160156,0.1562 a 5.0000052,5 0 0 0 0.136718,0.1817 l -0.136718,-0.1817 z m 7.861328,0.2403 -0.169922,0.1855 a 5.0000052,5 0 0 0 0.169922,-0.1855 z m -7.548828,0.1426 a 5.0000052,5 0 0 0 0.15625,0.1718 l -0.15625,-0.1718 z m 7.216796,0.2187 -0.140624,0.125 a 5.0000052,5 0 0 0 0.140624,-0.125 z m -0.36914,0.3262 -0.140625,0.1054 a 5.0000052,5 0 0 0 0.140625,-0.1054 z m -0.394531,0.2871 -0.02539,0.016 0.002,0 a 5.0000052,5 0 0 0 0.02344,-0.018 z m -1.814453,0.7344 -0.294922,0.043 a 5.0000052,5 0 0 0 0.294922,-0.043 z m -1.439454,0.062 A 5.0000052,5 0 0 0 15,1045.3622 l -0.509766,-0.027 z M 15,1045.3622 a 5.0000052,5 0 0 0 0.458984,-0.025 L 15,1045.3622 Z m -2.496094,0.4473 -0.435547,0.9043 0.16211,0.076 0.04492,0.024 0.04492,0.018 0.552735,0.2011 0.04492,0.018 0.04883,0.012 0.574219,0.1485 0.04883,0.012 0.05078,0.012 0.595703,0.092 0.04883,0.01 0.05078,0 0.613281,0.031 0.05078,0 0.05078,0 0.613281,-0.031 0.05078,0 0.04883,-0.01 0.595703,-0.092 0.05078,-0.012 0.04883,-0.012 0.197266,-0.051 -0.25,-0.9707 A 6.0000033,6 0 0 1 15,1046.3622 a 6.0000033,6 0 0 1 -2.496094,-0.5527 z"
       id="ellipse16806"
       inkscape:connector-curvature="0" />
    <path
       style="opacity:0.5;fill:url(#linearGradient16832);fill-opacity:1;fill-rule:evenodd;stroke:none;stroke-width:1;stroke-linecap:butt;stroke-linejoin:miter;stroke-miterlimit:4;stroke-dasharray:none;stroke-dashoffset:1.5;stroke-opacity:1"
       d="m 21,1040.3622 a 6.0000033,6 0 0 0 -6,-6 6.0000033,6 0 0 0 -6,6 6.0000033,6 0 0 0 6,6 6.0000033,6 0 0 0 6,-6 z m -1,0 a 5.0000052,5 0 0 1 -5,5 5.0000052,5 0 0 1 -5,-5 5.0000052,5 0 0 1 5,-5 5.0000052,5 0 0 1 5,5 z"
       id="path16830"
       inkscape:connector-curvature="0" />
    <ellipse
       style="opacity:1;fill:url(#linearGradient15956);fill-opacity:1;fill-rule:evenodd;stroke:none;stroke-width:1;stroke-linecap:butt;stroke-linejoin:miter;stroke-miterlimit:4;stroke-dasharray:none;stroke-dashoffset:1.5;stroke-opacity:1"
       id="path15946"
       cx="9"
       cy="1040.3622"
       rx="7"
       ry="7.0000052" />
    <ellipse
       style="opacity:1;fill:#da4453;fill-opacity:1;fill-rule:evenodd;stroke:none;stroke-width:1;stroke-linecap:butt;stroke-linejoin:miter;stroke-miterlimit:4;stroke-dasharray:none;stroke-dashoffset:1.5;stroke-opacity:1"
       id="ellipse16005"
       cx="9"
       cy="1040.3622"
       rx="6"
       ry="6.0000033" />
    <path
       style="opacity:0.5;fill:url(#linearGradient15999);fill-opacity:1;fill-rule:evenodd;stroke:none;stroke-width:1;stroke-linecap:butt;stroke-linejoin:miter;stroke-miterlimit:4;stroke-dasharray:none;stroke-dashoffset:1.5;stroke-opacity:1"
       d="m 15,1040.3622 a 6.0000033,6 0 0 0 -6,-6 6.0000033,6 0 0 0 -6,6 6.0000033,6 0 0 0 6,6 6.0000033,6 0 0 0 6,-6 z m -1,0 a 5.0000052,5 0 0 1 -5,5 5.0000052,5 0 0 1 -5,-5 5.0000052,5 0 0 1 5,-5 5.0000052,5 0 0 1 5,5 z"
       id="ellipse15990"
       inkscape:connector-curvature="0" />
    <path
       style="opacity:0.2;fill:url(#radialGradient9049);fill-opacity:1;fill-rule:evenodd;stroke:none;stroke-width:1;stroke-linecap:butt;stroke-linejoin:miter;stroke-miterlimit:4;stroke-dasharray:none;stroke-dashoffset:1.5;stroke-opacity:1"
       d="m 9,1034.3622 a 6,6.0000033 0 0 0 -0.494141,0.023 A 6.0000033,6 0 0 1 9,1034.3622 Z m 0.494141,0.023 a 6.0000033,6 0 0 1 0.355468,0.043 6,6.0000033 0 0 0 -0.355468,-0.043 z m -1.34375,0.043 a 6,6.0000033 0 0 0 -0.242188,0.037 6.0000033,6 0 0 1 0.242188,-0.037 z m 1.941406,0.037 a 6.0000033,6 0 0 1 0.324219,0.072 6,6.0000033 0 0 0 -0.324219,-0.072 z m -2.507813,0.072 a 6,6.0000033 0 0 0 -0.265625,0.068 6.0000033,6 0 0 1 0.265625,-0.068 z m 3.097657,0.068 a 6.0000033,6 0 0 1 0.320312,0.1075 6,6.0000033 0 0 0 -0.320312,-0.1075 z m -3.66211,0.1 a 6,6.0000033 0 0 0 -0.279297,0.1035 6.0000033,6 0 0 1 0.279297,-0.1035 z m 4.21875,0.094 a 6.0000033,6 0 0 1 0.310547,0.1387 6,6.0000033 0 0 0 -0.310547,-0.1387 z m -4.751953,0.1211 a 6,6.0000033 0 0 0 -0.283203,0.1367 6.0000033,6 0 0 1 0.283203,-0.1367 z m 5.306641,0.1348 a 6.0000033,6 0 0 1 0.265625,0.1523 6,6.0000033 0 0 0 -0.265625,-0.1523 z m -5.851563,0.1523 a 6,6.0000033 0 0 0 -0.259765,0.1602 6.0000033,6 0 0 1 0.259765,-0.1602 z M 9,1035.3622 a 5.0000052,5 0 0 0 -5,5 5.0000052,5 0 0 0 5,5 5.0000052,5 0 0 0 5,-5 5.0000052,5 0 0 0 -5,-5 z m 3.318359,0.01 a 6.0000033,6 0 0 1 0.242188,0.1718 6,6.0000033 0 0 0 -0.242188,-0.1718 z m -6.878906,0.1718 a 6,6.0000033 0 0 0 -0.230469,0.1758 6.0000033,6 0 0 1 0.230469,-0.1758 z m 7.351563,0.1758 a 6.0000033,6 0 0 1 0.238281,0.209 6,6.0000033 0 0 0 -0.238281,-0.209 z m -7.820313,0.209 a 6,6.0000033 0 0 0 -0.210937,0.1973 6.0000033,6 0 0 1 0.210937,-0.1973 z m 8.269531,0.1973 a 6.0000033,6 0 0 1 0.197266,0.2109 6,6.0000033 0 0 0 -0.197266,-0.2109 z M 4.5625,1036.337 a 6,6.0000033 0 0 0 -0.208984,0.2383 6.0000033,6 0 0 1 0.208984,-0.2383 z m 9.083984,0.2383 a 6.0000033,6 0 0 1 0.175782,0.2305 6,6.0000033 0 0 0 -0.175782,-0.2305 z m -9.46875,0.2305 a 6,6.0000033 0 0 0 -0.171875,0.2421 6.0000033,6 0 0 1 0.171875,-0.2421 z m 9.816407,0.2421 a 6.0000033,6 0 0 1 0.160156,0.2598 6,6.0000033 0 0 0 -0.160156,-0.2598 z m -10.148438,0.2598 a 6,6.0000033 0 0 0 -0.150391,0.2617 6.0000033,6 0 0 1 0.150391,-0.2617 z m 10.458985,0.2617 a 6.0000033,6 0 0 1 0.136718,0.2832 6,6.0000033 0 0 0 -0.136718,-0.2832 z m -10.746094,0.2832 a 6,6.0000033 0 0 0 -0.111328,0.2539 6.0000033,6 0 0 1 0.111328,-0.2539 z m 10.99414,0.2539 a 6.0000033,6 0 0 1 0.103516,0.2793 6,6.0000033 0 0 0 -0.103516,-0.2793 z m -11.208984,0.2793 a 6,6.0000033 0 0 0 -0.09961,0.2989 6.0000033,6 0 0 1 0.09961,-0.2989 z m 11.412109,0.2989 a 6.0000033,6 0 0 1 0.06836,0.2656 6,6.0000033 0 0 0 -0.06836,-0.2656 z m -11.580078,0.2656 a 6,6.0000033 0 0 0 -0.07227,0.3242 6.0000033,6 0 0 1 0.07227,-0.3242 z m 11.720703,0.3242 a 6.0000033,6 0 0 1 0.03711,0.2422 6,6.0000033 0 0 0 -0.03711,-0.2422 z m -11.830078,0.2422 a 6,6.0000033 0 0 0 -0.04297,0.3555 6.0000033,6 0 0 1 0.04297,-0.3555 z m 11.910156,0.3555 a 6.0000033,6 0 0 1 0.02344,0.4941 6,6.0000033 0 0 0 -0.02344,-0.4941 z M 3,1040.3622 a 6,6.0000033 0 0 0 0.02344,0.4941 A 6.0000033,6 0 0 1 3,1040.3622 Z m 11.976562,0.4941 a 6.0000033,6 0 0 1 -0.04297,0.3555 6,6.0000033 0 0 0 0.04297,-0.3555 z m -11.910156,0.3555 a 6,6.0000033 0 0 0 0.03711,0.2422 6.0000033,6 0 0 1 -0.03711,-0.2422 z m 11.830078,0.2422 a 6.0000033,6 0 0 1 -0.07227,0.3242 6,6.0000033 0 0 0 0.07227,-0.3242 z m -11.720703,0.3242 a 6,6.0000033 0 0 0 0.06836,0.2656 6.0000033,6 0 0 1 -0.06836,-0.2656 z m 11.580078,0.2656 a 6.0000033,6 0 0 1 -0.09961,0.2989 6,6.0000033 0 0 0 0.09961,-0.2989 z m -11.412109,0.2989 a 6,6.0000033 0 0 0 0.103516,0.2793 6.0000033,6 0 0 1 -0.103516,-0.2793 z m 11.208984,0.2793 a 6.0000033,6 0 0 1 -0.111328,0.2539 6,6.0000033 0 0 0 0.111328,-0.2539 z m -10.99414,0.2539 a 6,6.0000033 0 0 0 0.136718,0.2832 6.0000033,6 0 0 1 -0.136718,-0.2832 z m 10.746094,0.2832 a 6.0000033,6 0 0 1 -0.150391,0.2617 6,6.0000033 0 0 0 0.150391,-0.2617 z m -10.458985,0.2617 a 6,6.0000033 0 0 0 0.160156,0.2598 6.0000033,6 0 0 1 -0.160156,-0.2598 z m 10.148438,0.2598 a 6.0000033,6 0 0 1 -0.171875,0.2421 6,6.0000033 0 0 0 0.171875,-0.2421 z m -9.816407,0.2421 a 6,6.0000033 0 0 0 0.175782,0.2305 6.0000033,6 0 0 1 -0.175782,-0.2305 z m 9.46875,0.2305 a 6.0000033,6 0 0 1 -0.208984,0.2383 6,6.0000033 0 0 0 0.208984,-0.2383 z m -9.083984,0.2383 a 6,6.0000033 0 0 0 0.197266,0.2109 6.0000033,6 0 0 1 -0.197266,-0.2109 z m 8.677734,0.2109 a 6.0000033,6 0 0 1 -0.210937,0.1973 6,6.0000033 0 0 0 0.210937,-0.1973 z m -8.269531,0.1973 a 6,6.0000033 0 0 0 0.238281,0.209 6.0000033,6 0 0 1 -0.238281,-0.209 z m 7.820313,0.209 a 6.0000033,6 0 0 1 -0.230469,0.1758 6,6.0000033 0 0 0 0.230469,-0.1758 z m -7.351563,0.1758 a 6,6.0000033 0 0 0 0.242188,0.1718 6.0000033,6 0 0 1 -0.242188,-0.1718 z m 6.878906,0.1718 a 6.0000033,6 0 0 1 -0.259765,0.1602 6,6.0000033 0 0 0 0.259765,-0.1602 z m -6.376953,0.1602 a 6,6.0000033 0 0 0 0.261719,0.1504 6.0000033,6 0 0 1 -0.261719,-0.1504 z m 5.855469,0.1504 a 6.0000033,6 0 0 1 -0.283203,0.1367 6,6.0000033 0 0 0 0.283203,-0.1367 z m -5.310547,0.1367 a 6,6.0000033 0 0 0 0.253906,0.1113 6.0000033,6 0 0 1 -0.253906,-0.1113 z m 4.773438,0.1113 a 6.0000033,6 0 0 1 -0.279297,0.1036 6,6.0000033 0 0 0 0.279297,-0.1036 z m -4.240235,0.1036 a 6,6.0000033 0 0 0 0.298828,0.1 6.0000033,6 0 0 1 -0.298828,-0.1 z m 3.66211,0.1 a 6.0000033,6 0 0 1 -0.265625,0.068 6,6.0000033 0 0 0 0.265625,-0.068 z m -3.097657,0.068 a 6,6.0000033 0 0 0 0.324219,0.072 6.0000033,6 0 0 1 -0.324219,-0.072 z m 2.507813,0.072 a 6.0000033,6 0 0 1 -0.242188,0.037 6,6.0000033 0 0 0 0.242188,-0.037 z m -1.941406,0.037 a 6,6.0000033 0 0 0 0.355468,0.043 6.0000033,6 0 0 1 -0.355468,-0.043 z m 1.34375,0.043 A 6.0000033,6 0 0 1 9,1046.3622 a 6,6.0000033 0 0 0 0.494141,-0.023 z"
       id="ellipse15948"
       inkscape:connector-curvature="0" />
  </g>
</svg>
