<?xml version="1.0" encoding="UTF-8" standalone="no"?>
<!-- Created with Inkscape (http://www.inkscape.org/) -->

<svg
   xmlns:dc="http://purl.org/dc/elements/1.1/"
   xmlns:cc="http://creativecommons.org/ns#"
   xmlns:rdf="http://www.w3.org/1999/02/22-rdf-syntax-ns#"
   xmlns:svg="http://www.w3.org/2000/svg"
   xmlns="http://www.w3.org/2000/svg"
   xmlns:xlink="http://www.w3.org/1999/xlink"
   xmlns:sodipodi="http://sodipodi.sourceforge.net/DTD/sodipodi-0.dtd"
   xmlns:inkscape="http://www.inkscape.org/namespaces/inkscape"
   width="24"
   height="24"
   id="svg3912"
   version="1.1"
   inkscape:version="0.91 r13725"
   inkscape:export-filename="C:\Dokumente und Einstellungen\RM\Desktop\octave-icons-master\24x24\edit-select.png"
   inkscape:export-xdpi="90"
   inkscape:export-ydpi="90"
   sodipodi:docname="edit-select.svg">
  <defs
     id="defs3914">
    <linearGradient
       id="linearGradient4383">
      <stop
         id="stop4385"
         style="stop-color:#ffffff;stop-opacity:1"
         offset="0" />
      <stop
         id="stop4387"
         style="stop-color:#ffffff;stop-opacity:0.23529412"
         offset="0.13087235" />
      <stop
         id="stop4389"
         style="stop-color:#ffffff;stop-opacity:0.15686275"
         offset="0.8887651" />
      <stop
         id="stop4391"
         style="stop-color:#ffffff;stop-opacity:0.6"
         offset="1" />
    </linearGradient>
    <linearGradient
       id="linearGradient4251"
       inkscape:collect="always">
      <stop
         id="stop4253"
         offset="0"
         style="stop-color:#1a1d2f;stop-opacity:1" />
      <stop
         id="stop4255"
         offset="1"
         style="stop-color:#444655;stop-opacity:1" />
    </linearGradient>
    <linearGradient
       id="linearGradient5060">
      <stop
         id="stop5062"
         style="stop-color:#000000;stop-opacity:1"
         offset="0" />
      <stop
         id="stop5064"
         style="stop-color:#000000;stop-opacity:0"
         offset="1" />
    </linearGradient>
    <linearGradient
       id="linearGradient5048">
      <stop
         id="stop5050"
         style="stop-color:#000000;stop-opacity:0"
         offset="0" />
      <stop
         id="stop5056"
         style="stop-color:#000000;stop-opacity:1"
         offset="0.5" />
      <stop
         id="stop5052"
         style="stop-color:#000000;stop-opacity:0"
         offset="1" />
    </linearGradient>
    <radialGradient
       inkscape:collect="always"
       xlink:href="#linearGradient5060"
       id="radialGradient11096"
       gradientUnits="userSpaceOnUse"
       gradientTransform="matrix(0.57377049,0,0,0.24590164,3.9199242,1039.0108)"
       cx="23.668133"
       cy="44.129044"
       fx="23.668133"
       fy="44.129044"
       r="6.0999999" />
    <linearGradient
       id="linearGradient3600-4">
      <stop
         id="stop3602-7"
         style="stop-color:#f4f4f4;stop-opacity:1"
         offset="0" />
      <stop
         id="stop3604-6"
         style="stop-color:#dbdbdb;stop-opacity:1"
         offset="1" />
    </linearGradient>
    <linearGradient
       inkscape:collect="always"
       xlink:href="#linearGradient3600-4"
       id="linearGradient12019"
       x1="11.124883"
       y1="1042.0355"
       x2="13.874804"
       y2="1046.1989"
       gradientUnits="userSpaceOnUse"
       gradientTransform="matrix(0.72729347,0,0,0.72056097,7.9089457,292.51211)" />
    <linearGradient
       inkscape:collect="always"
       xlink:href="#linearGradient4251"
       id="linearGradient12027"
       x1="17.357676"
       y1="1042.709"
       x2="6.7068806"
       y2="1035.8147"
       gradientUnits="userSpaceOnUse"
       gradientTransform="matrix(0.7696575,0,0,0.75885283,7.3822309,252.54165)" />
    <linearGradient
       inkscape:collect="always"
       xlink:href="#linearGradient5048"
       id="linearGradient14531"
       gradientUnits="userSpaceOnUse"
       gradientTransform="matrix(0.01863901,0,0,0.00823529,-20.236686,1061.3427)"
       x1="302.85715"
       y1="366.64789"
       x2="302.85715"
       y2="609.50507" />
    <radialGradient
       inkscape:collect="always"
       xlink:href="#linearGradient5060"
       id="radialGradient14533"
       gradientUnits="userSpaceOnUse"
       gradientTransform="matrix(-0.01606478,0,0,0.00823529,-8.318392,1061.3428)"
       cx="605.71429"
       cy="486.64789"
       fx="605.71429"
       fy="486.64789"
       r="117.14286" />
    <radialGradient
       inkscape:collect="always"
       xlink:href="#linearGradient5060"
       id="radialGradient14535"
       gradientUnits="userSpaceOnUse"
       gradientTransform="matrix(0.01606479,0,0,0.00823529,-18.681609,1061.3428)"
       cx="605.71429"
       cy="486.64789"
       fx="605.71429"
       fy="486.64789"
       r="117.14286" />
    <linearGradient
       inkscape:collect="always"
       xlink:href="#linearGradient5048"
       id="linearGradient15296"
       gradientUnits="userSpaceOnUse"
       gradientTransform="matrix(0.01242604,0,0,0.00823529,1033.8711,-16.0195)"
       x1="302.85715"
       y1="366.64789"
       x2="302.85715"
       y2="609.50507" />
    <radialGradient
       inkscape:collect="always"
       xlink:href="#linearGradient5060"
       id="radialGradient15298"
       gradientUnits="userSpaceOnUse"
       gradientTransform="matrix(0,-0.01606478,-0.00823529,0,16.0194,1045.0438)"
       cx="605.71429"
       cy="486.64789"
       fx="605.71429"
       fy="486.64789"
       r="117.14286" />
    <radialGradient
       inkscape:collect="always"
       xlink:href="#linearGradient5060"
       id="radialGradient15300"
       gradientUnits="userSpaceOnUse"
       gradientTransform="matrix(0,0.01606479,-0.00823529,0,16.0194,1031.6806)"
       cx="605.71429"
       cy="486.64789"
       fx="605.71429"
       fy="486.64789"
       r="117.14286" />
    <linearGradient
       id="linearGradient6425"
       inkscape:collect="always">
      <stop
         id="stop6427"
         offset="0"
         style="stop-color:#689fd9;stop-opacity:1" />
      <stop
         id="stop6429"
         offset="1"
         style="stop-color:#19498e;stop-opacity:1" />
    </linearGradient>
    <radialGradient
       inkscape:collect="always"
       xlink:href="#linearGradient3600-4-4"
       id="radialGradient8519"
       cx="6.8718562"
       cy="1037.962"
       fx="6.8718562"
       fy="1037.962"
       r="10.000001"
       gradientTransform="matrix(0.69657181,0.69657129,-0.69657181,0.69657129,722.75469,305.66626)"
       gradientUnits="userSpaceOnUse" />
    <linearGradient
       id="linearGradient3600-4-4">
      <stop
         id="stop3602-7-2"
         style="stop-color:#ffffff;stop-opacity:1"
         offset="0" />
      <stop
         offset="0.5930329"
         style="stop-color:#fcfdfe;stop-opacity:1"
         id="stop8523" />
      <stop
         id="stop3604-6-9"
         style="stop-color:#e7ecf7;stop-opacity:1"
         offset="1" />
    </linearGradient>
    <linearGradient
       inkscape:collect="always"
       xlink:href="#linearGradient3104-5"
       id="linearGradient6476"
       gradientUnits="userSpaceOnUse"
       gradientTransform="matrix(0.73333368,0,0,0.73333262,-24.266676,267.56421)"
       x1="44"
       y1="1056.3622"
       x2="44"
       y2="1040.3622" />
    <linearGradient
       id="linearGradient3104-5">
      <stop
         id="stop3106-6"
         style="stop-color:#a0a0a0;stop-opacity:1"
         offset="0" />
      <stop
         id="stop3108-9"
         style="stop-color:#bebebe;stop-opacity:1"
         offset="1" />
    </linearGradient>
    <linearGradient
       inkscape:collect="always"
       xlink:href="#linearGradient4383"
       id="linearGradient4381"
       x1="-4.9691997"
       y1="1033.855"
       x2="-5"
       y2="1041.8077"
       gradientUnits="userSpaceOnUse"
       gradientTransform="matrix(1.125,0,0,1.125,14.1875,-131.23275)" />
    <linearGradient
       gradientTransform="translate(0,1028.3622)"
       inkscape:collect="always"
       xlink:href="#linearGradient6425"
       id="linearGradient6787-3"
       x1="2.4690847"
       y1="2.5273438"
       x2="11.967299"
       y2="11.674498"
       gradientUnits="userSpaceOnUse" />
  </defs>
  <sodipodi:namedview
     id="base"
     pagecolor="#ffffff"
     bordercolor="#666666"
     borderopacity="1.0"
     inkscape:pageopacity="0.0"
     inkscape:pageshadow="2"
     inkscape:zoom="1"
     inkscape:cx="3.6789221"
     inkscape:cy="26.145094"
     inkscape:document-units="px"
     inkscape:current-layer="layer1"
     showgrid="true"
     inkscape:snap-nodes="false"
     inkscape:snap-bbox="true"
     showguides="false"
     inkscape:guide-bbox="true"
     inkscape:window-width="1440"
     inkscape:window-height="844"
     inkscape:window-x="-4"
     inkscape:window-y="-4"
     inkscape:window-maximized="1"
     inkscape:snap-intersection-paths="true"
     inkscape:object-nodes="true"
     inkscape:snap-smooth-nodes="true"
     inkscape:object-paths="true"
     inkscape:bbox-nodes="true"
     inkscape:snap-global="true"
     inkscape:bbox-paths="false"
     inkscape:snap-grids="true">
    <inkscape:grid
       type="xygrid"
       id="grid3920"
       empspacing="12"
       visible="true"
       enabled="true"
       snapvisiblegridlinesonly="true"
       originx="0"
       originy="0" />
    <sodipodi:guide
       position="20,9.5"
       orientation="0,1"
       id="guide4197"
       inkscape:label=""
       inkscape:color="rgb(0,0,255)" />
    <sodipodi:guide
       position="7,6"
       orientation="-0.57357644,0.81915204"
       id="guide4199"
       inkscape:label=""
       inkscape:color="rgb(0,0,255)" />
  </sodipodi:namedview>
  <metadata
     id="metadata3917">
    <rdf:RDF>
      <cc:Work
         rdf:about="">
        <dc:format>image/svg+xml</dc:format>
        <dc:type
           rdf:resource="http://purl.org/dc/dcmitype/StillImage" />
        <dc:title></dc:title>
      </cc:Work>
    </rdf:RDF>
  </metadata>
  <g
     inkscape:label="Ebene 1"
     inkscape:groupmode="layer"
     id="layer1"
     transform="translate(0,-1028.3622)"
     style="display:inline">
    <path
       d="m 21,1049.8622 a 3.5,1.5 0 0 1 -7,0 3.5,1.5 0 1 1 7,0 z"
       id="path11082"
       style="color:#000000;display:inline;overflow:visible;visibility:visible;opacity:0.4;fill:url(#radialGradient11096);fill-opacity:1;fill-rule:nonzero;stroke:none;stroke-width:1;marker:none;enable-background:accumulate"
       inkscape:connector-curvature="0" />
    <g
       id="g14540"
       transform="translate(21,-22.999983)">
      <rect
         width="9"
         height="2"
         x="-18"
         y="1064.3622"
         id="rect14525"
         style="display:inline;overflow:visible;visibility:visible;opacity:0.15;fill:url(#linearGradient14531);fill-opacity:1;fill-rule:nonzero;stroke:none;stroke-width:1;marker:none" />
      <path
         d="m -18,1064.3623 c 0,0 0,1.9999 0,1.9999 -0.827297,0 -2,-0.4481 -2,-1.0001 0,-0.552 0.9232,-0.9998 2,-0.9998 z"
         inkscape:connector-curvature="0"
         id="path14527"
         style="display:inline;overflow:visible;visibility:visible;opacity:0.15;fill:url(#radialGradient14533);fill-opacity:1;fill-rule:nonzero;stroke:none;stroke-width:1;marker:none" />
      <path
         d="m -9,1064.3623 c 0,0 0,1.9999 0,1.9999 0.827295,0 2,-0.4481 2,-1.0001 0,-0.552 -0.923201,-0.9998 -2,-0.9998 z"
         inkscape:connector-curvature="0"
         id="path14529"
         style="display:inline;overflow:visible;visibility:visible;opacity:0.15;fill:url(#radialGradient14535);fill-opacity:1;fill-rule:nonzero;stroke:none;stroke-width:1;marker:none" />
    </g>
    <rect
       style="opacity:1;fill:url(#radialGradient8519);fill-opacity:1;fill-rule:evenodd;stroke:url(#linearGradient6476);stroke-width:1;stroke-linecap:butt;stroke-linejoin:round;stroke-miterlimit:4;stroke-dasharray:none;stroke-dashoffset:0;stroke-opacity:1"
       id="rect6460"
       width="11"
       height="11"
       x="2.5"
       y="1030.8622"
       ry="0.86843061"
       inkscape:export-xdpi="90"
       inkscape:export-ydpi="90" />
    <path
       style="fill:none;fill-rule:evenodd;stroke:url(#linearGradient4381);stroke-width:1px;stroke-linecap:butt;stroke-linejoin:round;stroke-opacity:1"
       d="m 3.5,1040.8622 9,0 0,-9 -9,0 z"
       id="path4373"
       inkscape:connector-curvature="0" />
    <path
       style="display:inline;opacity:0.95;fill:url(#linearGradient6787-3);fill-opacity:1;stroke:none;stroke-width:1;stroke-linecap:round;stroke-linejoin:round;stroke-miterlimit:4;stroke-dasharray:none;stroke-dashoffset:1.20000005;stroke-opacity:1"
       d="m 4,1030.3622 0,1 1,0 0,-1 -1,0 z m 2,0 0,1 1,0 0,-1 -1,0 z m 2,0 0,1 1,0 0,-1 -1,0 z m 2,0 0,1 1,0 0,-1 -1,0 z m 2,0 0,1 0.630859,0 0.369141,0 0,-0.9414 c -0.118635,-0.034 -0.240356,-0.059 -0.369141,-0.059 l -0.630859,0 z m 1,1 0,0.3691 0,0.6309 1,0 0,-0.6309 c 0,-0.1288 -0.02448,-0.2505 -0.05859,-0.3691 l -0.941406,0 z m -10,-0.9414 c -0.453124,0.1303 -0.811125,0.4883 -0.941406,0.9414 l 0.941406,0 0,-0.9414 z m -1,1.9414 0,1 1,0 0,-1 -1,0 z m 11,1 0,1 1,0 0,-1 -1,0 z m -11,1 0,1 1,0 0,-1 -1,0 z m 11,1 0,1 1,0 0,-1 -1,0 z m -11,1 0,1 1,0 0,-1 -1,0 z m 11,1 0,1 1,0 0,-1 -1,0 z m -11,1 0,1 1,0 0,-1 -1,0 z m 11,1 0,1 1,0 0,-1 -1,0 z m -11,1 0,0.6328 c 0,0.1279 0.022967,0.2494 0.056641,0.3672 l 0.943359,0 0,-0.3672 0,-0.6328 -1,0 z m 1,1 0,0.9434 c 0.118529,0.034 0.240485,0.057 0.369141,0.057 l 0.630859,0 0,-1 -0.630859,0 -0.369141,0 z m 2,0 0,1 1,0 0,-1 -1,0 z m 2,0 0,1 1,0 0,-1 -1,0 z m 2,0 0,1 1,0 0,-1 -1,0 z m 2,0 0,1 1,0 0,-1 -1,0 z m 2,0 0,0.9434 c 0.45408,-0.1301 0.813622,-0.4894 0.943359,-0.9434 l -0.943359,0 z"
       id="rect6636-5"
       inkscape:connector-curvature="0" />
    <g
       id="g15305">
      <rect
         transform="matrix(0,1,-1,0,0,0)"
         style="display:inline;overflow:visible;visibility:visible;opacity:0.15;fill:url(#linearGradient15296);fill-opacity:1;fill-rule:nonzero;stroke:none;stroke-width:1;marker:none"
         id="rect15290"
         y="-13.000017"
         x="1035.3622"
         height="2"
         width="6.0000172" />
      <path
         style="display:inline;overflow:visible;visibility:visible;opacity:0.15;fill:url(#radialGradient15298);fill-opacity:1;fill-rule:nonzero;stroke:none;stroke-width:1;marker:none"
         id="path15292"
         inkscape:connector-curvature="0"
         d="m 12.9999,1035.3622 c 0,0 -1.9999,0 -1.9999,0 0,-0.8273 0.4481,-2 1.0001,-2 0.552,0 0.9998,0.9232 0.9998,2 z" />
      <path
         style="display:inline;overflow:visible;visibility:visible;opacity:0.15;fill:url(#radialGradient15300);fill-opacity:1;fill-rule:nonzero;stroke:none;stroke-width:1;marker:none"
         id="path15294"
         inkscape:connector-curvature="0"
         d="m 12.9999,1041.3622 c 0,0 -1.9999,0 -1.9999,0 0,0.8273 0.4481,2 1.0001,2 0.552,0 0.9998,-0.9232 0.9998,-2 z" />
    </g>
    <path
       sodipodi:nodetypes="ccccccccccccc"
       inkscape:connector-curvature="0"
       id="path2998-2-3-5-7-1-8-8-7-0"
       d="m 12.000175,1035.2035 0,12.1417 c 3.9e-5,0.3973 0.366681,0.7588 0.769658,0.7588 l 2.765956,0 2.068456,2.0395 c 0.226786,0.224 0.602933,0.2841 0.889916,0.1423 l 0.769658,-0.3795 c 0.252401,-0.121 0.426074,-0.3873 0.432932,-0.664 l 0,-2.727 2.092506,-2.0632 c 0.281295,-0.2806 0.281295,-0.7867 0,-1.0672 l -8.466233,-8.7268 c -0.631111,-0.6222 -1.335779,-0.178 -1.322849,0.5454 z"
       style="color:#000000;font-style:normal;font-variant:normal;font-weight:normal;font-stretch:normal;font-size:medium;line-height:normal;font-family:Sans;-inkscape-font-specification:Sans;text-indent:0;text-align:start;text-decoration:none;text-decoration-line:none;letter-spacing:normal;word-spacing:normal;text-transform:none;direction:ltr;block-progression:tb;writing-mode:lr-tb;baseline-shift:baseline;text-anchor:start;display:inline;overflow:visible;visibility:visible;fill:url(#linearGradient12027);fill-opacity:1;fill-rule:nonzero;stroke:none;stroke-width:2;marker:none;enable-background:accumulate" />
    <path
       sodipodi:nodetypes="cccccccc"
       inkscape:connector-curvature="0"
       id="path2998-2-3-5-7"
       d="m 13,1047.2004 0,-11.5288 8.000228,8.2863 -2.181881,2.1617 0,2.8822 -0.727293,0.3604 -2.18188,-2.1618 z"
       style="display:inline;fill:url(#linearGradient12019);fill-opacity:1;stroke:none" />
    <path
       style="color:#000000;font-style:normal;font-variant:normal;font-weight:normal;font-stretch:normal;font-size:medium;line-height:normal;font-family:sans-serif;text-indent:0;text-align:start;text-decoration:none;text-decoration-line:none;text-decoration-style:solid;text-decoration-color:#000000;letter-spacing:normal;word-spacing:normal;text-transform:none;direction:ltr;block-progression:tb;writing-mode:lr-tb;baseline-shift:baseline;text-anchor:start;white-space:normal;clip-rule:nonzero;display:inline;overflow:visible;visibility:visible;opacity:0.6;isolation:auto;mix-blend-mode:normal;color-interpolation:sRGB;color-interpolation-filters:linearRGB;solid-color:#000000;solid-opacity:1;fill:#ffffff;fill-opacity:1;fill-rule:nonzero;stroke:none;stroke-width:2;stroke-linecap:butt;stroke-linejoin:miter;stroke-miterlimit:4;stroke-dasharray:none;stroke-dashoffset:0;stroke-opacity:1;color-rendering:auto;image-rendering:auto;shape-rendering:auto;text-rendering:auto;enable-background:accumulate"
       d="m 13,1035.6708 0,11.5293 2.908203,0 2.183594,2.1621 0.726562,-0.3613 0,-2.8809 2.181641,-2.1621 -8,-8.2871 z m 1,2.4746 5.595703,5.7969 -1.777344,1.7617 0,1.9805 -1.498047,-1.4825 -2.320312,0 0,-8.0566 z"
       id="path12726"
       inkscape:connector-curvature="0" />
  </g>
</svg>
