<?xml version="1.0" encoding="UTF-8" standalone="no"?>
<!-- Created with Inkscape (http://www.inkscape.org/) -->

<svg
   xmlns:dc="http://purl.org/dc/elements/1.1/"
   xmlns:cc="http://creativecommons.org/ns#"
   xmlns:rdf="http://www.w3.org/1999/02/22-rdf-syntax-ns#"
   xmlns:svg="http://www.w3.org/2000/svg"
   xmlns="http://www.w3.org/2000/svg"
   xmlns:xlink="http://www.w3.org/1999/xlink"
   xmlns:sodipodi="http://sodipodi.sourceforge.net/DTD/sodipodi-0.dtd"
   xmlns:inkscape="http://www.inkscape.org/namespaces/inkscape"
   width="24"
   height="24"
   id="svg3912"
   version="1.1"
   inkscape:version="0.91 r13725"
   inkscape:export-filename="C:\Users\Lutz\Desktop\qthandles-icons\edit-select.png"
   inkscape:export-xdpi="90"
   inkscape:export-ydpi="90"
   sodipodi:docname="edit-select.svg">
  <defs
     id="defs3914">
    <linearGradient
       id="linearGradient4251"
       inkscape:collect="always">
      <stop
         id="stop4253"
         offset="0"
         style="stop-color:#888a85;stop-opacity:1" />
      <stop
         id="stop4255"
         offset="1"
         style="stop-color:#000000;stop-opacity:1" />
    </linearGradient>
    <linearGradient
       id="linearGradient4243"
       inkscape:collect="always">
      <stop
         id="stop4245"
         offset="0"
         style="stop-color:#fafafa;stop-opacity:1" />
      <stop
         style="stop-color:#fafafa;stop-opacity:1"
         offset="0.60000002"
         id="stop4249" />
      <stop
         id="stop4247"
         offset="1"
         style="stop-color:#ffffff;stop-opacity:0;" />
    </linearGradient>
    <radialGradient
       cx="605.71429"
       cy="486.64789"
       r="117.14286"
       fx="605.71429"
       fy="486.64789"
       id="radialGradient3048"
       xlink:href="#linearGradient5060"
       gradientUnits="userSpaceOnUse"
       gradientTransform="matrix(-0.01606478,0,0,0.00823529,11.681608,1035.3428)" />
    <linearGradient
       id="linearGradient5060">
      <stop
         id="stop5062"
         style="stop-color:#000000;stop-opacity:1"
         offset="0" />
      <stop
         id="stop5064"
         style="stop-color:#000000;stop-opacity:0"
         offset="1" />
    </linearGradient>
    <linearGradient
       x1="302.85715"
       y1="366.64789"
       x2="302.85715"
       y2="609.50507"
       id="linearGradient3180"
       xlink:href="#linearGradient5048"
       gradientUnits="userSpaceOnUse"
       gradientTransform="matrix(0.02485201,0,0,0.00823529,-0.98224959,1035.3427)" />
    <linearGradient
       id="linearGradient5048">
      <stop
         id="stop5050"
         style="stop-color:#000000;stop-opacity:0"
         offset="0" />
      <stop
         id="stop5056"
         style="stop-color:#000000;stop-opacity:1"
         offset="0.5" />
      <stop
         id="stop5052"
         style="stop-color:#000000;stop-opacity:0"
         offset="1" />
    </linearGradient>
    <radialGradient
       cx="605.71429"
       cy="486.64789"
       r="117.14286"
       fx="605.71429"
       fy="486.64789"
       id="radialGradient3045"
       xlink:href="#linearGradient5060"
       gradientUnits="userSpaceOnUse"
       gradientTransform="matrix(0.01566318,0,0,0.00823529,4.560422,1035.3428)" />
    <linearGradient
       gradientTransform="translate(0,1.9470518e-4)"
       inkscape:collect="always"
       xlink:href="#linearGradient7518"
       id="linearGradient7524"
       x1="8"
       y1="1036.3622"
       x2="12.70458"
       y2="1044.8169"
       gradientUnits="userSpaceOnUse" />
    <linearGradient
       inkscape:collect="always"
       id="linearGradient7518">
      <stop
         style="stop-color:#ffffff;stop-opacity:1;"
         offset="0"
         id="stop7520" />
      <stop
         id="stop7528"
         offset="0.28874546"
         style="stop-color:#ffffff;stop-opacity:0.23529412" />
      <stop
         id="stop7526"
         offset="0.87530535"
         style="stop-color:#ffffff;stop-opacity:0.15686275" />
      <stop
         style="stop-color:#ffffff;stop-opacity:0.78431374"
         offset="1"
         id="stop7522" />
    </linearGradient>
    <radialGradient
       inkscape:collect="always"
       xlink:href="#linearGradient4243"
       id="radialGradient4241-0"
       cx="8.5806189"
       cy="1037.0134"
       fx="8.5806189"
       fy="1037.0134"
       r="4.6464844"
       gradientTransform="matrix(-3.5890977e-6,2.3214366,-1.9395769,-2.9987169e-6,2019.9481,1017.786)"
       gradientUnits="userSpaceOnUse" />
    <linearGradient
       inkscape:collect="always"
       xlink:href="#linearGradient4251"
       id="linearGradient4195-1"
       x1="7"
       y1="1029.3619"
       x2="7"
       y2="1045.3619"
       gradientUnits="userSpaceOnUse"
       gradientTransform="translate(2,5.0004439)" />
    <linearGradient
       inkscape:collect="always"
       id="linearGradient4529">
      <stop
         style="stop-color:#5899cd;stop-opacity:1"
         offset="0"
         id="stop4531" />
      <stop
         style="stop-color:#08408d;stop-opacity:1"
         offset="1"
         id="stop4533" />
    </linearGradient>
    <linearGradient
       inkscape:collect="always"
       xlink:href="#linearGradient4529"
       id="linearGradient4280"
       x1="6.9939418"
       y1="1030.3848"
       x2="6.9939418"
       y2="1038.2954"
       gradientUnits="userSpaceOnUse"
       gradientTransform="matrix(1.1,0,0,1,-0.25,0)" />
    <radialGradient
       inkscape:collect="always"
       xlink:href="#linearGradient5060"
       id="radialGradient11096"
       gradientUnits="userSpaceOnUse"
       gradientTransform="matrix(0.57377049,0,0,0.24590164,-6.080076,1039.0111)"
       cx="23.668133"
       cy="44.129044"
       fx="23.668133"
       fy="44.129044"
       r="6.0999999" />
  </defs>
  <sodipodi:namedview
     id="base"
     pagecolor="#ffffff"
     bordercolor="#666666"
     borderopacity="1.0"
     inkscape:pageopacity="0.0"
     inkscape:pageshadow="2"
     inkscape:zoom="16"
     inkscape:cx="10.923521"
     inkscape:cy="17.852084"
     inkscape:document-units="px"
     inkscape:current-layer="layer1"
     showgrid="false"
     inkscape:snap-nodes="false"
     inkscape:snap-bbox="true"
     showguides="false"
     inkscape:guide-bbox="true"
     inkscape:window-width="1600"
     inkscape:window-height="1138"
     inkscape:window-x="-8"
     inkscape:window-y="-8"
     inkscape:window-maximized="1"
     inkscape:snap-intersection-paths="true"
     inkscape:object-nodes="true"
     inkscape:snap-smooth-nodes="true"
     inkscape:object-paths="true"
     inkscape:bbox-nodes="true"
     inkscape:snap-global="true"
     inkscape:bbox-paths="false"
     inkscape:snap-grids="true">
    <inkscape:grid
       type="xygrid"
       id="grid3920"
       empspacing="12"
       visible="true"
       enabled="true"
       snapvisiblegridlinesonly="true"
       originx="0"
       originy="0" />
    <sodipodi:guide
       position="20,9.5"
       orientation="0,1"
       id="guide4197"
       inkscape:label=""
       inkscape:color="rgb(0,0,255)" />
    <sodipodi:guide
       position="7,6"
       orientation="-0.57357644,0.81915204"
       id="guide4199"
       inkscape:label=""
       inkscape:color="rgb(0,0,255)" />
  </sodipodi:namedview>
  <metadata
     id="metadata3917">
    <rdf:RDF>
      <cc:Work
         rdf:about="">
        <dc:format>image/svg+xml</dc:format>
        <dc:type
           rdf:resource="http://purl.org/dc/dcmitype/StillImage" />
        <dc:title></dc:title>
      </cc:Work>
    </rdf:RDF>
  </metadata>
  <g
     inkscape:label="Ebene 1"
     inkscape:groupmode="layer"
     id="layer1"
     transform="translate(0,-1028.3622)"
     style="display:inline">
    <path
       style="color:#000000;font-style:normal;font-variant:normal;font-weight:normal;font-stretch:normal;font-size:medium;line-height:normal;font-family:sans-serif;text-indent:0;text-align:start;text-decoration:none;text-decoration-line:none;text-decoration-style:solid;text-decoration-color:#000000;letter-spacing:normal;word-spacing:normal;text-transform:none;direction:ltr;block-progression:tb;writing-mode:lr-tb;baseline-shift:baseline;text-anchor:start;white-space:normal;clip-rule:nonzero;display:inline;overflow:visible;visibility:visible;opacity:1;isolation:auto;mix-blend-mode:normal;color-interpolation:sRGB;color-interpolation-filters:linearRGB;solid-color:#000000;solid-opacity:1;fill:url(#linearGradient4280);fill-opacity:1;fill-rule:evenodd;stroke:none;stroke-width:1;stroke-linecap:butt;stroke-linejoin:round;stroke-miterlimit:4;stroke-dasharray:none;stroke-dashoffset:0;stroke-opacity:1;color-rendering:auto;image-rendering:auto;shape-rendering:auto;text-rendering:auto;enable-background:accumulate"
       d="m 2,1029.3622 a 1,1 0 0 0 -1,1 1,1 0 0 0 1,1 l 0,2 a 1,1 0 0 0 -1,1 1,1 0 0 0 1,1 l 0,2 a 1,1 0 0 0 -1,1 1,1 0 0 0 1,1 1,1 0 0 0 1,-1 l 4,0 a 1,1 0 0 0 1,1 1,1 0 0 0 1,-1 l 4,0 a 1,1 0 0 0 1,1 1,1 0 0 0 1,-1 1,1 0 0 0 -1,-1 l 0,-2 a 1,1 0 0 0 1,-1 1,1 0 0 0 -1,-1 l 0,-2 a 1,1 0 0 0 1,-1 1,1 0 0 0 -1,-1 1,1 0 0 0 -1,1 l -4,0 a 1,1 0 0 0 -1,-1 1,1 0 0 0 -1,1 l -4,0 a 1,1 0 0 0 -1,-1 z m 1,2 5,0 5,0 0,3 0,3 -5,0 -5,0 0,-3 0,-3 z"
       id="rect4264"
       inkscape:connector-curvature="0" />
    <g
       id="g4371">
      <rect
         width="12"
         height="2"
         x="2"
         y="1038.3622"
         id="rect2879"
         style="display:inline;overflow:visible;visibility:visible;opacity:0.15;fill:url(#linearGradient3180);fill-opacity:1;fill-rule:nonzero;stroke:none;stroke-width:1;marker:none" />
      <path
         d="m 2,1038.3623 c 0,0 0,1.9999 0,1.9999 -0.8272966,0 -2,-0.4481 -2,-1.0001 0,-0.552 0.92320008,-0.9998 2,-0.9998 z"
         inkscape:connector-curvature="0"
         id="path2881"
         style="display:inline;overflow:visible;visibility:visible;opacity:0.15;fill:url(#radialGradient3048);fill-opacity:1;fill-rule:nonzero;stroke:none;stroke-width:1;marker:none" />
      <path
         d="m 14,1038.3623 c 0,0 0,1.9999 0,1.9999 0.806614,0 1.950002,-0.4481 1.950002,-1.0001 0,-0.552 -0.900122,-0.9998 -1.950002,-0.9998 z"
         inkscape:connector-curvature="0"
         id="path2883"
         style="display:inline;overflow:visible;visibility:visible;opacity:0.15;fill:url(#radialGradient3045);fill-opacity:1;fill-rule:nonzero;stroke:none;stroke-width:1;marker:none" />
    </g>
    <path
       d="m 11,1049.8625 a 3.5,1.5 0 0 1 -6.9999999,0 3.5,1.5 0 1 1 6.9999999,0 z"
       id="path11082"
       style="color:#000000;display:inline;overflow:visible;visibility:visible;opacity:0.4;fill:url(#radialGradient11096);fill-opacity:1;fill-rule:nonzero;stroke:none;stroke-width:1;marker:none;enable-background:accumulate"
       inkscape:connector-curvature="0" />
    <path
       style="display:inline;opacity:1;fill:#888a85;fill-opacity:1;fill-rule:evenodd;stroke:none;stroke-width:1px;stroke-linecap:butt;stroke-linejoin:round;stroke-opacity:1"
       d="m 8,1035.0692 0,12.8125 c 3.033282,-2.2179 4.712891,-3.4297 4.712891,-3.4297 A 0.50005,0.50005 0 0 1 13,1044.362 c 0,0 2.330967,-2e-4 4.292969,0 L 8,1035.0692 Z"
       id="path4209-1"
       inkscape:connector-curvature="0" />
    <path
       inkscape:connector-curvature="0"
       id="path4231-5"
       d="m 8,1036.0692 0,12.8125 c 3.033282,-2.2179 4.712891,-3.4297 4.712891,-3.4297 A 0.50005,0.50005 0 0 1 13,1045.362 c 0,0 2.330967,-2e-4 4.292969,0 L 8,1036.0692 Z"
       style="display:inline;opacity:0.95;fill:url(#radialGradient4241-0);fill-opacity:1;fill-rule:evenodd;stroke:none;stroke-width:1px;stroke-linecap:butt;stroke-linejoin:round;stroke-opacity:1" />
    <path
       style="display:inline;opacity:1;fill:url(#linearGradient7524);fill-opacity:1;fill-rule:evenodd;stroke:none;stroke-width:1px;stroke-linecap:butt;stroke-linejoin:round;stroke-opacity:1"
       d="m 8,1036.0692 0,12.8125 c 3.033282,-2.2179 4.712891,-3.4297 4.712891,-3.4297 A 0.50005,0.50005 0 0 1 13,1045.362 c 0,0 2.330967,-2e-4 4.292969,0 L 8,1036.0692 Z m 1,2.4141 5.878906,5.8789 c -0.665989,10e-5 -1.876026,0 -1.876953,0 l -0.002,0 c -0.30716,-3e-4 -0.607352,0.094 -0.859375,0.2695 a 1.0001,1.0001 0 0 0 -0.01367,0.01 c 0,0 -1.744417,1.2694 -3.126953,2.2754 l 0,-8.4336 z"
       id="path6104-9"
       inkscape:connector-curvature="0" />
    <path
       style="color:#000000;font-style:normal;font-variant:normal;font-weight:normal;font-stretch:normal;font-size:medium;line-height:normal;font-family:sans-serif;text-indent:0;text-align:start;text-decoration:none;text-decoration-line:none;text-decoration-style:solid;text-decoration-color:#000000;letter-spacing:normal;word-spacing:normal;text-transform:none;direction:ltr;block-progression:tb;writing-mode:lr-tb;baseline-shift:baseline;text-anchor:start;white-space:normal;clip-rule:nonzero;display:inline;overflow:visible;visibility:visible;opacity:1;isolation:auto;mix-blend-mode:normal;color-interpolation:sRGB;color-interpolation-filters:linearRGB;solid-color:#000000;solid-opacity:1;fill:#ff0000;fill-opacity:1;fill-rule:evenodd;stroke:none;stroke-width:1px;stroke-linecap:butt;stroke-linejoin:miter;stroke-miterlimit:4;stroke-dasharray:none;stroke-dashoffset:0;stroke-opacity:1;color-rendering:auto;image-rendering:auto;shape-rendering:auto;text-rendering:auto;enable-background:accumulate"
       d="m 4.5,1032.3622 c -0.412479,0 -0.750271,0.2402 -0.960937,0.4902 -0.210666,0.2499 -0.34832,0.5274 -0.480469,0.7774 -0.0212,0.04 -0.03778,0.057 -0.05859,0.096 l 0,1.5078 c 0.185838,-0.093 0.344223,-0.2229 0.460938,-0.3613 0.210666,-0.2499 0.34832,-0.5254 0.480468,-0.7754 0.132149,-0.25 0.257873,-0.4745 0.363281,-0.5996 0.105409,-0.1251 0.136387,-0.1348 0.195313,-0.1348 0.05893,0 0.0899,0.01 0.195312,0.1348 0.105409,0.1251 0.231133,0.3496 0.363282,0.5996 0.132149,0.25 0.269802,0.5255 0.480468,0.7754 0.210666,0.2499 0.548459,0.4902 0.960938,0.4902 0.412479,0 0.750271,-0.2403 0.960937,-0.4902 0.210666,-0.2499 0.348321,-0.5254 0.480469,-0.7754 0.132149,-0.25 0.257873,-0.4745 0.363281,-0.5996 0.105409,-0.1251 0.136387,-0.1348 0.195313,-0.1348 0.05893,0 0.0899,0.01 0.195312,0.1348 0.105409,0.1251 0.231133,0.3496 0.363282,0.5996 0.132149,0.25 0.269802,0.5255 0.480468,0.7754 0.210666,0.2499 0.548459,0.4902 0.960938,0.4902 0.412479,0 0.750272,-0.2403 0.960938,-0.4902 0.210665,-0.2499 0.348319,-0.5254 0.480468,-0.7754 0.132149,-0.25 0.257872,-0.4745 0.363282,-0.5996 0.105408,-0.1251 0.136386,-0.1348 0.195312,-0.1348 0.05893,0 0.213128,0.053 0.396484,0.2012 0.03337,0.027 0.06922,0.066 0.103516,0.098 l 0,-1.1933 c -0.153445,-0.062 -0.317797,-0.1055 -0.5,-0.1055 -0.412479,0 -0.750272,0.2402 -0.960938,0.4902 -0.210665,0.2499 -0.348319,0.5274 -0.480468,0.7774 -0.132149,0.25 -0.257872,0.4725 -0.363282,0.5976 -0.105408,0.125 -0.136386,0.1348 -0.195312,0.1348 -0.05893,0 -0.0899,-0.01 -0.195312,-0.1348 -0.105409,-0.1251 -0.231133,-0.3476 -0.363282,-0.5976 -0.132149,-0.25 -0.269803,-0.5275 -0.480469,-0.7774 -0.210666,-0.25 -0.548458,-0.4902 -0.960937,-0.4902 -0.412479,0 -0.750272,0.2402 -0.960938,0.4902 -0.210666,0.2499 -0.34832,0.5274 -0.480468,0.7774 -0.132149,0.25 -0.257873,0.4725 -0.363282,0.5976 -0.105408,0.125 -0.136386,0.1348 -0.195312,0.1348 -0.05893,0 -0.0899,-0.01 -0.195313,-0.1348 -0.105408,-0.1251 -0.231132,-0.3476 -0.363281,-0.5976 -0.132149,-0.25 -0.269803,-0.5275 -0.480469,-0.7774 -0.210666,-0.25 -0.548458,-0.4902 -0.960937,-0.4902 z"
       id="path5216"
       inkscape:connector-curvature="0"
       sodipodi:nodetypes="scsccsssscssssssscssssssscccscscscscscscscscs" />
    <path
       style="display:inline;opacity:1;fill:none;fill-rule:evenodd;stroke:url(#linearGradient4195-1);stroke-width:1px;stroke-linecap:butt;stroke-linejoin:round;stroke-opacity:1"
       d="m 7.5,1034.8621 0,15.0001 c 4.5,-3.3008 5.5,-4.001 5.5,-4.001 0,0 3.139103,10e-4 5.499903,10e-4 z"
       id="path4187-2"
       inkscape:connector-curvature="0"
       sodipodi:nodetypes="ccccc" />
  </g>
</svg>
