<?xml version="1.0" encoding="UTF-8" standalone="no"?>
<!-- Created with Inkscape (http://www.inkscape.org/) -->

<svg
   xmlns:dc="http://purl.org/dc/elements/1.1/"
   xmlns:cc="http://creativecommons.org/ns#"
   xmlns:rdf="http://www.w3.org/1999/02/22-rdf-syntax-ns#"
   xmlns:svg="http://www.w3.org/2000/svg"
   xmlns="http://www.w3.org/2000/svg"
   xmlns:xlink="http://www.w3.org/1999/xlink"
   xmlns:sodipodi="http://sodipodi.sourceforge.net/DTD/sodipodi-0.dtd"
   xmlns:inkscape="http://www.inkscape.org/namespaces/inkscape"
   width="24"
   height="24"
   id="svg2"
   version="1.1"
   inkscape:version="0.91 r13725"
   inkscape:export-filename="C:\Users\Lutz\Desktop\qthandles-icons\insert-text2.png"
   inkscape:export-xdpi="90"
   inkscape:export-ydpi="90"
   sodipodi:docname="insert-text.svg">
  <defs
     id="defs4">
    <linearGradient
       inkscape:collect="always"
       id="linearGradient6943">
      <stop
         style="stop-color:#ffffff;stop-opacity:1;"
         offset="0"
         id="stop6945" />
      <stop
         style="stop-color:#ffffff;stop-opacity:0;"
         offset="1"
         id="stop6947" />
    </linearGradient>
    <linearGradient
       inkscape:collect="always"
       id="linearGradient6906">
      <stop
         style="stop-color:#fce94f;stop-opacity:1"
         offset="0"
         id="stop6908" />
      <stop
         style="stop-color:#eed500;stop-opacity:1"
         offset="1"
         id="stop6910" />
    </linearGradient>
    <linearGradient
       inkscape:collect="always"
       id="linearGradient6898">
      <stop
         style="stop-color:#fce94f;stop-opacity:1"
         offset="0"
         id="stop6900" />
      <stop
         style="stop-color:#c4a000;stop-opacity:1"
         offset="1"
         id="stop6902" />
    </linearGradient>
    <linearGradient
       inkscape:collect="always"
       id="linearGradient6359">
      <stop
         style="stop-color:#555753;stop-opacity:1"
         offset="0"
         id="stop6361" />
      <stop
         style="stop-color:#171a1b;stop-opacity:1"
         offset="1"
         id="stop6363" />
    </linearGradient>
    <linearGradient
       inkscape:collect="always"
       id="linearGradient6351">
      <stop
         style="stop-color:#888a85;stop-opacity:1"
         offset="0"
         id="stop6353" />
      <stop
         style="stop-color:#171a1b;stop-opacity:1"
         offset="1"
         id="stop6355" />
    </linearGradient>
    <linearGradient
       inkscape:collect="always"
       xlink:href="#linearGradient6351"
       id="linearGradient6357"
       x1="8.9845695"
       y1="1033.3141"
       x2="8.9845695"
       y2="1044.3141"
       gradientUnits="userSpaceOnUse" />
    <linearGradient
       inkscape:collect="always"
       xlink:href="#linearGradient6359"
       id="linearGradient6365"
       x1="19"
       y1="1034.3622"
       x2="19"
       y2="1045.3622"
       gradientUnits="userSpaceOnUse"
       gradientTransform="translate(-1,0)" />
    <linearGradient
       inkscape:collect="always"
       xlink:href="#linearGradient6351"
       id="linearGradient6808"
       gradientUnits="userSpaceOnUse"
       x1="0.20458995"
       y1="1031.3141"
       x2="15.813443"
       y2="1042.3141" />
    <linearGradient
       inkscape:collect="always"
       xlink:href="#linearGradient6336"
       id="linearGradient6354"
       gradientUnits="userSpaceOnUse"
       gradientTransform="matrix(0,0.70588031,-1.1176459,0,1174.7564,1031.3917)"
       x1="3.5000002"
       y1="1040.3622"
       x2="20.500002"
       y2="1040.3622" />
    <linearGradient
       id="linearGradient6336">
      <stop
         offset="0"
         style="stop-color:#ffffff;stop-opacity:1"
         id="stop6338" />
      <stop
         offset="0.07003769"
         style="stop-color:#ffffff;stop-opacity:0.23529412"
         id="stop6340" />
      <stop
         offset="0.93496537"
         style="stop-color:#ffffff;stop-opacity:0.15686275"
         id="stop6342" />
      <stop
         offset="1"
         style="stop-color:#ffffff;stop-opacity:0.39215687"
         id="stop6344" />
    </linearGradient>
    <linearGradient
       x1="302.85715"
       y1="366.64789"
       x2="302.85715"
       y2="609.50507"
       id="linearGradient4218"
       xlink:href="#linearGradient5048"
       gradientUnits="userSpaceOnUse"
       gradientTransform="matrix(0.03727811,0,0,0.00823529,-1.4733734,1046.3427)" />
    <linearGradient
       id="linearGradient5048">
      <stop
         id="stop5050"
         style="stop-color:#000000;stop-opacity:0"
         offset="0" />
      <stop
         id="stop5056"
         style="stop-color:#000000;stop-opacity:1"
         offset="0.5" />
      <stop
         id="stop5052"
         style="stop-color:#000000;stop-opacity:0"
         offset="1" />
    </linearGradient>
    <radialGradient
       cx="605.71429"
       cy="486.64789"
       r="117.14286"
       fx="605.71429"
       fy="486.64789"
       id="radialGradient3048-2"
       xlink:href="#linearGradient5060"
       gradientUnits="userSpaceOnUse"
       gradientTransform="matrix(-0.01566318,0,0,0.00823529,12.439577,1046.3427)" />
    <linearGradient
       id="linearGradient5060">
      <stop
         id="stop5062"
         style="stop-color:#000000;stop-opacity:1"
         offset="0" />
      <stop
         id="stop5064"
         style="stop-color:#000000;stop-opacity:0"
         offset="1" />
    </linearGradient>
    <radialGradient
       cx="605.71429"
       cy="486.64789"
       r="117.14286"
       fx="605.71429"
       fy="486.64789"
       id="radialGradient3045-5"
       xlink:href="#linearGradient5060"
       gradientUnits="userSpaceOnUse"
       gradientTransform="matrix(0.01566318,0,0,0.00823529,11.560423,1046.3428)" />
    <linearGradient
       inkscape:collect="always"
       xlink:href="#linearGradient6906"
       id="linearGradient6912"
       x1="10"
       y1="1033.3622"
       x2="10"
       y2="1046.3622"
       gradientUnits="userSpaceOnUse"
       gradientTransform="matrix(1.105263,0,0,1,-1.263157,0)" />
    <radialGradient
       inkscape:collect="always"
       xlink:href="#linearGradient6943"
       id="radialGradient6949"
       cx="3.7376347"
       cy="1031.3549"
       fx="3.7376347"
       fy="1031.3549"
       r="9"
       gradientTransform="matrix(-4.3620595e-6,2.1041702,-2.7829223,-4.6730112e-6,2873.2916,1026.5024)"
       gradientUnits="userSpaceOnUse" />
    <linearGradient
       inkscape:collect="always"
       xlink:href="#linearGradient6898"
       id="linearGradient6999"
       gradientUnits="userSpaceOnUse"
       gradientTransform="matrix(1.105263,0,0,1,-1.2631573,9e-4)"
       x1="12.605949"
       y1="1036.5227"
       x2="18.15204"
       y2="1045.9386" />
  </defs>
  <sodipodi:namedview
     id="base"
     pagecolor="#ffffff"
     bordercolor="#666666"
     borderopacity="1.0"
     inkscape:pageopacity="0.0"
     inkscape:pageshadow="2"
     inkscape:zoom="16"
     inkscape:cx="11.877305"
     inkscape:cy="5.1976156"
     inkscape:document-units="px"
     inkscape:current-layer="layer1"
     showgrid="true"
     inkscape:window-width="1600"
     inkscape:window-height="1138"
     inkscape:window-x="-8"
     inkscape:window-y="-8"
     inkscape:window-maximized="1"
     inkscape:snap-bbox="true"
     inkscape:bbox-paths="false"
     inkscape:bbox-nodes="true"
     inkscape:object-paths="false"
     inkscape:object-nodes="true"
     inkscape:snap-nodes="false"
     inkscape:snap-global="true"
     showguides="false">
    <inkscape:grid
       type="xygrid"
       id="grid2985"
       empspacing="12"
       visible="true"
       enabled="true"
       snapvisiblegridlinesonly="true" />
  </sodipodi:namedview>
  <metadata
     id="metadata7">
    <rdf:RDF>
      <cc:Work
         rdf:about="">
        <dc:format>image/svg+xml</dc:format>
        <dc:type
           rdf:resource="http://purl.org/dc/dcmitype/StillImage" />
        <dc:title />
      </cc:Work>
    </rdf:RDF>
  </metadata>
  <g
     inkscape:label="Ebene 1"
     inkscape:groupmode="layer"
     id="layer1"
     transform="translate(0,-1028.3622)">
    <g
       transform="translate(-1.9073486e-6,-1.9999826)"
       id="g6115">
      <rect
         width="18.000002"
         height="2"
         x="3.0000002"
         y="1049.3622"
         id="rect2879"
         style="display:inline;overflow:visible;visibility:visible;opacity:0.15;fill:url(#linearGradient4218);fill-opacity:1;fill-rule:nonzero;stroke:none;stroke-width:1;marker:none" />
      <path
         d="m 3.0000002,1049.3622 c 0,0 0,1.9999 0,1.9999 -0.806615,0 -1.950002,-0.4481 -1.950002,-1.0001 0,-0.552 0.900121,-0.9998 1.950002,-0.9998 z"
         inkscape:connector-curvature="0"
         id="path2881"
         style="display:inline;overflow:visible;visibility:visible;opacity:0.15;fill:url(#radialGradient3048-2);fill-opacity:1;fill-rule:nonzero;stroke:none;stroke-width:1;marker:none" />
      <path
         d="m 21.000001,1049.3623 c 0,0 0,1.9999 0,1.9999 0.806614,0 1.950002,-0.4481 1.950002,-1.0001 0,-0.552 -0.900122,-0.9998 -1.950002,-0.9998 z"
         inkscape:connector-curvature="0"
         id="path2883"
         style="display:inline;overflow:visible;visibility:visible;opacity:0.15;fill:url(#radialGradient3045-5);fill-opacity:1;fill-rule:nonzero;stroke:none;stroke-width:1;marker:none" />
    </g>
    <path
       style="opacity:1;fill:url(#linearGradient6912);fill-opacity:1;fill-rule:evenodd;stroke:none;stroke-width:0.99999994;stroke-linecap:butt;stroke-linejoin:round;stroke-miterlimit:4;stroke-dasharray:none;stroke-dashoffset:0;stroke-opacity:1"
       d="m 2,1032.3622 0,15 18,0 2,-2 0,-13 z"
       id="rect6346"
       inkscape:connector-curvature="0"
       sodipodi:nodetypes="cccccc" />
    <path
       style="opacity:1;fill:url(#radialGradient6949);fill-opacity:1;fill-rule:evenodd;stroke:none;stroke-width:0.99999994;stroke-linecap:butt;stroke-linejoin:round;stroke-miterlimit:4;stroke-dasharray:none;stroke-dashoffset:0;stroke-opacity:1"
       d="m 2,1032.3622 0,15 19,0 1,-1 0,-14 z"
       id="rect6934"
       inkscape:connector-curvature="0"
       sodipodi:nodetypes="cccccc" />
    <path
       style="color:#000000;font-style:normal;font-variant:normal;font-weight:normal;font-stretch:normal;font-size:medium;line-height:normal;font-family:sans-serif;text-indent:0;text-align:start;text-decoration:none;text-decoration-line:none;text-decoration-style:solid;text-decoration-color:#000000;letter-spacing:normal;word-spacing:normal;text-transform:none;direction:ltr;block-progression:tb;writing-mode:lr-tb;baseline-shift:baseline;text-anchor:start;white-space:normal;clip-rule:nonzero;display:inline;overflow:visible;visibility:visible;opacity:1;isolation:auto;mix-blend-mode:normal;color-interpolation:sRGB;color-interpolation-filters:linearRGB;solid-color:#000000;solid-opacity:1;fill:url(#linearGradient6354);fill-opacity:1;fill-rule:evenodd;stroke:none;stroke-width:1.00000012;stroke-linecap:butt;stroke-linejoin:miter;stroke-miterlimit:4;stroke-dasharray:none;stroke-dashoffset:0;stroke-opacity:1;color-rendering:auto;image-rendering:auto;shape-rendering:auto;text-rendering:auto;enable-background:accumulate"
       d="m 2,1032.3622 0,15 19,0 1,-1 0,-14 -0.5,0 z m 1,1 18,0 0,12 -1,0 0,1 -17,0 z"
       id="rect6348"
       inkscape:connector-curvature="0"
       sodipodi:nodetypes="cccccccccccccc" />
    <path
       sodipodi:nodetypes="cccccc"
       inkscape:connector-curvature="0"
       id="path7060"
       d="m 2,1032.3622 0,15 19,0 1,-1 0,-14 z"
       style="opacity:0.75;fill:#ffffff;fill-opacity:1;fill-rule:evenodd;stroke:none;stroke-width:0.99999994;stroke-linecap:butt;stroke-linejoin:round;stroke-miterlimit:4;stroke-dasharray:none;stroke-dashoffset:0;stroke-opacity:1" />
    <g
       transform="matrix(1.0250593,0,0,1,0.79028317,2.0481)"
       id="g4829"
       style="font-style:normal;font-weight:normal;font-size:40px;line-height:125%;font-family:sans-serif;letter-spacing:0px;word-spacing:0px;fill:#ffffff;fill-opacity:1;stroke:none;stroke-opacity:1">
      <path
         sodipodi:nodetypes="ccccscccccccccccccc"
         inkscape:connector-curvature="0"
         id="path4831"
         style="font-style:normal;font-variant:normal;font-weight:bold;font-stretch:normal;font-size:18.39999962px;font-family:'Liberation Serif';-inkscape-font-specification:'Liberation Serif Bold';fill:#ffffff;fill-opacity:1;stroke:none;stroke-opacity:1"
         d="m 4.1068034,1044.3141 0,-1 2.9266599,-0.5 -1e-7,-8 -0.9755533,0 c -1.9511067,0 -1.9511067,0.5 -1.9511067,1 l 0,1.5 -0.9755533,0 0,-4 10.7310871,0 0,4 -0.975553,0 0,-1.5 c 0,-0.5 -1e-6,-1 -1.951107,-1 l -0.9755545,0 10e-7,8 2.9266605,0.5 0,1 z" />
    </g>
    <g
       style="font-style:normal;font-weight:normal;font-size:40px;line-height:125%;font-family:sans-serif;letter-spacing:0px;word-spacing:0px;fill:url(#linearGradient6357);fill-opacity:1;stroke:none;stroke-opacity:1"
       id="text2991-7"
       transform="matrix(1.0250593,0,0,1,0.790283,1.0481)">
      <path
         d="m 4.1068034,1044.3141 0,-1 2.9266599,-0.5 -1e-7,-8 -0.9755533,0 c -1.9511067,0 -1.9511067,0.5 -1.9511067,1 l 0,1.5 -0.9755533,0 0,-4 10.7310871,0 0,4 -0.975553,0 0,-1.5 c 0,-0.5 -1e-6,-1 -1.951107,-1 l -0.9755545,0 10e-7,8 2.9266605,0.5 0,1 z"
         style="font-style:normal;font-variant:normal;font-weight:bold;font-stretch:normal;font-size:18.39999962px;font-family:'Liberation Serif';-inkscape-font-specification:'Liberation Serif Bold';fill:url(#linearGradient6808);fill-opacity:1;stroke:none;stroke-opacity:1"
         id="path5426"
         inkscape:connector-curvature="0"
         sodipodi:nodetypes="ccccscccccccccccccc" />
    </g>
    <path
       sodipodi:nodetypes="ccccccccccccccccccc"
       inkscape:connector-curvature="0"
       id="path4837"
       d="m 17,1035.3622 0,1 1,0 0,9 -1,0 0,1 1,0 c 0.175612,-3e-4 0.348061,-0.047 0.5,-0.1348 0.151939,0.088 0.324388,0.1345 0.5,0.1348 l 1,0 0,-1 -1,0 0,-9 1,0 0,-1 -1,0 c -0.175612,3e-4 -0.348061,0.047 -0.5,0.1348 -0.151939,-0.088 -0.324388,-0.1345 -0.5,-0.1348 z"
       style="fill:#ffffff;fill-opacity:1;fill-rule:nonzero;stroke:none" />
    <path
       style="fill:url(#linearGradient6365);fill-opacity:1;fill-rule:nonzero;stroke:none"
       d="m 17,1034.3622 0,1 1,0 0,9 -1,0 0,1 1,0 c 0.175612,-3e-4 0.348061,-0.047 0.5,-0.1348 0.151939,0.088 0.324388,0.1345 0.5,0.1348 l 1,0 0,-1 -1,0 0,-9 1,0 0,-1 -1,0 c -0.175612,3e-4 -0.348061,0.047 -0.5,0.1348 -0.151939,-0.088 -0.324388,-0.1345 -0.5,-0.1348 z"
       id="rect3011"
       inkscape:connector-curvature="0"
       sodipodi:nodetypes="ccccccccccccccccccc" />
    <path
       style="color:#000000;font-style:normal;font-variant:normal;font-weight:normal;font-stretch:normal;font-size:medium;line-height:normal;font-family:sans-serif;text-indent:0;text-align:start;text-decoration:none;text-decoration-line:none;text-decoration-style:solid;text-decoration-color:#000000;letter-spacing:normal;word-spacing:normal;text-transform:none;direction:ltr;block-progression:tb;writing-mode:lr-tb;baseline-shift:baseline;text-anchor:start;white-space:normal;clip-rule:nonzero;display:inline;overflow:visible;visibility:visible;opacity:1;isolation:auto;mix-blend-mode:normal;color-interpolation:sRGB;color-interpolation-filters:linearRGB;solid-color:#000000;solid-opacity:1;fill:url(#linearGradient6999);fill-opacity:1;fill-rule:evenodd;stroke:none;stroke-width:0.99999994;stroke-linecap:butt;stroke-linejoin:round;stroke-miterlimit:4;stroke-dasharray:none;stroke-dashoffset:0;stroke-opacity:1;color-rendering:auto;image-rendering:auto;shape-rendering:auto;text-rendering:auto;enable-background:accumulate"
       d="m 1.5,1031.3622 c -0.2761309,0 -0.4999724,0.2239 -0.5,0.5 l 0,16 c 2.76e-5,0.2761 0.2238691,0.5 0.5,0.5 l 17.5,0 1,0 1,-1 1,-1 1,-1 0,-1 0,-12.5 c -2.8e-5,-0.2761 -0.223869,-0.5 -0.5,-0.5 z m 0.5,1 20,0 0,12 -1.0625,0 c -1.064726,0 -1.9375,0.8728 -1.9375,1.9375 l 0,1.0625 -17,0 z m 18.9375,13 0.730469,0 -0.333985,0.334 -1,1 -0.333984,0.334 0,-0.7305 c 0,-0.528 0.409476,-0.9375 0.9375,-0.9375 z"
       id="rect6995"
       inkscape:connector-curvature="0"
       sodipodi:nodetypes="ccccccccccccccccsscccsccccss" />
  </g>
</svg>
