<?xml version="1.0" encoding="UTF-8" standalone="no"?>
<!-- Created with Inkscape (http://www.inkscape.org/) -->

<svg
   xmlns:dc="http://purl.org/dc/elements/1.1/"
   xmlns:cc="http://creativecommons.org/ns#"
   xmlns:rdf="http://www.w3.org/1999/02/22-rdf-syntax-ns#"
   xmlns:svg="http://www.w3.org/2000/svg"
   xmlns="http://www.w3.org/2000/svg"
   xmlns:xlink="http://www.w3.org/1999/xlink"
   xmlns:sodipodi="http://sodipodi.sourceforge.net/DTD/sodipodi-0.dtd"
   xmlns:inkscape="http://www.inkscape.org/namespaces/inkscape"
   width="24"
   height="24"
   viewBox="0 0 24 24"
   id="svg2"
   version="1.1"
   inkscape:version="0.91 r13725"
   inkscape:export-filename="C:\Dokumente und Einstellungen\RM\Desktop\octave-icons-master\24x24\view-pan.png"
   inkscape:export-xdpi="90"
   inkscape:export-ydpi="90"
   sodipodi:docname="view-pan.svg">
  <defs
     id="defs4">
    <linearGradient
       inkscape:collect="always"
       id="linearGradient14555">
      <stop
         style="stop-color:#ffffff;stop-opacity:1"
         offset="0"
         id="stop14557" />
      <stop
         style="stop-color:#ffffff;stop-opacity:0.15686275"
         offset="1"
         id="stop14559" />
    </linearGradient>
    <linearGradient
       inkscape:collect="always"
       id="linearGradient14454">
      <stop
         style="stop-color:#a99d70;stop-opacity:1"
         offset="0"
         id="stop14456" />
      <stop
         style="stop-color:#46382a;stop-opacity:1"
         offset="1"
         id="stop14458" />
    </linearGradient>
    <linearGradient
       id="linearGradient14446">
      <stop
         id="stop14448"
         style="stop-color:#ffefb9;stop-opacity:1"
         offset="0" />
      <stop
         offset="0.69121122"
         style="stop-color:#f0d880;stop-opacity:1"
         id="stop14450" />
      <stop
         id="stop14452"
         style="stop-color:#d0a840;stop-opacity:1"
         offset="1" />
    </linearGradient>
    <linearGradient
       id="linearGradient12490">
      <stop
         offset="0"
         style="stop-color:#ffffff;stop-opacity:1"
         id="stop12492" />
      <stop
         id="stop12494"
         style="stop-color:#fcfdfe;stop-opacity:1"
         offset="0.69121122" />
      <stop
         offset="1"
         style="stop-color:#cfd9ef;stop-opacity:1"
         id="stop12496" />
    </linearGradient>
    <linearGradient
       id="linearGradient9174"
       inkscape:collect="always">
      <stop
         id="stop9176"
         offset="0"
         style="stop-color:#5b8ed8;stop-opacity:1" />
      <stop
         id="stop9178"
         offset="1"
         style="stop-color:#204a87;stop-opacity:1" />
    </linearGradient>
    <linearGradient
       x1="302.85715"
       y1="366.64789"
       x2="302.85715"
       y2="609.50507"
       id="linearGradient4218"
       xlink:href="#linearGradient5048"
       gradientUnits="userSpaceOnUse"
       gradientTransform="matrix(0.02071006,0,0,0.00823529,5.5147927,1046.3427)" />
    <linearGradient
       id="linearGradient5048">
      <stop
         id="stop5050"
         style="stop-color:#000000;stop-opacity:0"
         offset="0" />
      <stop
         id="stop5056"
         style="stop-color:#000000;stop-opacity:1"
         offset="0.5" />
      <stop
         id="stop5052"
         style="stop-color:#000000;stop-opacity:0"
         offset="1" />
    </linearGradient>
    <radialGradient
       cx="605.71429"
       cy="486.64789"
       r="117.14286"
       fx="605.71429"
       fy="486.64789"
       id="radialGradient3048-2"
       xlink:href="#linearGradient5060"
       gradientUnits="userSpaceOnUse"
       gradientTransform="matrix(-0.01606478,0,0,0.00823529,17.681608,1046.3427)" />
    <linearGradient
       id="linearGradient5060">
      <stop
         id="stop5062"
         style="stop-color:#000000;stop-opacity:1"
         offset="0" />
      <stop
         id="stop5064"
         style="stop-color:#000000;stop-opacity:0"
         offset="1" />
    </linearGradient>
    <radialGradient
       cx="605.71429"
       cy="486.64789"
       r="117.14286"
       fx="605.71429"
       fy="486.64789"
       id="radialGradient3045-5"
       xlink:href="#linearGradient5060"
       gradientUnits="userSpaceOnUse"
       gradientTransform="matrix(0.01606478,0,0,0.00823529,8.3183915,1046.3428)" />
    <radialGradient
       inkscape:collect="always"
       xlink:href="#linearGradient12490"
       id="radialGradient14442"
       gradientUnits="userSpaceOnUse"
       gradientTransform="matrix(0.60056277,1.0402051,-1.0123896,0.58450339,1033.1476,420.04804)"
       cx="9.4423981"
       cy="1039.3258"
       fx="9.4423981"
       fy="1039.3258"
       r="9.0000105" />
    <linearGradient
       inkscape:collect="always"
       xlink:href="#linearGradient9174"
       id="linearGradient14444"
       gradientUnits="userSpaceOnUse"
       x1="6.3125"
       y1="1036.7997"
       x2="12.378679"
       y2="1046.2434"
       gradientTransform="translate(-24,0)" />
    <radialGradient
       inkscape:collect="always"
       xlink:href="#linearGradient14446"
       id="radialGradient14473"
       gradientUnits="userSpaceOnUse"
       gradientTransform="matrix(0.60056277,1.0402051,-1.0123896,0.58450339,1057.1476,420.04804)"
       cx="9.4423981"
       cy="1039.3258"
       fx="9.4423981"
       fy="1039.3258"
       r="9.0000105" />
    <linearGradient
       inkscape:collect="always"
       xlink:href="#linearGradient14454"
       id="linearGradient14475"
       gradientUnits="userSpaceOnUse"
       x1="6.3125"
       y1="1036.7997"
       x2="11.995301"
       y2="1046.6426" />
    <linearGradient
       inkscape:collect="always"
       xlink:href="#linearGradient14555"
       id="linearGradient14561"
       x1="13.5"
       y1="1037.3622"
       x2="13.5"
       y2="1048.8622"
       gradientUnits="userSpaceOnUse"
       gradientTransform="translate(0,-1028.3622)" />
  </defs>
  <sodipodi:namedview
     id="base"
     pagecolor="#ffffff"
     bordercolor="#666666"
     borderopacity="1.0"
     inkscape:pageopacity="0.0"
     inkscape:pageshadow="2"
     inkscape:zoom="32"
     inkscape:cx="13.735111"
     inkscape:cy="3.9785285"
     inkscape:document-units="px"
     inkscape:current-layer="layer1"
     showgrid="true"
     units="px"
     inkscape:snap-bbox="true"
     inkscape:bbox-nodes="true"
     inkscape:object-nodes="true"
     inkscape:snap-intersection-paths="true"
     inkscape:snap-nodes="false"
     inkscape:snap-smooth-nodes="true"
     showguides="false"
     inkscape:guide-bbox="true"
     inkscape:window-width="1440"
     inkscape:window-height="844"
     inkscape:window-x="-4"
     inkscape:window-y="-4"
     inkscape:window-maximized="1">
    <inkscape:grid
       type="xygrid"
       id="grid4136"
       empspacing="12"
       originx="0"
       originy="0" />
    <sodipodi:guide
       position="9.5,7"
       orientation="0,1"
       id="guide5909"
       inkscape:label=""
       inkscape:color="rgb(0,0,255)" />
    <sodipodi:guide
       position="14,4.5"
       orientation="1,0"
       id="guide5911"
       inkscape:label=""
       inkscape:color="rgb(0,0,255)" />
    <sodipodi:guide
       position="-27,19"
       orientation="1,0"
       id="guide15328" />
    <sodipodi:guide
       position="-13,11"
       orientation="0,1"
       id="guide15330" />
    <inkscape:grid
       type="xygrid"
       id="grid4185"
       originx="0.5"
       originy="0.5"
       dotted="true" />
  </sodipodi:namedview>
  <metadata
     id="metadata7">
    <rdf:RDF>
      <cc:Work
         rdf:about="">
        <dc:format>image/svg+xml</dc:format>
        <dc:type
           rdf:resource="http://purl.org/dc/dcmitype/StillImage" />
        <dc:title />
      </cc:Work>
    </rdf:RDF>
  </metadata>
  <g
     inkscape:label="Ebene 1"
     inkscape:groupmode="layer"
     id="layer1"
     transform="translate(0,-1028.3622)">
    <g
       id="g7526">
      <rect
         width="10"
         height="2"
         x="8"
         y="1049.3622"
         id="rect2879"
         style="display:inline;overflow:visible;visibility:visible;opacity:0.15;fill:url(#linearGradient4218);fill-opacity:1;fill-rule:nonzero;stroke:none;stroke-width:1;marker:none" />
      <path
         d="m 8,1049.3622 c 0,0 0,1.9999 0,1.9999 -0.8272966,0 -2,-0.4481 -2,-1.0001 0,-0.552 0.9232001,-0.9998 2,-0.9998 z"
         inkscape:connector-curvature="0"
         id="path2881"
         style="display:inline;overflow:visible;visibility:visible;opacity:0.15;fill:url(#radialGradient3048-2);fill-opacity:1;fill-rule:nonzero;stroke:none;stroke-width:1;marker:none" />
      <path
         d="m 18,1049.3623 c 0,0 0,1.9999 0,1.9999 0.827296,0 2,-0.4481 2,-1.0001 0,-0.552 -0.923201,-0.9998 -2,-0.9998 z"
         inkscape:connector-curvature="0"
         id="path2883"
         style="display:inline;overflow:visible;visibility:visible;opacity:0.15;fill:url(#radialGradient3045-5);fill-opacity:1;fill-rule:nonzero;stroke:none;stroke-width:1;marker:none" />
    </g>
    <path
       sodipodi:nodetypes="cscccscccscccsccsccscc"
       inkscape:connector-curvature="0"
       id="path14440"
       d="m -16.5,1035.8622 c 0,0 0,-2 1.5,-2 1.5,0 1.5,2 1.5,2 l 0,5 0,-7 c 0,0 0,-2 1.5,-2 1.5,0 1.5,2 1.5,2 l 0,7 0,-5 c 0,0 0,-2 1.5,-2 1.5,0 1.5,2 1.5,2 l 0,5 0,-2 c 0,0 0,-2 1.5,-2 1.5,0 1.5,2 1.5,2 l 0,5 c -3e-6,3.3137 -2.686294,6 -6,6 -3,0 -5,-2 -7,-4 l -4,-4 c 0,0 0,-1 2,-1 1,0 3,2 3,2 z"
       style="opacity:1;fill:url(#radialGradient14442);fill-opacity:1;fill-rule:evenodd;stroke:url(#linearGradient14444);stroke-width:1;stroke-linecap:round;stroke-linejoin:round;stroke-miterlimit:4;stroke-dasharray:none;stroke-dashoffset:0;stroke-opacity:1" />
    <path
       sodipodi:nodetypes="cscccscccscccsccsccscc"
       inkscape:connector-curvature="0"
       id="path14471"
       d="m 7.5,1035.8622 c 0,0 0,-2 1.5,-2 1.5,0 1.5,2 1.5,2 l 0,5 0,-7 c 0,0 0,-2 1.5,-2 1.5,0 1.5,2 1.5,2 l 0,7 0,-5 c 0,0 0,-2 1.5,-2 1.5,0 1.5,2 1.5,2 l 0,5 0,-2 c 0,0 0,-2 1.5,-2 1.5,0 1.5,2 1.5,2 l 0,5 c -3e-6,3.3137 -2.686294,6 -6,6 -3,0 -5,-2 -7,-4 l -4,-4 c 0,0 0,-1 2,-1 1,0 3,2 3,2 z"
       style="opacity:1;fill:url(#radialGradient14473);fill-opacity:1;fill-rule:evenodd;stroke:url(#linearGradient14475);stroke-width:1;stroke-linecap:round;stroke-linejoin:round;stroke-miterlimit:4;stroke-dasharray:none;stroke-dashoffset:0;stroke-opacity:1" />
    <path
       style="color:#000000;font-style:normal;font-variant:normal;font-weight:normal;font-stretch:normal;font-size:medium;line-height:normal;font-family:sans-serif;text-indent:0;text-align:start;text-decoration:none;text-decoration-line:none;text-decoration-style:solid;text-decoration-color:#000000;letter-spacing:normal;word-spacing:normal;text-transform:none;direction:ltr;block-progression:tb;writing-mode:lr-tb;baseline-shift:baseline;text-anchor:start;white-space:normal;clip-rule:nonzero;display:inline;overflow:visible;visibility:visible;opacity:0.6;isolation:auto;mix-blend-mode:normal;color-interpolation:sRGB;color-interpolation-filters:linearRGB;solid-color:#000000;solid-opacity:1;fill:url(#linearGradient14561);fill-opacity:1;fill-rule:evenodd;stroke:none;stroke-width:4;stroke-linecap:round;stroke-linejoin:round;stroke-miterlimit:4;stroke-dasharray:none;stroke-dashoffset:0;stroke-opacity:1;color-rendering:auto;image-rendering:auto;shape-rendering:auto;text-rendering:auto;enable-background:accumulate"
       d="M 12 4 L 12 4.0019531 C 11.736111 4.0019531 11.593308 4.0752531 11.464844 4.1894531 C 11.401027 4.2464061 11.342507 4.3178895 11.291016 4.4003906 C 11.29073 4.4008467 11.291301 4.4018871 11.291016 4.4023438 C 11.239612 4.4849469 11.193292 4.5769998 11.15625 4.6757812 C 11.156036 4.6763493 11.156463 4.6771659 11.15625 4.6777344 C 11.082203 4.8758276 11.041848 5.0804635 11.021484 5.2363281 C 11.021417 5.2368443 11.021552 5.2377662 11.021484 5.2382812 C 11.001475 5.3927815 11 5.5 11 5.5 C 11 5.5000115 11 5.5019531 11 5.5019531 L 11 7.5019531 L 11 9.5 L 11 12.501953 A 0.50005 0.50005 0 0 1 11 12.511719 A 0.50005 0.50005 0 0 1 10.873047 12.830078 A 0.50005 0.50005 0 0 1 10.800781 12.898438 A 0.50005 0.50005 0 0 1 10.757812 12.925781 A 0.50005 0.50005 0 0 1 10.572266 12.992188 A 0.50005 0.50005 0 0 1 10.472656 12.992188 A 0.50005 0.50005 0 0 1 10.326172 12.962891 A 0.50005 0.50005 0 0 1 10.279297 12.943359 A 0.50005 0.50005 0 0 1 10.195312 12.888672 A 0.50005 0.50005 0 0 1 10.123047 12.822266 A 0.50005 0.50005 0 0 1 10.091797 12.78125 A 0.50005 0.50005 0 0 1 10.042969 12.695312 A 0.50005 0.50005 0 0 1 10 12.5 L 10 9.5 L 10 7.5 C 10 7.5 9.9928 7.0731813 9.84375 6.6757812 C 9.76924 6.4770813 9.6636215 6.3017 9.5351562 6.1875 C 9.4066916 6.073 9.2638889 6 9 6 C 8.7361111 6 8.5933085 6.0733 8.4648438 6.1875 C 8.4006114 6.2446 8.3427922 6.315475 8.2910156 6.3984375 L 8.2910156 6.4003906 C 8.2396104 6.483 8.1932928 6.5769973 8.15625 6.6757812 C 8.08174 6.8744813 8.0419194 7.0799531 8.0214844 7.2363281 C 8.0010531 7.3927078 8 7.5 8 7.5 L 8 14.5 A 0.50005 0.50005 0 0 1 7.9960938 14.550781 A 0.50005 0.50005 0 0 1 7.9882812 14.599609 A 0.50005 0.50005 0 0 1 7.9765625 14.648438 A 0.50005 0.50005 0 0 1 7.96875 14.671875 A 0.50005 0.50005 0 0 1 7.9589844 14.693359 A 0.50005 0.50005 0 0 1 7.9121094 14.777344 C 7.908447 14.782762 7.9062062 14.787724 7.9023438 14.792969 A 0.50005 0.50005 0 0 1 7.8710938 14.832031 A 0.50005 0.50005 0 0 1 7.8632812 14.841797 A 0.50005 0.50005 0 0 1 7.8359375 14.867188 A 0.50005 0.50005 0 0 1 7.828125 14.875 A 0.50005 0.50005 0 0 1 7.796875 14.898438 A 0.50005 0.50005 0 0 1 7.7597656 14.923828 A 0.50005 0.50005 0 0 1 7.7558594 14.927734 A 0.50005 0.50005 0 0 1 7.7285156 14.941406 A 0.50005 0.50005 0 0 1 7.7109375 14.951172 A 0.50005 0.50005 0 0 1 7.7011719 14.955078 A 0.50005 0.50005 0 0 1 7.6972656 14.957031 C 7.6926369 14.959023 7.6882786 14.961035 7.6835938 14.962891 A 0.50005 0.50005 0 0 1 7.6074219 14.986328 A 0.50005 0.50005 0 0 1 7.5976562 14.988281 A 0.50005 0.50005 0 0 1 7.5644531 14.992188 A 0.50005 0.50005 0 0 1 7.5566406 14.994141 A 0.50005 0.50005 0 0 1 7.5371094 14.996094 A 0.50005 0.50005 0 0 1 7.5078125 14.998047 A 0.50005 0.50005 0 0 1 7.46875 14.996094 A 0.50005 0.50005 0 0 1 7.4570312 14.996094 A 0.50005 0.50005 0 0 1 7.4375 14.994141 A 0.50005 0.50005 0 0 1 7.4296875 14.992188 A 0.50005 0.50005 0 0 1 7.4257812 14.992188 C 7.4196473 14.991307 7.4139584 14.99127 7.4082031 14.990234 A 0.50005 0.50005 0 0 1 7.4023438 14.988281 A 0.50005 0.50005 0 0 1 7.359375 14.978516 A 0.50005 0.50005 0 0 1 7.3535156 14.976562 A 0.50005 0.50005 0 0 1 7.3125 14.960938 A 0.50005 0.50005 0 0 1 7.3066406 14.958984 A 0.50005 0.50005 0 0 1 7.2929688 14.953125 A 0.50005 0.50005 0 0 1 7.2617188 14.9375 A 0.50005 0.50005 0 0 1 7.21875 14.910156 A 0.50005 0.50005 0 0 1 7.1835938 14.884766 A 0.50005 0.50005 0 0 1 7.1796875 14.880859 A 0.50005 0.50005 0 0 1 7.1523438 14.855469 C 7.1518614 14.854998 7.1510046 14.85559 7.1503906 14.855469 C 7.1489579 14.855186 7.1476017 14.854632 7.1464844 14.853516 C 7.1464844 14.853516 6.662106 14.370225 6.0625 13.890625 C 5.762697 13.650725 5.4350831 13.415147 5.1425781 13.248047 C 4.9963256 13.164497 4.8558527 13.101671 4.7421875 13.060547 C 4.6285223 13.019423 4.541665 13 4.5 13 C 3.583333 13 3.2356636 13.221416 3.1035156 13.353516 C 3.0939819 13.363287 3.0944411 13.367473 3.0859375 13.376953 L 3.0859375 13.378906 L 6.8535156 17.144531 C 8.8535156 19.144531 10.722222 20.998047 13.5 20.998047 C 13.803959 20.998047 14.100146 20.967038 14.390625 20.919922 C 14.432832 20.913061 14.475703 20.908202 14.517578 20.900391 C 14.792094 20.849271 15.057967 20.775638 15.316406 20.685547 C 15.368352 20.667419 15.419487 20.648532 15.470703 20.628906 C 15.722959 20.532333 15.968502 20.420073 16.201172 20.289062 C 16.237145 20.268782 16.271179 20.24567 16.306641 20.224609 C 16.546105 20.082526 16.77619 19.927588 16.990234 19.751953 C 16.993149 19.749562 16.997091 19.748491 17 19.746094 L 17.001953 19.744141 C 17.273087 19.520496 17.522379 19.271074 17.746094 19 L 17.746094 18.998047 C 17.857737 18.862697 17.964034 18.723934 18.0625 18.578125 L 18.0625 18.576172 C 18.160907 18.43036 18.253564 18.280359 18.337891 18.125 L 18.337891 18.123047 C 18.422159 17.967682 18.499074 17.806581 18.568359 17.642578 L 18.568359 17.640625 C 18.707044 17.312053 18.815564 16.96715 18.888672 16.609375 L 18.888672 16.607422 C 18.894147 16.580582 18.895307 16.552373 18.900391 16.525391 C 18.961314 16.201402 18.996369 15.868955 18.998047 15.527344 C 18.998099 15.51744 19 15.507963 19 15.498047 L 19 10.498047 C 18.999945 10.494924 18.992252 10.071719 18.84375 9.6757812 C 18.76924 9.4770816 18.663621 9.3017 18.535156 9.1875 C 18.406692 9.073 18.263889 9 18 9 C 17.736111 9 17.593308 9.073 17.464844 9.1875 C 17.401027 9.2444531 17.342507 9.3159317 17.291016 9.3984375 L 17.291016 9.4003906 C 17.27231 9.4304519 17.259077 9.4674047 17.242188 9.5 C 17.212665 9.5569761 17.179812 9.6109935 17.15625 9.6738281 C 17.0072 10.071228 17 10.498047 17 10.498047 L 17 12.498047 A 0.50005 0.50005 0 0 1 16.996094 12.554688 A 0.50005 0.50005 0 0 1 16.986328 12.605469 A 0.50005 0.50005 0 0 1 16.972656 12.652344 A 0.50005 0.50005 0 0 1 16.955078 12.699219 A 0.50005 0.50005 0 0 1 16.714844 12.943359 A 0.50005 0.50005 0 0 1 16.667969 12.964844 A 0.50005 0.50005 0 0 1 16.621094 12.978516 A 0.50005 0.50005 0 0 1 16.472656 12.992188 A 0.50005 0.50005 0 0 1 16.373047 12.976562 A 0.50005 0.50005 0 0 1 16.279297 12.943359 A 0.50005 0.50005 0 0 1 16.195312 12.890625 A 0.50005 0.50005 0 0 1 16.15625 12.857422 A 0.50005 0.50005 0 0 1 16.091797 12.78125 A 0.50005 0.50005 0 0 1 16.042969 12.695312 A 0.50005 0.50005 0 0 1 16.025391 12.648438 A 0.50005 0.50005 0 0 1 16.011719 12.599609 A 0.50005 0.50005 0 0 1 16 12.5 L 16 10.5 L 16 9.5 L 16 7.5 C 16 7.5 15.9928 7.0731813 15.84375 6.6757812 C 15.76924 6.4770813 15.663621 6.3017 15.535156 6.1875 C 15.406692 6.073 15.263889 6 15 6 C 14.736111 6 14.593308 6.0733 14.464844 6.1875 C 14.400611 6.2446 14.342792 6.315475 14.291016 6.3984375 L 14.291016 6.4003906 C 14.23961 6.483 14.193293 6.5769973 14.15625 6.6757812 C 14.081725 6.8744813 14.041916 7.0799531 14.021484 7.2363281 C 14.001053 7.3927078 14 7.5 14 7.5 L 14 9.5 L 14 12.5 A 0.50005 0.50005 0 0 1 13.972656 12.646484 A 0.50005 0.50005 0 0 1 13.931641 12.738281 A 0.50005 0.50005 0 0 1 13.904297 12.779297 A 0.50005 0.50005 0 0 1 13.757812 12.914062 A 0.50005 0.50005 0 0 1 13.667969 12.957031 A 0.50005 0.50005 0 0 1 13.621094 12.970703 A 0.50005 0.50005 0 0 1 13.521484 12.986328 A 0.50005 0.50005 0 0 1 13.472656 12.986328 A 0.50005 0.50005 0 0 1 13.421875 12.986328 A 0.50005 0.50005 0 0 1 13.373047 12.974609 A 0.50005 0.50005 0 0 1 13.279297 12.941406 A 0.50005 0.50005 0 0 1 13.236328 12.916016 A 0.50005 0.50005 0 0 1 13.15625 12.857422 A 0.50005 0.50005 0 0 1 13.025391 12.648438 A 0.50005 0.50005 0 0 1 13 12.5 L 13 9.5 L 13 7.5 L 13 5.5 C 13 5.5 12.992771 5.0731813 12.84375 4.6757812 C 12.76924 4.4770813 12.663621 4.3017 12.535156 4.1875 C 12.406692 4.073 12.263889 4 12 4 z M 11.5 12.5 L 12.5 12.5 L 12.5 12.976562 L 12.5 13 A 1 0.99999565 0 0 0 13.5 14 A 1 0.99999565 0 0 0 14.5 13 L 14.5 12.5 L 15.5 12.5 L 15.5 13 A 1 0.99999565 0 0 0 16.5 14 A 1 0.99999565 0 0 0 17.5 13 L 17.5 15.5 C 17.499998 17.7328 15.732822 19.5 13.5 19.5 C 11.50723 19.5 10.058396 18.184728 8.2226562 16.361328 C 8.9913306 16.063428 9.49848 15.3244 9.5 14.5 L 9.5 13 A 1 0.99999565 0 0 0 10.5 14 A 1 0.99999565 0 0 0 11.5 13 L 11.5 12.5 z "
       id="path14538"
       transform="translate(0,1028.3622)" />
    <rect
       style="color:#000000;clip-rule:nonzero;display:inline;overflow:visible;visibility:visible;opacity:1;isolation:auto;mix-blend-mode:normal;color-interpolation:sRGB;color-interpolation-filters:linearRGB;solid-color:#000000;solid-opacity:1;fill:none;fill-opacity:1;fill-rule:nonzero;stroke:none;stroke-width:2;stroke-linecap:round;stroke-linejoin:round;stroke-miterlimit:4;stroke-dasharray:none;stroke-dashoffset:0;stroke-opacity:1;color-rendering:auto;image-rendering:auto;shape-rendering:auto;text-rendering:auto;enable-background:accumulate"
       id="rect4249"
       width="1"
       height="2"
       x="-1.5"
       y="1034.8622"
       ry="0.5"
       rx="0.5" />
  </g>
</svg>
