<?xml version="1.0" encoding="UTF-8" standalone="no"?>
<!-- Created with Inkscape (http://www.inkscape.org/) -->

<svg
   xmlns:dc="http://purl.org/dc/elements/1.1/"
   xmlns:cc="http://creativecommons.org/ns#"
   xmlns:rdf="http://www.w3.org/1999/02/22-rdf-syntax-ns#"
   xmlns:svg="http://www.w3.org/2000/svg"
   xmlns="http://www.w3.org/2000/svg"
   xmlns:xlink="http://www.w3.org/1999/xlink"
   xmlns:sodipodi="http://sodipodi.sourceforge.net/DTD/sodipodi-0.dtd"
   xmlns:inkscape="http://www.inkscape.org/namespaces/inkscape"
   width="24"
   height="24"
   viewBox="0 0 24.000001 24.000001"
   id="svg2"
   version="1.1"
   inkscape:version="0.91 r13725"
   inkscape:export-filename="C:\Users\Lutz\Desktop\qthandles-icons\view-grid.png"
   inkscape:export-xdpi="90"
   inkscape:export-ydpi="90"
   sodipodi:docname="view-grid.svg">
  <defs
     id="defs4">
    <linearGradient
       id="linearGradient6425"
       inkscape:collect="always">
      <stop
         id="stop6427"
         offset="0"
         style="stop-color:#689fd9;stop-opacity:1" />
      <stop
         id="stop6429"
         offset="1"
         style="stop-color:#19498e;stop-opacity:1" />
    </linearGradient>
    <linearGradient
       id="linearGradient6336">
      <stop
         offset="0"
         style="stop-color:#ffffff;stop-opacity:1"
         id="stop6338" />
      <stop
         offset="0.07003769"
         style="stop-color:#ffffff;stop-opacity:0.23529412"
         id="stop6340" />
      <stop
         offset="0.93496537"
         style="stop-color:#ffffff;stop-opacity:0.15686275"
         id="stop6342" />
      <stop
         offset="1"
         style="stop-color:#ffffff;stop-opacity:0.6"
         id="stop6344" />
    </linearGradient>
    <linearGradient
       id="linearGradient3104-5">
      <stop
         id="stop3106-6"
         style="stop-color:#a0a0a0;stop-opacity:1"
         offset="0" />
      <stop
         id="stop3108-9"
         style="stop-color:#bebebe;stop-opacity:1"
         offset="1" />
    </linearGradient>
    <linearGradient
       x1="302.85715"
       y1="366.64789"
       x2="302.85715"
       y2="609.50507"
       id="linearGradient4218"
       xlink:href="#linearGradient5048"
       gradientUnits="userSpaceOnUse"
       gradientTransform="matrix(0.03727811,0,0,0.00823529,-1.4733734,1046.3427)" />
    <linearGradient
       id="linearGradient5048">
      <stop
         id="stop5050"
         style="stop-color:#000000;stop-opacity:0"
         offset="0" />
      <stop
         id="stop5056"
         style="stop-color:#000000;stop-opacity:1"
         offset="0.5" />
      <stop
         id="stop5052"
         style="stop-color:#000000;stop-opacity:0"
         offset="1" />
    </linearGradient>
    <radialGradient
       cx="605.71429"
       cy="486.64789"
       r="117.14286"
       fx="605.71429"
       fy="486.64789"
       id="radialGradient3048"
       xlink:href="#linearGradient5060"
       gradientUnits="userSpaceOnUse"
       gradientTransform="matrix(-0.01606478,0,0,0.00823529,12.681608,1046.3427)" />
    <linearGradient
       id="linearGradient5060">
      <stop
         id="stop5062"
         style="stop-color:#000000;stop-opacity:1"
         offset="0" />
      <stop
         id="stop5064"
         style="stop-color:#000000;stop-opacity:0"
         offset="1" />
    </linearGradient>
    <radialGradient
       cx="605.71429"
       cy="486.64789"
       r="117.14286"
       fx="605.71429"
       fy="486.64789"
       id="radialGradient3045"
       xlink:href="#linearGradient5060"
       gradientUnits="userSpaceOnUse"
       gradientTransform="matrix(0.01606479,0,0,0.00823529,11.318391,1046.3428)" />
    <linearGradient
       inkscape:collect="always"
       xlink:href="#linearGradient6425"
       id="linearGradient6571"
       x1="12.000001"
       y1="4.0000005"
       x2="12.000001"
       y2="20.000002"
       gradientUnits="userSpaceOnUse"
       gradientTransform="translate(0,1028.3622)" />
    <linearGradient
       inkscape:collect="always"
       xlink:href="#linearGradient6336"
       id="linearGradient6354"
       gradientUnits="userSpaceOnUse"
       gradientTransform="translate(1028.3622,-1052.3622)"
       x1="3.5000002"
       y1="1040.3622"
       x2="20.500002"
       y2="1040.3622" />
    <radialGradient
       inkscape:collect="always"
       xlink:href="#linearGradient3600-4-9"
       id="radialGradient8519"
       cx="6.8718562"
       cy="1037.962"
       fx="6.8718562"
       fy="1037.962"
       r="10.000001"
       gradientTransform="matrix(1.2031697,1.2031697,-1.2031697,1.2031697,1246.5765,-221.75023)"
       gradientUnits="userSpaceOnUse" />
    <linearGradient
       id="linearGradient3600-4-9">
      <stop
         id="stop3602-7-2"
         style="stop-color:#ffffff;stop-opacity:1"
         offset="0" />
      <stop
         offset="0.5930329"
         style="stop-color:#fcfdfe;stop-opacity:1"
         id="stop8523" />
      <stop
         id="stop3604-6-3"
         style="stop-color:#e7ecf7;stop-opacity:1"
         offset="1" />
    </linearGradient>
    <linearGradient
       inkscape:collect="always"
       xlink:href="#linearGradient3104-5"
       id="linearGradient6476"
       gradientUnits="userSpaceOnUse"
       gradientTransform="matrix(1.2666675,0,0,1.2666666,-43.73336,-287.56294)"
       x1="44"
       y1="1056.3622"
       x2="44"
       y2="1040.3622" />
  </defs>
  <sodipodi:namedview
     id="base"
     pagecolor="#ffffff"
     bordercolor="#666666"
     borderopacity="1.0"
     inkscape:pageopacity="0.0"
     inkscape:pageshadow="2"
     inkscape:zoom="22.627417"
     inkscape:cx="14.032679"
     inkscape:cy="8.4405752"
     inkscape:document-units="px"
     inkscape:current-layer="layer1"
     showgrid="true"
     units="px"
     inkscape:snap-nodes="true"
     inkscape:snap-bbox="true"
     inkscape:bbox-nodes="true"
     showguides="false"
     inkscape:object-nodes="true">
    <inkscape:grid
       type="xygrid"
       id="grid4136"
       empspacing="12" />
  </sodipodi:namedview>
  <metadata
     id="metadata7">
    <rdf:RDF>
      <cc:Work
         rdf:about="">
        <dc:format>image/svg+xml</dc:format>
        <dc:type
           rdf:resource="http://purl.org/dc/dcmitype/StillImage" />
        <dc:title />
      </cc:Work>
    </rdf:RDF>
  </metadata>
  <g
     inkscape:label="Ebene 1"
     inkscape:groupmode="layer"
     id="layer1"
     transform="translate(0,-1028.3622)">
    <g
       id="g12091">
      <rect
         width="18.000002"
         height="2"
         x="3.0000002"
         y="1049.3622"
         id="rect2879"
         style="display:inline;overflow:visible;visibility:visible;opacity:0.15;fill:url(#linearGradient4218);fill-opacity:1;fill-rule:nonzero;stroke:none;stroke-width:1;marker:none" />
      <path
         d="m 3.0000002,1049.3622 c 0,0 0,1.9999 0,1.9999 -0.8272966,0 -2.0000001,-0.4481 -2.0000001,-1.0001 0,-0.552 0.9232001,-0.9998 2.0000001,-0.9998 z"
         inkscape:connector-curvature="0"
         id="path2881"
         style="display:inline;overflow:visible;visibility:visible;opacity:0.15;fill:url(#radialGradient3048);fill-opacity:1;fill-rule:nonzero;stroke:none;stroke-width:1;marker:none" />
      <path
         d="m 21.000001,1049.3623 c 0,0 0,1.9999 0,1.9999 0.827296,0 2,-0.4481 2,-1.0001 0,-0.552 -0.923201,-0.9998 -2,-0.9998 z"
         inkscape:connector-curvature="0"
         id="path2883"
         style="display:inline;overflow:visible;visibility:visible;opacity:0.15;fill:url(#radialGradient3045);fill-opacity:1;fill-rule:nonzero;stroke:none;stroke-width:1;marker:none" />
    </g>
    <rect
       style="opacity:1;fill:url(#radialGradient8519);fill-opacity:1;fill-rule:evenodd;stroke:url(#linearGradient6476);stroke-width:0.99999988;stroke-linecap:butt;stroke-linejoin:round;stroke-miterlimit:4;stroke-dasharray:none;stroke-dashoffset:0;stroke-opacity:1"
       id="rect6460"
       width="19.000004"
       height="19.000019"
       x="2.5"
       y="1030.8622"
       ry="1.5000176"
       inkscape:export-xdpi="90"
       inkscape:export-ydpi="90" />
    <rect
       style="opacity:1;fill:none;fill-opacity:1;fill-rule:evenodd;stroke:url(#linearGradient6354);stroke-width:1.00000012;stroke-linecap:butt;stroke-linejoin:miter;stroke-miterlimit:4;stroke-dasharray:none;stroke-dashoffset:0;stroke-opacity:1"
       id="rect6348"
       width="17.000002"
       height="17.000019"
       x="1031.8622"
       y="-20.50001"
       ry="0.50000834"
       inkscape:export-xdpi="90"
       inkscape:export-ydpi="90"
       transform="matrix(0,1,-1,0,0,0)" />
    <path
       id="path6421"
       d="m 7.0000005,1034.3622 0,2 -2,0 0,1 2,0 0,2 -2,0 0,1 2,0 0,2 -2,0 0,1 2,0 0,2 -2,0 0,1 2,0 0,2 1,0 0,-2 1.9999995,0 0,2 1,0 0,-2 2,0 0,2 1,0 0,-2 2,0 0,2 1,0 0,-2 2,0 0,-1 -2,0 0,-2 2,0 0,-1 -2,0 0,-2 2,0 0,-1 -2,0 0,-2 2,0 0,-1 -2,0 0,-2 -1,0 0,2 -2,0 0,-2 -1,0 0,2 -2,0 0,-2 -1,0 0,2 -1.9999995,0 0,-2 -1,0 z m 1,3 1.9999995,0 0,2 -1.9999995,0 0,-2 z m 2.9999995,0 2,0 0,2 -2,0 0,-2 z m 3,0 2,0 0,2 -2,0 0,-2 z m -5.9999995,3 1.9999995,0 0,2 -1.9999995,0 0,-2 z m 2.9999995,0 2,0 0,2 -2,0 0,-2 z m 3,0 2,0 0,2 -2,0 0,-2 z m -5.9999995,3 1.9999995,0 0,2 -1.9999995,0 0,-2 z m 2.9999995,0 2,0 0,2 -2,0 0,-2 z m 3,0 2,0 0,2 -2,0 0,-2 z"
       style="opacity:0.95;fill:#ffffff;fill-opacity:1;fill-rule:evenodd;stroke:none;stroke-width:1;stroke-linecap:butt;stroke-linejoin:miter;stroke-miterlimit:4;stroke-dasharray:none;stroke-dashoffset:0;stroke-opacity:1"
       inkscape:connector-curvature="0" />
    <path
       style="opacity:1;fill:url(#linearGradient6571);fill-opacity:1;fill-rule:evenodd;stroke:none;stroke-width:1;stroke-linecap:butt;stroke-linejoin:miter;stroke-miterlimit:4;stroke-dasharray:none;stroke-dashoffset:0;stroke-opacity:1"
       d="m 7,1033.3622 0,2 -2,0 0,1 2,0 0,2 -2,0 0,1 2,0 0,2 -2,0 0,1 2,0 0,2 -2,0 0,1 2,0 0,2 1,0 0,-2 2,0 0,2 1,0 0,-2 2,0 0,2 1,0 0,-2 2,0 0,2 1,0 0,-2 2,0 0,-1 -2,0 0,-2 2,0 0,-1 -2,0 0,-2 2,0 0,-1 -2,0 0,-2 2,0 0,-1 -2,0 0,-2 -1,0 0,2 -2,0 0,-2 -1,0 0,2 -2,0 0,-2 -1,0 0,2 -2,0 0,-2 -1,0 z m 1,3 2,0 0,2 -2,0 0,-2 z m 3,0 2,0 0,2 -2,0 0,-2 z m 3,0 2,0 0,2 -2,0 0,-2 z m -6,3 2,0 0,2 -2,0 0,-2 z m 3,0 2,0 0,2 -2,0 0,-2 z m 3,0 2,0 0,2 -2,0 0,-2 z m -6,3 2,0 0,2 -2,0 0,-2 z m 3,0 2,0 0,2 -2,0 0,-2 z m 3,0 2,0 0,2 -2,0 0,-2 z"
       id="rect6488"
       inkscape:connector-curvature="0" />
  </g>
</svg>
