<?xml version="1.0" encoding="UTF-8" standalone="no"?>
<!-- Created with Inkscape (http://www.inkscape.org/) -->

<svg
   xmlns:dc="http://purl.org/dc/elements/1.1/"
   xmlns:cc="http://creativecommons.org/ns#"
   xmlns:rdf="http://www.w3.org/1999/02/22-rdf-syntax-ns#"
   xmlns:svg="http://www.w3.org/2000/svg"
   xmlns="http://www.w3.org/2000/svg"
   xmlns:xlink="http://www.w3.org/1999/xlink"
   xmlns:sodipodi="http://sodipodi.sourceforge.net/DTD/sodipodi-0.dtd"
   xmlns:inkscape="http://www.inkscape.org/namespaces/inkscape"
   width="24"
   height="24"
   viewBox="0 0 24 24"
   id="svg2"
   version="1.1"
   inkscape:version="0.91 r13725"
   inkscape:export-filename="C:\Users\Lutz\Desktop\qthandles-icons\view-pan.png"
   inkscape:export-xdpi="90"
   inkscape:export-ydpi="90"
   sodipodi:docname="view-pan.svg">
  <defs
     id="defs4">
    <linearGradient
       inkscape:collect="always"
       id="linearGradient14555">
      <stop
         style="stop-color:#ffffff;stop-opacity:0.39215687"
         offset="0"
         id="stop14557" />
      <stop
         style="stop-color:#ffffff;stop-opacity:0.15686275"
         offset="1"
         id="stop14559" />
    </linearGradient>
    <linearGradient
       inkscape:collect="always"
       id="linearGradient14454">
      <stop
         style="stop-color:#a99d70;stop-opacity:1"
         offset="0"
         id="stop14456" />
      <stop
         style="stop-color:#46382a;stop-opacity:1"
         offset="1"
         id="stop14458" />
    </linearGradient>
    <linearGradient
       id="linearGradient14446">
      <stop
         id="stop14448"
         style="stop-color:#ffefb9;stop-opacity:1"
         offset="0" />
      <stop
         offset="0.69121122"
         style="stop-color:#f0d880;stop-opacity:1"
         id="stop14450" />
      <stop
         id="stop14452"
         style="stop-color:#d0a840;stop-opacity:1"
         offset="1" />
    </linearGradient>
    <linearGradient
       id="linearGradient12490">
      <stop
         offset="0"
         style="stop-color:#ffffff;stop-opacity:1"
         id="stop12492" />
      <stop
         id="stop12494"
         style="stop-color:#fcfdfe;stop-opacity:1"
         offset="0.69121122" />
      <stop
         offset="1"
         style="stop-color:#cfd9ef;stop-opacity:1"
         id="stop12496" />
    </linearGradient>
    <linearGradient
       id="linearGradient9174"
       inkscape:collect="always">
      <stop
         id="stop9176"
         offset="0"
         style="stop-color:#5b8ed8;stop-opacity:1" />
      <stop
         id="stop9178"
         offset="1"
         style="stop-color:#204a87;stop-opacity:1" />
    </linearGradient>
    <linearGradient
       x1="302.85715"
       y1="366.64789"
       x2="302.85715"
       y2="609.50507"
       id="linearGradient4218"
       xlink:href="#linearGradient5048"
       gradientUnits="userSpaceOnUse"
       gradientTransform="matrix(0.01863905,0,0,0.00823529,6.7633134,1046.3427)" />
    <linearGradient
       id="linearGradient5048">
      <stop
         id="stop5050"
         style="stop-color:#000000;stop-opacity:0"
         offset="0" />
      <stop
         id="stop5056"
         style="stop-color:#000000;stop-opacity:1"
         offset="0.5" />
      <stop
         id="stop5052"
         style="stop-color:#000000;stop-opacity:0"
         offset="1" />
    </linearGradient>
    <radialGradient
       cx="605.71429"
       cy="486.64789"
       r="117.14286"
       fx="605.71429"
       fy="486.64789"
       id="radialGradient3048-2"
       xlink:href="#linearGradient5060"
       gradientUnits="userSpaceOnUse"
       gradientTransform="matrix(-0.01566318,0,0,0.00823529,18.439577,1046.3427)" />
    <linearGradient
       id="linearGradient5060">
      <stop
         id="stop5062"
         style="stop-color:#000000;stop-opacity:1"
         offset="0" />
      <stop
         id="stop5064"
         style="stop-color:#000000;stop-opacity:0"
         offset="1" />
    </linearGradient>
    <radialGradient
       cx="605.71429"
       cy="486.64789"
       r="117.14286"
       fx="605.71429"
       fy="486.64789"
       id="radialGradient3045-5"
       xlink:href="#linearGradient5060"
       gradientUnits="userSpaceOnUse"
       gradientTransform="matrix(0.01566318,0,0,0.00823529,8.560422,1046.3428)" />
    <radialGradient
       inkscape:collect="always"
       xlink:href="#linearGradient12490"
       id="radialGradient14442"
       gradientUnits="userSpaceOnUse"
       gradientTransform="matrix(0.60056277,1.0402051,-1.0123896,0.58450339,1033.1476,420.04804)"
       cx="9.4423981"
       cy="1039.3258"
       fx="9.4423981"
       fy="1039.3258"
       r="9.0000105" />
    <linearGradient
       inkscape:collect="always"
       xlink:href="#linearGradient9174"
       id="linearGradient14444"
       gradientUnits="userSpaceOnUse"
       x1="6.3125"
       y1="1036.7997"
       x2="12.378679"
       y2="1046.2434"
       gradientTransform="translate(-24,0)" />
    <radialGradient
       inkscape:collect="always"
       xlink:href="#linearGradient14446"
       id="radialGradient14473"
       gradientUnits="userSpaceOnUse"
       gradientTransform="matrix(0.60056277,1.0402051,-1.0123896,0.58450339,1057.1476,420.04804)"
       cx="9.4423981"
       cy="1039.3258"
       fx="9.4423981"
       fy="1039.3258"
       r="9.0000105" />
    <linearGradient
       inkscape:collect="always"
       xlink:href="#linearGradient14454"
       id="linearGradient14475"
       gradientUnits="userSpaceOnUse"
       x1="6.3125"
       y1="1036.7997"
       x2="11.995301"
       y2="1046.6426" />
    <linearGradient
       inkscape:collect="always"
       xlink:href="#linearGradient14555"
       id="linearGradient14561"
       x1="5.6264505"
       y1="1038.324"
       x2="16.198761"
       y2="1047.6434"
       gradientUnits="userSpaceOnUse" />
  </defs>
  <sodipodi:namedview
     id="base"
     pagecolor="#ffffff"
     bordercolor="#666666"
     borderopacity="1.0"
     inkscape:pageopacity="0.0"
     inkscape:pageshadow="2"
     inkscape:zoom="5.6568542"
     inkscape:cx="-5.3528545"
     inkscape:cy="19.462301"
     inkscape:document-units="px"
     inkscape:current-layer="layer1"
     showgrid="false"
     units="px"
     inkscape:snap-bbox="true"
     inkscape:bbox-nodes="true"
     inkscape:object-nodes="true"
     inkscape:snap-intersection-paths="true"
     inkscape:snap-nodes="true"
     inkscape:snap-smooth-nodes="true"
     showguides="false"
     inkscape:guide-bbox="true">
    <inkscape:grid
       type="xygrid"
       id="grid4136"
       empspacing="12"
       originx="0"
       originy="0" />
    <sodipodi:guide
       position="9.5,7"
       orientation="0,1"
       id="guide5909"
       inkscape:label=""
       inkscape:color="rgb(0,0,255)" />
    <sodipodi:guide
       position="14,4.5"
       orientation="1,0"
       id="guide5911"
       inkscape:label=""
       inkscape:color="rgb(0,0,255)" />
    <sodipodi:guide
       position="-27,19"
       orientation="1,0"
       id="guide15328" />
    <sodipodi:guide
       position="-13,11"
       orientation="0,1"
       id="guide15330" />
  </sodipodi:namedview>
  <metadata
     id="metadata7">
    <rdf:RDF>
      <cc:Work
         rdf:about="">
        <dc:format>image/svg+xml</dc:format>
        <dc:type
           rdf:resource="http://purl.org/dc/dcmitype/StillImage" />
        <dc:title></dc:title>
      </cc:Work>
    </rdf:RDF>
  </metadata>
  <g
     inkscape:label="Ebene 1"
     inkscape:groupmode="layer"
     id="layer1"
     transform="translate(0,-1028.3622)">
    <g
       id="g7894">
      <rect
         width="9"
         height="2"
         x="9"
         y="1049.3622"
         id="rect2879"
         style="display:inline;overflow:visible;visibility:visible;opacity:0.15;fill:url(#linearGradient4218);fill-opacity:1;fill-rule:nonzero;stroke:none;stroke-width:1;marker:none" />
      <path
         d="m 9,1049.3622 c 0,0 0,1.9999 0,1.9999 -0.806615,0 -1.950002,-0.4481 -1.950002,-1.0001 0,-0.552 0.900121,-0.9998 1.950002,-0.9998 z"
         inkscape:connector-curvature="0"
         id="path2881"
         style="display:inline;overflow:visible;visibility:visible;opacity:0.15;fill:url(#radialGradient3048-2);fill-opacity:1;fill-rule:nonzero;stroke:none;stroke-width:1;marker:none" />
      <path
         d="m 18,1049.3623 c 0,0 0,1.9999 0,1.9999 0.806614,0 1.950002,-0.4481 1.950002,-1.0001 0,-0.552 -0.900122,-0.9998 -1.950002,-0.9998 z"
         inkscape:connector-curvature="0"
         id="path2883"
         style="display:inline;overflow:visible;visibility:visible;opacity:0.15;fill:url(#radialGradient3045-5);fill-opacity:1;fill-rule:nonzero;stroke:none;stroke-width:1;marker:none" />
    </g>
    <path
       sodipodi:nodetypes="cscccscccscccsccsccscc"
       inkscape:connector-curvature="0"
       id="path14440"
       d="m -16.5,1035.8622 c 0,0 0,-2 1.5,-2 1.5,0 1.5,2 1.5,2 l 0,5 0,-7 c 0,0 0,-2 1.5,-2 1.5,0 1.5,2 1.5,2 l 0,7 0,-5 c 0,0 0,-2 1.5,-2 1.5,0 1.5,2 1.5,2 l 0,5 0,-2 c 0,0 0,-2 1.5,-2 1.5,0 1.5,2 1.5,2 l 0,5 c -3e-6,3.3137 -2.686294,6 -6,6 -3,0 -5,-2 -7,-4 l -4,-4 c 0,0 0,-1 2,-1 1,0 3,2 3,2 z"
       style="opacity:1;fill:url(#radialGradient14442);fill-opacity:1;fill-rule:evenodd;stroke:url(#linearGradient14444);stroke-width:1;stroke-linecap:round;stroke-linejoin:round;stroke-miterlimit:4;stroke-dasharray:none;stroke-dashoffset:0;stroke-opacity:1" />
    <path
       sodipodi:nodetypes="cscccscccscccsccsccscc"
       inkscape:connector-curvature="0"
       id="path14471"
       d="m 7.5,1035.8622 c 0,0 0,-2 1.5,-2 1.5,0 1.5,2 1.5,2 l 0,5 0,-7 c 0,0 0,-2 1.5,-2 1.5,0 1.5,2 1.5,2 l 0,7 0,-5 c 0,0 0,-2 1.5,-2 1.5,0 1.5,2 1.5,2 l 0,5 0,-2 c 0,0 0,-2 1.5,-2 1.5,0 1.5,2 1.5,2 l 0,5 c -3e-6,3.3137 -2.686294,6 -6,6 -3,0 -5,-2 -7,-4 l -4,-4 c 0,0 0,-1 2,-1 1,0 3,2 3,2 z"
       style="opacity:1;fill:url(#radialGradient14473);fill-opacity:1;fill-rule:evenodd;stroke:url(#linearGradient14475);stroke-width:1;stroke-linecap:round;stroke-linejoin:round;stroke-miterlimit:4;stroke-dasharray:none;stroke-dashoffset:0;stroke-opacity:1" />
    <path
       style="color:#000000;font-style:normal;font-variant:normal;font-weight:normal;font-stretch:normal;font-size:medium;line-height:normal;font-family:sans-serif;text-indent:0;text-align:start;text-decoration:none;text-decoration-line:none;text-decoration-style:solid;text-decoration-color:#000000;letter-spacing:normal;word-spacing:normal;text-transform:none;direction:ltr;block-progression:tb;writing-mode:lr-tb;baseline-shift:baseline;text-anchor:start;white-space:normal;clip-rule:nonzero;display:inline;overflow:visible;visibility:visible;opacity:0.6;isolation:auto;mix-blend-mode:normal;color-interpolation:sRGB;color-interpolation-filters:linearRGB;solid-color:#000000;solid-opacity:1;fill:url(#linearGradient14561);fill-opacity:1;fill-rule:evenodd;stroke:none;stroke-width:4;stroke-linecap:round;stroke-linejoin:round;stroke-miterlimit:4;stroke-dasharray:none;stroke-dashoffset:0;stroke-opacity:1;color-rendering:auto;image-rendering:auto;shape-rendering:auto;text-rendering:auto;enable-background:accumulate"
       d="m 12,1032.3622 c -0.263889,0 -0.406692,0.073 -0.535156,0.1875 -0.128465,0.1142 -0.234084,0.2896 -0.308594,0.4883 C 11.0072,1033.4354 11,1033.8622 11,1033.8622 l 0,2 0,5 0.5,0 1,0 0.5,0 0,-5 0,-2 c 0,0 -0.0072,-0.4268 -0.15625,-0.8242 -0.07451,-0.1987 -0.180129,-0.3741 -0.308594,-0.4883 -0.128464,-0.1145 -0.271267,-0.1875 -0.535156,-0.1875 z m -3,2 c -0.263889,0 -0.406692,0.073 -0.535156,0.1875 -0.128465,0.1142 -0.234084,0.2896 -0.308594,0.4883 C 8.0072,1035.4354 8,1035.8622 8,1035.8622 l 0,7 c -1.74e-4,0.4453 -0.538519,0.6683 -0.853516,0.3535 0,0 -0.484378,-0.4833 -1.083984,-0.9629 -0.299803,-0.2399 -0.627417,-0.4755 -0.919922,-0.6426 -0.292505,-0.1671 -0.559248,-0.248 -0.642578,-0.248 -0.916667,0 -1.264336,0.2214 -1.396484,0.3535 -0.01148,0.011 -0.0086,0.015 -0.01758,0.025 l 3.767578,3.7676 c 2,2 3.868706,3.8535 6.646484,3.8535 3.043485,0 5.499997,-2.4565 5.5,-5.5 l 0,-5 c 0,0 -0.0072,-0.4268 -0.15625,-0.8242 -0.07451,-0.1987 -0.180127,-0.3741 -0.308592,-0.4883 -0.128464,-0.1145 -0.271267,-0.1875 -0.535156,-0.1875 -0.263889,0 -0.406692,0.073 -0.535156,0.1875 -0.128465,0.1142 -0.234084,0.2896 -0.308594,0.4883 C 17.0072,1038.4354 17,1038.8622 17,1038.8622 l 0,2 0.5,0 0,3 c -2e-6,2.2328 -1.767178,4 -4,4 -1.99277,0 -3.441604,-1.3153 -5.277344,-3.1387 0.768674,-0.2979 1.275824,-1.0369 1.277344,-1.8613 l 0,-2 0.5,0 0,-5 c 0,0 -0.0072,-0.4268 -0.15625,-0.8242 -0.07451,-0.1987 -0.180129,-0.3741 -0.308594,-0.4883 C 9.406692,1034.4352 9.263889,1034.3622 9,1034.3622 Z m 6,0 c -0.263889,0 -0.406692,0.073 -0.535156,0.1875 -0.128465,0.1142 -0.234084,0.2896 -0.308594,0.4883 C 14.0072,1035.4354 14,1035.8622 14,1035.8622 l 0,5 0.5,0 1,0 0.5,0 0,-2 0,-3 c 0,0 -0.0072,-0.4268 -0.15625,-0.8242 -0.07451,-0.1987 -0.180129,-0.3741 -0.308594,-0.4883 -0.128464,-0.1145 -0.271267,-0.1875 -0.535156,-0.1875 z"
       id="path14538"
       inkscape:connector-curvature="0"
       sodipodi:nodetypes="sscccccccccscssscccccssccssscscssccccsscccccscsssccccccccscs" />
  </g>
</svg>
