<?xml version="1.0" encoding="UTF-8" standalone="no"?>
<!-- Created with Inkscape (http://www.inkscape.org/) -->

<svg
   xmlns:dc="http://purl.org/dc/elements/1.1/"
   xmlns:cc="http://creativecommons.org/ns#"
   xmlns:rdf="http://www.w3.org/1999/02/22-rdf-syntax-ns#"
   xmlns:svg="http://www.w3.org/2000/svg"
   xmlns="http://www.w3.org/2000/svg"
   xmlns:xlink="http://www.w3.org/1999/xlink"
   xmlns:sodipodi="http://sodipodi.sourceforge.net/DTD/sodipodi-0.dtd"
   xmlns:inkscape="http://www.inkscape.org/namespaces/inkscape"
   width="24"
   height="24"
   viewBox="0 0 24.000001 24.000001"
   id="svg2"
   version="1.1"
   inkscape:version="0.91 r13725"
   inkscape:export-filename="C:\Users\Lutz\Desktop\qthandles-icons\view-axes.png"
   inkscape:export-xdpi="90"
   inkscape:export-ydpi="90"
   sodipodi:docname="view-axes.svg">
  <defs
     id="defs4">
    <linearGradient
       id="linearGradient6425"
       inkscape:collect="always">
      <stop
         id="stop6427"
         offset="0"
         style="stop-color:#689fd9;stop-opacity:1" />
      <stop
         id="stop6429"
         offset="1"
         style="stop-color:#19498e;stop-opacity:1" />
    </linearGradient>
    <linearGradient
       id="linearGradient6336">
      <stop
         offset="0"
         style="stop-color:#ffffff;stop-opacity:1"
         id="stop6338" />
      <stop
         offset="0.07003769"
         style="stop-color:#ffffff;stop-opacity:0.23529412"
         id="stop6340" />
      <stop
         offset="0.93496537"
         style="stop-color:#ffffff;stop-opacity:0.15686275"
         id="stop6342" />
      <stop
         offset="1"
         style="stop-color:#ffffff;stop-opacity:0.6"
         id="stop6344" />
    </linearGradient>
    <linearGradient
       id="linearGradient3600-4">
      <stop
         id="stop3602-7"
         style="stop-color:#ffffff;stop-opacity:1"
         offset="0" />
      <stop
         offset="0.5930329"
         style="stop-color:#fcfdfe;stop-opacity:1"
         id="stop8523" />
      <stop
         id="stop3604-6"
         style="stop-color:#e7ecf7;stop-opacity:1"
         offset="1" />
    </linearGradient>
    <linearGradient
       id="linearGradient3104-5">
      <stop
         id="stop3106-6"
         style="stop-color:#a0a0a0;stop-opacity:1"
         offset="0" />
      <stop
         id="stop3108-9"
         style="stop-color:#bebebe;stop-opacity:1"
         offset="1" />
    </linearGradient>
    <linearGradient
       id="linearGradient5048">
      <stop
         id="stop5050"
         style="stop-color:#000000;stop-opacity:0"
         offset="0" />
      <stop
         id="stop5056"
         style="stop-color:#000000;stop-opacity:1"
         offset="0.5" />
      <stop
         id="stop5052"
         style="stop-color:#000000;stop-opacity:0"
         offset="1" />
    </linearGradient>
    <linearGradient
       id="linearGradient5060">
      <stop
         id="stop5062"
         style="stop-color:#000000;stop-opacity:1"
         offset="0" />
      <stop
         id="stop5064"
         style="stop-color:#000000;stop-opacity:0"
         offset="1" />
    </linearGradient>
    <linearGradient
       inkscape:collect="always"
       xlink:href="#linearGradient3104-5"
       id="linearGradient6476"
       gradientUnits="userSpaceOnUse"
       gradientTransform="matrix(1.2666674,0,0,1.2666665,-43.733355,-287.56296)"
       x1="44"
       y1="1056.3622"
       x2="44"
       y2="1040.3622" />
    <linearGradient
       inkscape:collect="always"
       xlink:href="#linearGradient5048"
       id="linearGradient6478"
       gradientUnits="userSpaceOnUse"
       gradientTransform="matrix(0.03727811,0,0,0.00823529,-1.4733734,1046.3427)"
       x1="302.85715"
       y1="366.64789"
       x2="302.85715"
       y2="609.50507" />
    <radialGradient
       inkscape:collect="always"
       xlink:href="#linearGradient5060"
       id="radialGradient6480"
       gradientUnits="userSpaceOnUse"
       gradientTransform="matrix(-0.01566318,0,0,0.00823529,12.439577,1046.3427)"
       cx="605.71429"
       cy="486.64789"
       fx="605.71429"
       fy="486.64789"
       r="117.14286" />
    <radialGradient
       inkscape:collect="always"
       xlink:href="#linearGradient5060"
       id="radialGradient6482"
       gradientUnits="userSpaceOnUse"
       gradientTransform="matrix(0.01566318,0,0,0.00823529,11.560423,1046.3428)"
       cx="605.71429"
       cy="486.64789"
       fx="605.71429"
       fy="486.64789"
       r="117.14286" />
    <linearGradient
       inkscape:collect="always"
       xlink:href="#linearGradient6336"
       id="linearGradient6484"
       gradientUnits="userSpaceOnUse"
       gradientTransform="translate(1028.3622,-1052.3622)"
       x1="3.5000002"
       y1="1040.3622"
       x2="20.500002"
       y2="1040.3622" />
    <linearGradient
       inkscape:collect="always"
       xlink:href="#linearGradient6425"
       id="linearGradient6486"
       gradientUnits="userSpaceOnUse"
       gradientTransform="translate(0.99999981,-0.9997)"
       x1="11.4375"
       y1="1032.2997"
       x2="11.4375"
       y2="1048.4247" />
    <radialGradient
       inkscape:collect="always"
       xlink:href="#linearGradient3600-4"
       id="radialGradient8519"
       cx="6.8718562"
       cy="1037.962"
       fx="6.8718562"
       fy="1037.962"
       r="10.000001"
       gradientTransform="matrix(1.2031696,1.2031696,-1.2031696,1.2031696,1246.5764,-221.75023)"
       gradientUnits="userSpaceOnUse" />
  </defs>
  <sodipodi:namedview
     id="base"
     pagecolor="#ffffff"
     bordercolor="#666666"
     borderopacity="1.0"
     inkscape:pageopacity="0.0"
     inkscape:pageshadow="2"
     inkscape:zoom="16"
     inkscape:cx="10.831375"
     inkscape:cy="4.8435583"
     inkscape:document-units="px"
     inkscape:current-layer="layer1"
     showgrid="false"
     units="px"
     inkscape:snap-nodes="true"
     inkscape:snap-bbox="true"
     inkscape:bbox-nodes="true"
     showguides="false"
     inkscape:object-nodes="true">
    <inkscape:grid
       type="xygrid"
       id="grid4136"
       empspacing="12" />
  </sodipodi:namedview>
  <metadata
     id="metadata7">
    <rdf:RDF>
      <cc:Work
         rdf:about="">
        <dc:format>image/svg+xml</dc:format>
        <dc:type
           rdf:resource="http://purl.org/dc/dcmitype/StillImage" />
        <dc:title />
      </cc:Work>
    </rdf:RDF>
  </metadata>
  <g
     inkscape:label="Ebene 1"
     inkscape:groupmode="layer"
     id="layer1"
     transform="translate(0,-1028.3622)">
    <g
       id="g6462">
      <rect
         style="display:inline;overflow:visible;visibility:visible;opacity:0.15;fill:url(#linearGradient6478);fill-opacity:1;fill-rule:nonzero;stroke:none;stroke-width:1;marker:none"
         id="rect6464"
         y="1049.3622"
         x="3.0000002"
         height="2"
         width="18.000002" />
      <path
         style="display:inline;overflow:visible;visibility:visible;opacity:0.15;fill:url(#radialGradient6480);fill-opacity:1;fill-rule:nonzero;stroke:none;stroke-width:1;marker:none"
         id="path6466"
         inkscape:connector-curvature="0"
         d="m 3.0000002,1049.3622 c 0,0 0,1.9999 0,1.9999 -0.806615,0 -1.950002,-0.4481 -1.950002,-1.0001 0,-0.552 0.900121,-0.9998 1.950002,-0.9998 z" />
      <path
         style="display:inline;overflow:visible;visibility:visible;opacity:0.15;fill:url(#radialGradient6482);fill-opacity:1;fill-rule:nonzero;stroke:none;stroke-width:1;marker:none"
         id="path6468"
         inkscape:connector-curvature="0"
         d="m 21.000001,1049.3623 c 0,0 0,1.9999 0,1.9999 0.806614,0 1.950002,-0.4481 1.950002,-1.0001 0,-0.552 -0.900122,-0.9998 -1.950002,-0.9998 z" />
    </g>
    <rect
       style="opacity:1;fill:url(#radialGradient8519);fill-opacity:1;fill-rule:evenodd;stroke:url(#linearGradient6476);stroke-width:0.99999988;stroke-linecap:butt;stroke-linejoin:round;stroke-miterlimit:4;stroke-dasharray:none;stroke-dashoffset:0;stroke-opacity:1"
       id="rect6460"
       width="19.000002"
       height="19.000017"
       x="2.5000007"
       y="1030.8622"
       ry="1.5000176"
       inkscape:export-xdpi="90"
       inkscape:export-ydpi="90" />
    <rect
       transform="matrix(0,1,-1,0,0,0)"
       inkscape:export-ydpi="90"
       inkscape:export-xdpi="90"
       ry="0.50000834"
       y="-20.50001"
       x="1031.8622"
       height="17.000019"
       width="17.000002"
       id="rect6470"
       style="opacity:1;fill:none;fill-opacity:1;fill-rule:evenodd;stroke:url(#linearGradient6484);stroke-width:1.00000012;stroke-linecap:butt;stroke-linejoin:miter;stroke-miterlimit:4;stroke-dasharray:none;stroke-dashoffset:0;stroke-opacity:1" />
    <path
       id="path6330"
       d="m 5.0000008,1034.3622 0,1 0,1 0,2 0,1 0,2 0,1 0,2 0,1 0,2 0,1 13.9999992,0 0,-1 -1,0 0,-1 -1,0 0,1 -2,0 0,-1 -1,0 0,1 -2,0 0,-1 -1,0 0,1 -1.9999992,0 0,-1 -1,0 0,1 -2,0 0,-2 1,0 0,-1 -1,0 0,-2 1,0 0,-1 -1,0 0,-2 1,0 0,-1 -1,0 0,-2 1,0 0,-1 -1,0 0,-1 -1,0 z"
       style="opacity:0.95;fill:#ffffff;fill-opacity:1;fill-rule:evenodd;stroke:none;stroke-width:1;stroke-linecap:butt;stroke-linejoin:miter;stroke-miterlimit:4;stroke-dasharray:none;stroke-dashoffset:0;stroke-opacity:1"
       inkscape:connector-curvature="0" />
    <path
       style="opacity:1;fill:url(#linearGradient6486);fill-opacity:1.0;fill-rule:evenodd;stroke:none;stroke-width:1;stroke-linecap:butt;stroke-linejoin:miter;stroke-miterlimit:4;stroke-dasharray:none;stroke-dashoffset:0;stroke-opacity:1"
       d="m 4.9999998,1033.3622 0,1 0,1 0,2 0,1 0,2 0,1 0,2 0,1 0,2 0,1 14.0000002,0 0,-1 -1,0 0,-1 -1,0 0,1 -2,0 0,-1 -1,0 0,1 -2,0 0,-1 -1,0 0,1 -2.0000002,0 0,-1 -1,0 0,1 -2,0 0,-2 1,0 0,-1 -1,0 0,-2 1,0 0,-1 -1,0 0,-2 1,0 0,-1 -1,0 0,-2 1,0 0,-1 -1,0 0,-1 -1,0 z"
       id="path6472"
       inkscape:connector-curvature="0" />
  </g>
</svg>
