<?xml version="1.0" encoding="UTF-8" standalone="no"?>
<!-- Created with Inkscape (http://www.inkscape.org/) -->

<svg
   xmlns:dc="http://purl.org/dc/elements/1.1/"
   xmlns:cc="http://creativecommons.org/ns#"
   xmlns:rdf="http://www.w3.org/1999/02/22-rdf-syntax-ns#"
   xmlns:svg="http://www.w3.org/2000/svg"
   xmlns="http://www.w3.org/2000/svg"
   xmlns:xlink="http://www.w3.org/1999/xlink"
   xmlns:sodipodi="http://sodipodi.sourceforge.net/DTD/sodipodi-0.dtd"
   xmlns:inkscape="http://www.inkscape.org/namespaces/inkscape"
   width="24"
   height="24"
   viewBox="0 0 24 24"
   id="svg15544"
   version="1.1"
   inkscape:version="0.91 r13725"
   inkscape:export-filename="C:\Users\Lutz\Desktop\qthandles-icons\view-rotate.png"
   inkscape:export-xdpi="90"
   inkscape:export-ydpi="90"
   sodipodi:docname="view-rotate.svg">
  <sodipodi:namedview
     id="base"
     pagecolor="#ffffff"
     bordercolor="#666666"
     borderopacity="1.0"
     inkscape:pageopacity="0.0"
     inkscape:pageshadow="2"
     inkscape:zoom="11.313708"
     inkscape:cx="-6.1971459"
     inkscape:cy="14.857848"
     inkscape:document-units="px"
     inkscape:current-layer="layer1"
     showgrid="true"
     units="px"
     inkscape:snap-bbox="true"
     inkscape:snap-nodes="false"
     inkscape:bbox-nodes="true"
     inkscape:object-nodes="true"
     inkscape:snap-grids="true"
     showguides="false"
     inkscape:snap-global="true">
    <inkscape:grid
       type="xygrid"
       id="grid16115"
       empspacing="12" />
  </sodipodi:namedview>
  <defs
     id="defs15546">
    <linearGradient
       id="linearGradient11259">
      <stop
         offset="0"
         style="stop-color:#99a7bb;stop-opacity:1"
         id="stop11261" />
      <stop
         offset="1"
         style="stop-color:#596d80;stop-opacity:1"
         id="stop11263" />
    </linearGradient>
    <radialGradient
       inkscape:collect="always"
       xlink:href="#linearGradient3600-4"
       id="radialGradient15468"
       cx="60.172421"
       cy="1029.0743"
       fx="60.172421"
       fy="1029.0743"
       r="4.5"
       gradientTransform="matrix(0.48575265,0.84134826,-0.99426771,0.57404149,1003.3216,394.3798)"
       gradientUnits="userSpaceOnUse" />
    <linearGradient
       id="linearGradient3600-4">
      <stop
         id="stop3602-7"
         style="stop-color:#ffffff;stop-opacity:1"
         offset="0" />
      <stop
         offset="0.5930329"
         style="stop-color:#fcfdfe;stop-opacity:1"
         id="stop8523" />
      <stop
         id="stop3604-6"
         style="stop-color:#e7ecf7;stop-opacity:1"
         offset="1" />
    </linearGradient>
    <linearGradient
       inkscape:collect="always"
       xlink:href="#linearGradient11259"
       id="linearGradient17177"
       gradientUnits="userSpaceOnUse"
       gradientTransform="matrix(1.6249966,0,0,1.6250003,-89.5623,-635.1642)"
       x1="59.866665"
       y1="1027.0288"
       x2="63.35384"
       y2="1031.2955" />
    <linearGradient
       x1="302.85715"
       y1="366.64789"
       x2="302.85715"
       y2="609.50507"
       id="linearGradient4218"
       xlink:href="#linearGradient5048"
       gradientUnits="userSpaceOnUse"
       gradientTransform="matrix(0.01242604,0,0,0.00823529,7.5088754,1041.3427)" />
    <linearGradient
       id="linearGradient5048">
      <stop
         id="stop5050"
         style="stop-color:#000000;stop-opacity:0"
         offset="0" />
      <stop
         id="stop5056"
         style="stop-color:#000000;stop-opacity:1"
         offset="0.5" />
      <stop
         id="stop5052"
         style="stop-color:#000000;stop-opacity:0"
         offset="1" />
    </linearGradient>
    <radialGradient
       cx="605.71429"
       cy="486.64789"
       r="117.14286"
       fx="605.71429"
       fy="486.64789"
       id="radialGradient3048-2"
       xlink:href="#linearGradient5060"
       gradientUnits="userSpaceOnUse"
       gradientTransform="matrix(-0.01566318,0,0,0.00823529,18.439577,1041.3428)" />
    <linearGradient
       id="linearGradient5060">
      <stop
         id="stop5062"
         style="stop-color:#000000;stop-opacity:1"
         offset="0" />
      <stop
         id="stop5064"
         style="stop-color:#000000;stop-opacity:0"
         offset="1" />
    </linearGradient>
    <radialGradient
       cx="605.71429"
       cy="486.64789"
       r="117.14286"
       fx="605.71429"
       fy="486.64789"
       id="radialGradient3045-5"
       xlink:href="#linearGradient5060"
       gradientUnits="userSpaceOnUse"
       gradientTransform="matrix(0.01566318,0,0,0.00823529,5.5604224,1041.3428)" />
    <linearGradient
       inkscape:collect="always"
       id="linearGradient14454">
      <stop
         style="stop-color:#a99d70;stop-opacity:1"
         offset="0"
         id="stop14456" />
      <stop
         style="stop-color:#46382a;stop-opacity:1"
         offset="1"
         id="stop14458" />
    </linearGradient>
    <linearGradient
       id="linearGradient14446">
      <stop
         id="stop14448"
         style="stop-color:#ffefb9;stop-opacity:1"
         offset="0" />
      <stop
         offset="0.69121122"
         style="stop-color:#f0d880;stop-opacity:1"
         id="stop14450" />
      <stop
         id="stop14452"
         style="stop-color:#d0a840;stop-opacity:1"
         offset="1" />
    </linearGradient>
    <radialGradient
       inkscape:collect="always"
       xlink:href="#linearGradient14446"
       id="radialGradient11171"
       gradientUnits="userSpaceOnUse"
       gradientTransform="matrix(0.60374228,1.0457091,-1.2357722,0.71347654,1224.7479,238.59388)"
       cx="60.172421"
       cy="1029.0743"
       fx="60.172421"
       fy="1029.0743"
       r="4.5" />
    <linearGradient
       inkscape:collect="always"
       xlink:href="#linearGradient14454"
       id="linearGradient11227"
       x1="-136.90996"
       y1="-1020.4707"
       x2="-136.76933"
       y2="-1035.9528"
       gradientUnits="userSpaceOnUse" />
    <linearGradient
       inkscape:collect="always"
       xlink:href="#linearGradient8647-7"
       id="linearGradient15524-5"
       gradientUnits="userSpaceOnUse"
       gradientTransform="matrix(2.1250001,0,0,1.3750086,-120.81251,-372.7092)"
       x1="60.98431"
       y1="1033.8015"
       x2="65.229408"
       y2="1028.4319" />
    <linearGradient
       inkscape:collect="always"
       id="linearGradient8647-7">
      <stop
         style="stop-color:#408bc4;stop-opacity:1"
         offset="0"
         id="stop8649-8" />
      <stop
         style="stop-color:#062f68;stop-opacity:1"
         offset="1"
         id="stop8651-1" />
    </linearGradient>
  </defs>
  <metadata
     id="metadata15549">
    <rdf:RDF>
      <cc:Work
         rdf:about="">
        <dc:format>image/svg+xml</dc:format>
        <dc:type
           rdf:resource="http://purl.org/dc/dcmitype/StillImage" />
        <dc:title></dc:title>
      </cc:Work>
    </rdf:RDF>
  </metadata>
  <g
     inkscape:label="Ebene 1"
     inkscape:groupmode="layer"
     id="layer1"
     transform="translate(0,-1028.3622)">
    <path
       style="color:#000000;font-style:normal;font-variant:normal;font-weight:normal;font-stretch:normal;font-size:medium;line-height:normal;font-family:sans-serif;text-indent:0;text-align:start;text-decoration:none;text-decoration-line:none;text-decoration-style:solid;text-decoration-color:#000000;letter-spacing:normal;word-spacing:normal;text-transform:none;direction:ltr;block-progression:tb;writing-mode:lr-tb;baseline-shift:baseline;text-anchor:start;white-space:normal;clip-rule:nonzero;display:inline;overflow:visible;visibility:visible;opacity:0.87900002;isolation:auto;mix-blend-mode:normal;color-interpolation:sRGB;color-interpolation-filters:linearRGB;solid-color:#000000;solid-opacity:1;fill:#ffffff;fill-opacity:1;fill-rule:evenodd;stroke:none;stroke-width:1.99999988;stroke-linecap:butt;stroke-linejoin:miter;stroke-miterlimit:4;stroke-dasharray:none;stroke-dashoffset:0;stroke-opacity:1;color-rendering:auto;image-rendering:auto;shape-rendering:auto;text-rendering:auto;enable-background:accumulate"
       d="m 26.035156,1057.7216 c -0.297678,0.1535 -0.587433,0.3149 -0.861328,0.4922 -0.407984,0.2639 -0.786602,0.5631 -1.136719,0.8867 0.114862,1.2417 0.52085,2.3985 1.140625,3.4121 0.223646,-0.5519 0.690777,-1.0949 1.394532,-1.5996 C 26.209557,1060.1388 26,1059.2771 26,1058.3622 c 0,-0.216 0.01314,-0.4306 0.03516,-0.6406 z m 11.929688,0 c 0.02202,0.21 0.03516,0.4246 0.03516,0.6406 0,0.9149 -0.209557,1.7766 -0.572266,2.5508 0.703756,0.5047 1.170886,1.0477 1.394532,1.5996 0.619775,-1.0136 1.025763,-2.1704 1.140625,-3.4121 -0.350117,-0.3236 -0.728735,-0.6228 -1.136719,-0.8867 -0.273895,-0.1773 -0.56365,-0.3387 -0.861328,-0.4922 z m -1.71875,4.8867 c -0.369398,0.3692 -0.790262,0.6865 -1.246094,0.9492 l 0,2.2149 c 0.999497,-0.4068 1.900696,-1.0062 2.652344,-1.7579 l -1.404297,-1.4062 -0.002,0 z m -5.847656,5.2129 c -0.0041,0 -0.0076,0.014 -0.01172,0.014 a 1.5,1.51 0 0 1 0.01172,-0.014 z m -0.289063,0.459 c -0.005,0.012 -0.0091,0.024 -0.01367,0.037 a 1.5,1.51 0 0 1 0.01367,-0.037 z m -0.08398,0.832 c 0.0018,0.01 0.0039,0.019 0.0059,0.029 a 1.5,1.51 0 0 1 -0.0059,-0.029 z m 0.349609,0.7246 c 0.0037,0 0.006,0.014 0.0098,0.014 a 1.5,1.51 0 0 1 -0.0098,-0.014 z m 0.414062,0.334 c 0.01154,0.01 0.02344,0.01 0.03516,0.018 a 1.5,1.51 0 0 1 -0.03516,-0.018 z"
       id="ellipse19812"
       inkscape:connector-curvature="0" />
    <g
       id="g17418">
      <rect
         width="6"
         height="2"
         x="9"
         y="1044.3622"
         id="rect2879"
         style="display:inline;overflow:visible;visibility:visible;opacity:0.15;fill:url(#linearGradient4218);fill-opacity:1;fill-rule:nonzero;stroke:none;stroke-width:1;marker:none" />
      <path
         d="m 9,1044.3623 c 0,0 0,1.9999 0,1.9999 -0.806615,0 -1.950002,-0.4481 -1.950002,-1.0001 0,-0.552 0.900121,-0.9998 1.950002,-0.9998 z"
         inkscape:connector-curvature="0"
         id="path2881"
         style="display:inline;overflow:visible;visibility:visible;opacity:0.15;fill:url(#radialGradient3048-2);fill-opacity:1;fill-rule:nonzero;stroke:none;stroke-width:1;marker:none" />
      <path
         d="m 15,1044.3623 c 0,0 0,1.9999 0,1.9999 0.806614,0 1.950002,-0.4481 1.950002,-1.0001 0,-0.552 -0.900122,-0.9998 -1.950002,-0.9998 z"
         inkscape:connector-curvature="0"
         id="path2883"
         style="display:inline;overflow:visible;visibility:visible;opacity:0.15;fill:url(#radialGradient3045-5);fill-opacity:1;fill-rule:nonzero;stroke:none;stroke-width:1;marker:none" />
    </g>
    <ellipse
       style="opacity:1;fill:url(#radialGradient15468);fill-opacity:1.0;fill-rule:evenodd;stroke:none;stroke-width:1.99999988;stroke-linecap:butt;stroke-linejoin:miter;stroke-miterlimit:4;stroke-dasharray:none;stroke-dashoffset:0;stroke-opacity:1"
       id="path4138"
       cx="12"
       cy="1038.3622"
       rx="7.0000005"
       ry="6.9999924" />
    <path
       sodipodi:rx="2.6641574"
       sodipodi:ry="6.5238171"
       style="fill:none;stroke:#2c65b8;stroke-width:1;stroke-miterlimit:4;stroke-dasharray:3, 1;stroke-dashoffset:0;stroke-opacity:1"
       sodipodi:type="arc"
       sodipodi:open="true"
       sodipodi:start="1.5707963"
       sodipodi:end="4.712389"
       transform="matrix(0.99279613,0.11981586,-0.11982377,0.99279518,0,0)"
       sodipodi:cy="1034.2418"
       sodipodi:cx="96.647011"
       id="path20450"
       d="m 96.647011,1040.7656 a 2.6641574,6.5238171 0 0 1 -2.307228,-3.2619 2.6641574,6.5238171 0 0 1 0,-6.5238 2.6641574,6.5238171 0 0 1 2.307228,-3.2619" />
    <path
       sodipodi:rx="6.5240321"
       sodipodi:ry="1.6894192"
       style="fill:none;stroke:#2c65b8;stroke-width:1;stroke-miterlimit:4;stroke-dasharray:3, 1;stroke-dashoffset:0;stroke-opacity:1"
       sodipodi:type="arc"
       sodipodi:open="true"
       sodipodi:start="0"
       sodipodi:end="3.1415927"
       sodipodi:cy="1038.3701"
       sodipodi:cx="-27.975967"
       id="path20452"
       d="m -21.451935,1038.3701 a 6.5240321,1.6894192 0 0 1 -3.262016,1.4631 6.5240321,1.6894192 0 0 1 -6.524033,0 6.5240321,1.6894192 0 0 1 -3.262016,-1.4631" />
    <path
       style="color:#000000;font-style:normal;font-variant:normal;font-weight:normal;font-stretch:normal;font-size:medium;line-height:normal;font-family:sans-serif;text-indent:0;text-align:start;text-decoration:none;text-decoration-line:none;text-decoration-style:solid;text-decoration-color:#000000;letter-spacing:normal;word-spacing:normal;text-transform:none;direction:ltr;block-progression:tb;writing-mode:lr-tb;baseline-shift:baseline;text-anchor:start;white-space:normal;clip-rule:nonzero;display:inline;overflow:visible;visibility:visible;opacity:1;isolation:auto;mix-blend-mode:normal;color-interpolation:sRGB;color-interpolation-filters:linearRGB;solid-color:#000000;solid-opacity:1;fill:url(#linearGradient17177);fill-opacity:1.0;fill-rule:evenodd;stroke:none;stroke-width:1;stroke-linecap:butt;stroke-linejoin:miter;stroke-miterlimit:4;stroke-dasharray:none;stroke-dashoffset:0;stroke-opacity:1;color-rendering:auto;image-rendering:auto;shape-rendering:auto;text-rendering:auto;enable-background:accumulate"
       d="m 12,1031.3622 c -3.860063,0 -7,3.14 -7,7 0,0.048 0.0068,0.095 0.0078,0.1426 l -0.04102,0.01 0.05078,0.1954 c 0.160571,3.2377 2.523446,5.9045 5.623047,6.5175 l 0.07227,0.022 0.341797,0.098 0.01562,-0.055 c 0.305054,0.041 0.613652,0.07 0.929688,0.07 3.860063,0 7,-3.1399 7,-7 0,-3.86 -3.139937,-7 -7,-7 z m 0.714844,1.0449 c 2.97005,0.3512 5.266516,2.8597 5.283203,5.9219 l -0.01367,0.059 -0.06641,0.086 -0.185547,0.1407 -0.298828,0.1562 -0.957032,0.3262 -0.607421,0.1211 0.195312,0.9804 0.632813,-0.1269 0.03125,-0.012 0.03125,-0.01 1.027343,-0.3477 0.03711,-0.012 0.0293,-0.018 c -0.596712,2.6862 -2.984805,4.6895 -5.853516,4.6895 -0.338127,0 -0.667529,-0.036 -0.990234,-0.09 l -0.158204,-0.1016 -0.220703,-0.2344 -0.210937,-0.3359 -0.210938,-0.457 -0.169922,-0.5254 -0.03711,-0.1524 -0.974609,0.2207 0.04102,0.1778 0.0059,0.023 0.0059,0.022 0.193359,0.584 0.0098,0.027 0.0098,0.027 0.09766,0.2129 c -1.61752,-0.7813 -2.827452,-2.2621 -3.236328,-4.0566 l 0.01172,0 0.71875,0.2441 0.322265,-0.9472 -0.685547,-0.2324 -0.302734,-0.1582 -0.1875,-0.1446 -0.02734,-0.035 c -2.9e-4,-0.024 -0.0039,-0.048 -0.0039,-0.072 0,-2.9087 2.058071,-5.3269 4.800781,-5.8809 l -0.203125,0.2579 -0.01758,0.021 -0.01367,0.024 -0.328125,0.5234 -0.01172,0.02 -0.0098,0.022 -0.111328,0.2207 0.894531,0.4473 0.09961,-0.1973 0.296875,-0.4765 0.300782,-0.3828 0.298828,-0.2832 0.267578,-0.1758 0.232422,-0.08 0.21875,-0.01 0,0 z m -3.033203,2.1074 -0.06836,0.1719 -0.0059,0.014 -0.0059,0.018 -0.248046,0.7539 -0.0039,0.012 -0.0039,0.016 -0.208984,0.791 -0.0059,0.022 -0.0039,0.018 -0.207031,1.1934 0.984375,0.1718 0.205078,-1.1699 0.201172,-0.7656 0.002,-0.01 0.226562,-0.6914 0.0059,-0.014 0.0059,-0.017 0.05664,-0.1348 -0.925781,-0.377 z m -0.884766,4.0528 -0.05273,0.7715 -0.63086,-0.125 -0.195312,0.9902 0.699218,0.1387 0.02148,0 0.02148,0 0.06836,0.01 0.0039,0.2207 0.002,0.014 0,0.016 0.06055,0.791 0.002,0.018 0.002,0.016 0.03711,0.2422 0.988282,-0.1465 -0.03125,-0.207 -0.002,-0.02 -0.002,-0.016 -0.05664,-0.7246 0.002,-0.01 -0.002,-0.086 0.515625,0.055 0.01758,0 0.01953,0 0.691406,0.022 0.0332,-1 -0.65625,-0.022 -0.0098,0 -0.603516,-0.064 0.05469,-0.8164 -0.998047,-0.064 z m 6.132813,0.8144 -1.322266,0.1407 -0.0098,0 -1.623047,0.055 0.03516,1 1.658203,-0.057 0.01758,0 0.01953,0 1.332031,-0.1426 -0.107421,-0.9961 z"
       id="path17175"
       inkscape:connector-curvature="0" />
    <ellipse
       ry="6.9999924"
       rx="7.0000005"
       cy="1038.3622"
       cx="-8"
       id="ellipse11169"
       style="opacity:1;fill:url(#radialGradient11171);fill-opacity:1;fill-rule:evenodd;stroke:none;stroke-width:1.99999988;stroke-linecap:butt;stroke-linejoin:miter;stroke-miterlimit:4;stroke-dasharray:none;stroke-dashoffset:0;stroke-opacity:1" />
    <path
       d="m -136.07335,-1022.9248 a 2.6641574,6.5238171 0 0 1 -2.30723,-3.2619 2.6641574,6.5238171 0 0 1 0,-6.5238 2.6641574,6.5238171 0 0 1 2.30723,-3.2619"
       id="path17403"
       sodipodi:cx="-136.07335"
       sodipodi:cy="-1029.4486"
       transform="matrix(-0.99279613,-0.11981586,0.11982377,-0.99279518,0,0)"
       sodipodi:end="4.712389"
       sodipodi:start="1.5707963"
       sodipodi:open="true"
       sodipodi:type="arc"
       style="fill:none;stroke:url(#linearGradient11227);stroke-width:1;stroke-miterlimit:4;stroke-dasharray:3, 1;stroke-dashoffset:0;stroke-opacity:1;opacity:0.25"
       sodipodi:ry="6.5238171"
       sodipodi:rx="2.6641574" />
    <path
       style="color:#000000;font-style:normal;font-variant:normal;font-weight:normal;font-stretch:normal;font-size:medium;line-height:normal;font-family:sans-serif;text-indent:0;text-align:start;text-decoration:none;text-decoration-line:none;text-decoration-style:solid;text-decoration-color:#000000;letter-spacing:normal;word-spacing:normal;text-transform:none;direction:ltr;block-progression:tb;writing-mode:lr-tb;baseline-shift:baseline;text-anchor:start;white-space:normal;clip-rule:nonzero;display:inline;overflow:visible;visibility:visible;opacity:1;isolation:auto;mix-blend-mode:normal;color-interpolation:sRGB;color-interpolation-filters:linearRGB;solid-color:#000000;solid-opacity:1;fill:#ffffff;fill-opacity:1;fill-rule:evenodd;stroke:none;stroke-width:2;stroke-linecap:butt;stroke-linejoin:round;stroke-miterlimit:4;stroke-dasharray:none;stroke-dashoffset:0;stroke-opacity:1;color-rendering:auto;image-rendering:auto;shape-rendering:auto;text-rendering:auto;enable-background:accumulate"
       d="m 16.441406,1042.3895 c -0.659985,0.7286 -1.494472,1.2948 -2.441406,1.629 l 0,1.0488 c 1.222902,-0.3654 2.301567,-1.0586 3.144531,-1.9746 l -0.703125,-0.7032 z"
       id="rect11317"
       inkscape:connector-curvature="0" />
    <path
       style="color:#000000;font-style:normal;font-variant:normal;font-weight:normal;font-stretch:normal;font-size:medium;line-height:normal;font-family:sans-serif;text-indent:0;text-align:start;text-decoration:none;text-decoration-line:none;text-decoration-style:solid;text-decoration-color:#000000;letter-spacing:normal;word-spacing:normal;text-transform:none;direction:ltr;block-progression:tb;writing-mode:lr-tb;baseline-shift:baseline;text-anchor:start;white-space:normal;clip-rule:nonzero;display:inline;overflow:visible;visibility:visible;opacity:1;isolation:auto;mix-blend-mode:normal;color-interpolation:sRGB;color-interpolation-filters:linearRGB;solid-color:#000000;solid-opacity:1;fill:url(#linearGradient15524-5);fill-opacity:1.0;fill-rule:evenodd;stroke:none;stroke-width:3;stroke-linecap:butt;stroke-linejoin:miter;stroke-miterlimit:4;stroke-dasharray:none;stroke-dashoffset:0;stroke-opacity:1;color-rendering:auto;image-rendering:auto;shape-rendering:auto;text-rendering:auto;enable-background:accumulate"
       d="m 19.962891,1039.1005 c -0.114862,1.2417 -0.52085,2.3985 -1.140625,3.4121 0.114929,0.2839 0.177734,0.5684 0.177734,0.8496 0,0.6689 -0.314045,1.3586 -0.996094,2.002 L 15,1042.3602 l 0,8 8,0 -2.886719,-2.8867 C 21.249398,1046.3671 22,1044.9585 22,1043.3622 c 0,-1.6666 -0.817003,-3.133 -2.037109,-4.2617 z m -15.9257816,0 C 2.8170028,1040.2292 2,1041.6956 2,1043.3622 c 0,2.1452 1.3434679,3.9641 3.1738281,5.1484 1.8303602,1.1844 4.2166882,1.8516 6.8261719,1.8516 0.828425,0 1.499998,-0.6716 1.5,-1.5 -2e-6,-0.8284 -0.671575,-1.5 -1.5,-1.5 -0.0091,-10e-5 -0.01823,-10e-5 -0.02734,0 -2.0737571,-0.01 -3.9274482,-0.5685 -5.1679685,-1.3711 C 5.5586488,1045.1848 5,1044.2546 5,1043.3622 c 0,-0.2812 0.062805,-0.5657 0.1777344,-0.8496 -0.6197753,-1.0136 -1.0257632,-2.1704 -1.140625,-3.4121 z"
       id="ellipse15522-3"
       inkscape:connector-curvature="0"
       sodipodi:nodetypes="ccscccccsccscsscccscc" />
    <g
       id="g17114"
       transform="translate(-8.5,1037.8622)"
       inkscape:label="WireframeSphere">
      <g
         id="g17116"
         inkscape:label="Lines of Longitude">
        <path
           d="M 6.5655733e-8,6 A 2.4503074,6 0 0 1 -2.1220284,3.0000001 2.4503074,6 0 0 1 -2.1220284,-3 2.4503074,6 0 0 1 4.8063539e-8,-6"
           id="path17118"
           sodipodi:cx="0"
           sodipodi:cy="0"
           transform="matrix(0.99279565,0.11981982,-0.11981982,0.99279565,0,0)"
           sodipodi:end="4.712389"
           sodipodi:start="1.5707963"
           sodipodi:open="true"
           sodipodi:type="arc"
           style="fill:none;stroke:#000000;stroke-width:1"
           sodipodi:ry="6"
           sodipodi:rx="2.4503074" />
      </g>
      <g
         id="g17120"
         inkscape:label="Lines of Latitude">
        <path
           d="M 6,0 A 6,1.5539143 0 0 1 2.9999999,1.3457293 6,1.5539143 0 0 1 -3.0000002,1.3457292 6,1.5539143 0 0 1 -6,-7.2117484e-8"
           id="path17122"
           sodipodi:cx="0"
           sodipodi:cy="3.5487539e-016"
           sodipodi:end="3.1415927"
           sodipodi:start="0"
           sodipodi:open="true"
           sodipodi:type="arc"
           style="fill:none;stroke:#000000;stroke-width:1"
           sodipodi:ry="1.5539143"
           sodipodi:rx="6" />
      </g>
      <circle
         id="path17124"
         style="fill:none;stroke:#000000;stroke-width:1"
         cx="0"
         cy="0"
         r="6" />
    </g>
  </g>
</svg>
