<?xml version="1.0" encoding="UTF-8" standalone="no"?>
<!-- Created with Inkscape (http://www.inkscape.org/) -->

<svg
   xmlns:dc="http://purl.org/dc/elements/1.1/"
   xmlns:cc="http://creativecommons.org/ns#"
   xmlns:rdf="http://www.w3.org/1999/02/22-rdf-syntax-ns#"
   xmlns:svg="http://www.w3.org/2000/svg"
   xmlns="http://www.w3.org/2000/svg"
   xmlns:xlink="http://www.w3.org/1999/xlink"
   xmlns:sodipodi="http://sodipodi.sourceforge.net/DTD/sodipodi-0.dtd"
   xmlns:inkscape="http://www.inkscape.org/namespaces/inkscape"
   width="24"
   height="24"
   viewBox="0 0 24 24"
   id="svg6353"
   version="1.1"
   inkscape:version="0.91 r13725"
   inkscape:export-filename="C:\Users\Lutz\Desktop\qthandles-icons\zoom-y.png"
   inkscape:export-xdpi="90"
   inkscape:export-ydpi="90"
   sodipodi:docname="zoom-y.svg">
  <defs
     id="defs6355">
    <linearGradient
       inkscape:collect="always"
       id="linearGradient5509">
      <stop
         style="stop-color:#494b47;stop-opacity:1"
         offset="0"
         id="stop5511" />
      <stop
         id="stop5519"
         offset="0.10606515"
         style="stop-color:#797b76;stop-opacity:1" />
      <stop
         id="stop5517"
         offset="0.92555153"
         style="stop-color:#babdb6;stop-opacity:1" />
      <stop
         style="stop-color:#d3d7cf;stop-opacity:1"
         offset="1"
         id="stop5513" />
    </linearGradient>
    <linearGradient
       inkscape:collect="always"
       id="linearGradient10760">
      <stop
         style="stop-color:#ffffff;stop-opacity:1;"
         offset="0"
         id="stop10762" />
      <stop
         id="stop4888"
         offset="0.33333331"
         style="stop-color:#ffffff;stop-opacity:0.15686275" />
      <stop
         style="stop-color:#ffffff;stop-opacity:0.11372549;"
         offset="0.55200171"
         id="stop4894" />
      <stop
         style="stop-color:#ffffff;stop-opacity:0.09803922"
         offset="0.62489122"
         id="stop4890" />
      <stop
         id="stop4892"
         offset="0.8203125"
         style="stop-color:#ffffff;stop-opacity:0.03921569;" />
      <stop
         style="stop-color:#ffffff;stop-opacity:0;"
         offset="1"
         id="stop10764" />
    </linearGradient>
    <linearGradient
       inkscape:collect="always"
       id="linearGradient9817">
      <stop
         style="stop-color:#e7b464;stop-opacity:1"
         offset="0"
         id="stop9819" />
      <stop
         id="stop9827"
         offset="0.13469367"
         style="stop-color:#b87710;stop-opacity:1" />
      <stop
         id="stop9825"
         offset="0.86201411"
         style="stop-color:#9e6202;stop-opacity:1" />
      <stop
         style="stop-color:#815002;stop-opacity:1"
         offset="1"
         id="stop9821" />
    </linearGradient>
    <linearGradient
       id="linearGradient9680"
       inkscape:collect="always">
      <stop
         id="stop9682"
         offset="0"
         style="stop-color:#5f9ecd;stop-opacity:1" />
      <stop
         id="stop9684"
         offset="1"
         style="stop-color:#08408e;stop-opacity:1" />
    </linearGradient>
    <linearGradient
       inkscape:collect="always"
       id="linearGradient9666">
      <stop
         style="stop-color:#ffffff;stop-opacity:1"
         offset="0"
         id="stop9668" />
      <stop
         id="stop9676"
         offset="0.14745924"
         style="stop-color:#ffffff;stop-opacity:0.23529412" />
      <stop
         id="stop9674"
         offset="0.86193174"
         style="stop-color:#ffffff;stop-opacity:0.15686275" />
      <stop
         style="stop-color:#ffffff;stop-opacity:0.39215687"
         offset="1"
         id="stop9670" />
    </linearGradient>
    <linearGradient
       inkscape:collect="always"
       id="linearGradient9644">
      <stop
         style="stop-color:#f2fbff;stop-opacity:1"
         offset="0"
         id="stop9646" />
      <stop
         style="stop-color:#c9efff;stop-opacity:1"
         offset="1"
         id="stop9648" />
    </linearGradient>
    <linearGradient
       inkscape:collect="always"
       id="linearGradient7005">
      <stop
         style="stop-color:#ffffff;stop-opacity:1;"
         offset="0"
         id="stop7007" />
      <stop
         style="stop-color:#ffffff;stop-opacity:0;"
         offset="1"
         id="stop7009" />
    </linearGradient>
    <linearGradient
       inkscape:collect="always"
       id="linearGradient6997">
      <stop
         style="stop-color:#ffffff;stop-opacity:0.39215687"
         offset="0"
         id="stop6999" />
      <stop
         id="stop9815"
         offset="0.14861487"
         style="stop-color:#ffffff;stop-opacity:0.15686275" />
      <stop
         id="stop9813"
         offset="0.5"
         style="stop-color:#ffffff;stop-opacity:0.23529412" />
      <stop
         style="stop-color:#ffffff;stop-opacity:1"
         offset="1"
         id="stop7001" />
    </linearGradient>
    <linearGradient
       id="linearGradient5048">
      <stop
         id="stop5050"
         style="stop-color:#000000;stop-opacity:0"
         offset="0" />
      <stop
         id="stop5056"
         style="stop-color:#000000;stop-opacity:1"
         offset="0.5" />
      <stop
         id="stop5052"
         style="stop-color:#000000;stop-opacity:0"
         offset="1" />
    </linearGradient>
    <linearGradient
       id="linearGradient5060">
      <stop
         id="stop5062"
         style="stop-color:#000000;stop-opacity:1"
         offset="0" />
      <stop
         id="stop5064"
         style="stop-color:#000000;stop-opacity:0"
         offset="1" />
    </linearGradient>
    <linearGradient
       inkscape:collect="always"
       xlink:href="#linearGradient6997"
       id="linearGradient7003"
       x1="9"
       y1="14"
       x2="9"
       y2="3"
       gradientUnits="userSpaceOnUse"
       gradientTransform="matrix(0.70710678,-0.70710678,0.70710678,0.70710678,-43.727922,1037.3622)" />
    <linearGradient
       inkscape:collect="always"
       xlink:href="#linearGradient7005"
       id="linearGradient7011"
       x1="2.609375"
       y1="2.796875"
       x2="8.875"
       y2="9.0625"
       gradientUnits="userSpaceOnUse"
       gradientTransform="translate(-40,1028.3622)" />
    <linearGradient
       inkscape:collect="always"
       id="linearGradient8647-7">
      <stop
         style="stop-color:#408bc4;stop-opacity:1"
         offset="0"
         id="stop8649-8" />
      <stop
         style="stop-color:#062f68;stop-opacity:1"
         offset="1"
         id="stop8651-1" />
    </linearGradient>
    <linearGradient
       inkscape:collect="always"
       xlink:href="#linearGradient9680"
       id="linearGradient9619"
       x1="9"
       y1="1"
       x2="9"
       y2="17"
       gradientUnits="userSpaceOnUse"
       gradientTransform="translate(-40,1028.3622)" />
    <radialGradient
       inkscape:collect="always"
       xlink:href="#linearGradient9644"
       id="radialGradient9652"
       cx="9.0302782"
       cy="1035.6385"
       fx="9.0302782"
       fy="1035.6385"
       r="5"
       gradientUnits="userSpaceOnUse"
       gradientTransform="matrix(1.7515432,0,0,1.2000009,-46.76389,-207.47329)" />
    <linearGradient
       inkscape:collect="always"
       xlink:href="#linearGradient9666"
       id="linearGradient9672"
       x1="40"
       y1="1044.3622"
       x2="40"
       y2="1050.3622"
       gradientUnits="userSpaceOnUse"
       gradientTransform="translate(-795.44613,-322.46961)" />
    <linearGradient
       x1="302.85715"
       y1="366.64789"
       x2="302.85715"
       y2="609.50507"
       id="linearGradient3180"
       xlink:href="#linearGradient5048"
       gradientUnits="userSpaceOnUse"
       gradientTransform="matrix(0.00621302,0,0,0.00823529,17.254438,1046.3427)" />
    <radialGradient
       cx="605.71429"
       cy="486.64789"
       r="117.14286"
       fx="605.71429"
       fy="486.64789"
       id="radialGradient3048"
       xlink:href="#linearGradient5060"
       gradientUnits="userSpaceOnUse"
       gradientTransform="matrix(-0.01606478,0,0,0.00823529,27.681608,1046.3427)" />
    <radialGradient
       cx="605.71429"
       cy="486.64789"
       r="117.14286"
       fx="605.71429"
       fy="486.64789"
       id="radialGradient3045"
       xlink:href="#linearGradient5060"
       gradientUnits="userSpaceOnUse"
       gradientTransform="matrix(0.01606478,0,0,0.00823529,11.318391,1046.3427)" />
    <linearGradient
       inkscape:collect="always"
       xlink:href="#linearGradient9817"
       id="linearGradient9823"
       x1="-727.20874"
       y1="749.03888"
       x2="-727.16187"
       y2="756.02325"
       gradientUnits="userSpaceOnUse"
       gradientTransform="translate(-28.284292,-27.72447)" />
    <linearGradient
       inkscape:collect="always"
       xlink:href="#linearGradient6997"
       id="linearGradient10079"
       gradientUnits="userSpaceOnUse"
       gradientTransform="matrix(0.70710678,-0.70710678,0.70710678,0.70710678,-43.727963,1037.3622)"
       x1="9"
       y1="14"
       x2="9"
       y2="3" />
    <linearGradient
       inkscape:collect="always"
       xlink:href="#linearGradient10760"
       id="linearGradient10766"
       x1="12.574504"
       y1="1037.3627"
       x2="3.0003691"
       y2="1037.3627"
       gradientUnits="userSpaceOnUse"
       gradientTransform="matrix(0,1.2501129,-1.3334818,0,1392.3042,1027.6114)" />
    <radialGradient
       inkscape:collect="always"
       xlink:href="#linearGradient8647-7"
       id="radialGradient4878"
       gradientUnits="userSpaceOnUse"
       gradientTransform="matrix(-0.64632349,0,0,-0.95001151,14.943628,1049.3667)"
       cx="8.5503912"
       cy="11.676583"
       fx="8.5503912"
       fy="11.676583"
       r="5" />
    <linearGradient
       inkscape:collect="always"
       xlink:href="#linearGradient5509"
       id="linearGradient5515"
       x1="-727.17749"
       y1="746.90662"
       x2="-727.16644"
       y2="749.138"
       gradientUnits="userSpaceOnUse"
       gradientTransform="translate(-28.284272,-28.284272)" />
    <linearGradient
       inkscape:collect="always"
       xlink:href="#linearGradient6997"
       id="linearGradient10079-0"
       gradientUnits="userSpaceOnUse"
       gradientTransform="translate(-2.4999979e-5,1028.3622)"
       x1="9"
       y1="14"
       x2="9"
       y2="3" />
    <linearGradient
       inkscape:collect="always"
       xlink:href="#linearGradient6997"
       id="linearGradient7003-0"
       x1="9"
       y1="14"
       x2="9"
       y2="3"
       gradientUnits="userSpaceOnUse"
       gradientTransform="matrix(0.70710678,-0.70710678,0.70710678,0.70710678,-3.7279221,1037.3622)" />
    <linearGradient
       gradientTransform="translate(0,1028.3622)"
       inkscape:collect="always"
       xlink:href="#linearGradient4865"
       id="linearGradient7011-1"
       x1="8.875"
       y1="2.7084866"
       x2="8.875"
       y2="14.14483"
       gradientUnits="userSpaceOnUse" />
    <linearGradient
       id="linearGradient4865">
      <stop
         id="stop4867"
         style="stop-color:#729fcf;stop-opacity:1"
         offset="0" />
      <stop
         id="stop4869"
         style="stop-color:#204a87;stop-opacity:1"
         offset="1" />
    </linearGradient>
    <linearGradient
       inkscape:collect="always"
       xlink:href="#linearGradient9680"
       id="linearGradient9619-0"
       x1="9"
       y1="1"
       x2="9"
       y2="17"
       gradientUnits="userSpaceOnUse"
       gradientTransform="translate(0,1028.3622)" />
    <radialGradient
       inkscape:collect="always"
       xlink:href="#linearGradient9644"
       id="radialGradient9652-0"
       cx="9.0302782"
       cy="1035.6385"
       fx="9.0302782"
       fy="1035.6385"
       r="5"
       gradientUnits="userSpaceOnUse"
       gradientTransform="matrix(1.7515432,0,0,1.2000009,-6.7638897,-207.4733)" />
    <linearGradient
       inkscape:collect="always"
       xlink:href="#linearGradient9666"
       id="linearGradient9672-3"
       x1="40"
       y1="1044.3622"
       x2="40"
       y2="1050.3622"
       gradientUnits="userSpaceOnUse"
       gradientTransform="translate(-767.16188,-294.18528)" />
    <linearGradient
       inkscape:collect="always"
       xlink:href="#linearGradient9817"
       id="linearGradient9823-4"
       x1="-727.20874"
       y1="749.03888"
       x2="-727.16187"
       y2="756.02325"
       gradientUnits="userSpaceOnUse"
       gradientTransform="translate(-4.6356117e-5,0.55982352)" />
    <linearGradient
       gradientTransform="translate(-2.6356117e-5,2.3524776e-5)"
       inkscape:collect="always"
       xlink:href="#linearGradient5509"
       id="linearGradient5515-6"
       x1="-727.17749"
       y1="746.90662"
       x2="-727.16644"
       y2="749.138"
       gradientUnits="userSpaceOnUse" />
    <radialGradient
       inkscape:collect="always"
       xlink:href="#linearGradient5060"
       id="radialGradient11096-3"
       gradientUnits="userSpaceOnUse"
       gradientTransform="matrix(0.65573772,0,0,0.24590164,3.4799129,1039.0111)"
       cx="23.668133"
       cy="44.129044"
       fx="23.668133"
       fy="44.129044"
       r="6.0999999" />
  </defs>
  <sodipodi:namedview
     id="base"
     pagecolor="#ffffff"
     bordercolor="#666666"
     borderopacity="1.0"
     inkscape:pageopacity="0.0"
     inkscape:pageshadow="2"
     inkscape:zoom="32"
     inkscape:cx="15.448249"
     inkscape:cy="7.033524"
     inkscape:document-units="px"
     inkscape:current-layer="layer1"
     showgrid="true"
     units="px"
     inkscape:snap-bbox="true"
     inkscape:bbox-nodes="true"
     showguides="false"
     inkscape:snap-nodes="false"
     inkscape:snap-global="true"
     inkscape:object-paths="true"
     inkscape:snap-smooth-nodes="true"
     inkscape:snap-intersection-paths="true"
     inkscape:object-nodes="true"
     inkscape:snap-midpoints="true">
    <inkscape:grid
       type="xygrid"
       id="grid6901"
       empspacing="12"
       originx="0"
       originy="0" />
  </sodipodi:namedview>
  <metadata
     id="metadata6358">
    <rdf:RDF>
      <cc:Work
         rdf:about="">
        <dc:format>image/svg+xml</dc:format>
        <dc:type
           rdf:resource="http://purl.org/dc/dcmitype/StillImage" />
        <dc:title />
      </cc:Work>
    </rdf:RDF>
  </metadata>
  <g
     inkscape:label="Ebene 1"
     inkscape:groupmode="layer"
     id="layer1"
     transform="translate(0,-1028.3622)">
    <path
       d="m 23,1049.8625 a 4.0000001,1.5 0 0 1 -8,0 4.0000001,1.5 0 1 1 8,0 z"
       id="path11082-5"
       style="color:#000000;display:inline;overflow:visible;visibility:visible;opacity:0.4;fill:url(#radialGradient11096-3);fill-opacity:1;fill-rule:nonzero;stroke:none;stroke-width:1;marker:none;enable-background:accumulate"
       inkscape:connector-curvature="0" />
    <g
       id="g5573"
       transform="translate(-40,0)">
      <rect
         width="2.9999993"
         height="2"
         x="18"
         y="1049.3622"
         id="rect2879"
         style="display:inline;overflow:visible;visibility:visible;opacity:0.15;fill:url(#linearGradient3180);fill-opacity:1;fill-rule:nonzero;stroke:none;stroke-width:1;marker:none" />
      <path
         d="m 18,1049.3622 c 0,0 0,1.9999 0,1.9999 -0.827297,0 -2,-0.4481 -2,-1.0001 0,-0.552 0.9232,-0.9998 2,-0.9998 z"
         inkscape:connector-curvature="0"
         id="path2881"
         style="display:inline;overflow:visible;visibility:visible;opacity:0.15;fill:url(#radialGradient3048);fill-opacity:1;fill-rule:nonzero;stroke:none;stroke-width:1;marker:none" />
      <path
         d="m 21,1049.3622 c 0,0 0,1.9999 0,1.9999 0.827296,0 2,-0.4481 2,-1.0001 0,-0.552 -0.923201,-0.9998 -2,-0.9998 z"
         inkscape:connector-curvature="0"
         id="path2883"
         style="display:inline;overflow:visible;visibility:visible;opacity:0.15;fill:url(#radialGradient3045);fill-opacity:1;fill-rule:nonzero;stroke:none;stroke-width:1;marker:none" />
    </g>
    <rect
       style="opacity:1;fill:url(#linearGradient5515);fill-opacity:1;fill-rule:evenodd;stroke:none;stroke-width:1;stroke-linecap:round;stroke-linejoin:round;stroke-miterlimit:4;stroke-dasharray:none;stroke-dashoffset:0;stroke-opacity:1"
       id="rect9678"
       width="2"
       height="4.0000172"
       x="-756.44617"
       y="717.91919"
       transform="matrix(0.70710678,-0.70710678,0.70710678,0.70710678,0,0)" />
    <ellipse
       style="opacity:1;fill:url(#radialGradient9652);fill-opacity:1;fill-rule:evenodd;stroke:none;stroke-width:1;stroke-linecap:round;stroke-linejoin:round;stroke-miterlimit:4;stroke-dasharray:none;stroke-dashoffset:0;stroke-opacity:1"
       id="path9642"
       cx="-31"
       cy="1037.3622"
       rx="6"
       ry="6.0000043" />
    <path
       style="opacity:1;fill:url(#linearGradient9619);fill-opacity:1;fill-rule:evenodd;stroke:none;stroke-width:1;stroke-linecap:round;stroke-linejoin:round;stroke-miterlimit:4;stroke-dasharray:none;stroke-dashoffset:0;stroke-opacity:1"
       d="m -31,1030.3622 a 6.9999828,6.9999828 0 0 0 -7,7 6.9999828,6.9999828 0 0 0 7,7 6.9999828,6.9999828 0 0 0 7,-7 6.9999828,6.9999828 0 0 0 -7,-7 z m 0,1 a 6,5.9999957 0 0 1 6,6 6,5.9999957 0 0 1 -6,6 6,5.9999957 0 0 1 -6,-6 6,5.9999957 0 0 1 6,-6 z"
       id="path6982"
       inkscape:connector-curvature="0" />
    <path
       style="opacity:0.4;fill:url(#linearGradient7011);fill-opacity:1;fill-rule:evenodd;stroke:none;stroke-width:1;stroke-linecap:round;stroke-linejoin:round;stroke-miterlimit:4;stroke-dasharray:none;stroke-dashoffset:0;stroke-opacity:1"
       d="m -31,1030.3622 a 7,7 0 0 0 -7,7 7,7 0 0 0 7,7 7,7 0 0 0 7,-7 7,7 0 0 0 -7,-7 z m 0,1 a 6,5.9999957 0 0 1 1.773438,0.2676 6,5.9999957 0 0 1 1.103515,0.4668 6,5.9999957 0 0 1 3.107422,4.8418 6,6 0 0 1 0.01563,0.4238 6,5.9999957 0 0 1 -6,6 6,5.9999957 0 0 1 -6,-6 6,6 0 0 1 0.0293,-0.5996 6,5.9999957 0 0 1 5.9707,-5.4004 z"
       id="path6987"
       inkscape:connector-curvature="0" />
    <rect
       style="opacity:1;fill:#c17d11;fill-opacity:1;fill-rule:evenodd;stroke:url(#linearGradient9823);stroke-width:1;stroke-linecap:round;stroke-linejoin:round;stroke-miterlimit:4;stroke-dasharray:none;stroke-dashoffset:0;stroke-opacity:1"
       id="rect9654"
       width="3"
       height="7"
       x="-756.94617"
       y="721.39252"
       ry="1.005227"
       transform="matrix(0.70710678,-0.70710678,0.70710678,0.70710678,0,0)" />
    <rect
       style="opacity:0.8;fill:url(#linearGradient9672);fill-opacity:1;fill-rule:evenodd;stroke:none;stroke-width:1;stroke-linecap:round;stroke-linejoin:round;stroke-miterlimit:4;stroke-dasharray:none;stroke-dashoffset:0;stroke-opacity:1"
       id="rect9656"
       width="2"
       height="6"
       x="-756.44617"
       y="721.89252"
       ry="0.54137862"
       transform="matrix(0.70710678,-0.70710678,0.70710678,0.70710678,0,0)" />
    <path
       style="opacity:0.8;fill:url(#linearGradient7003);fill-opacity:1;fill-rule:evenodd;stroke:none;stroke-width:1;stroke-linecap:round;stroke-linejoin:round;stroke-miterlimit:4;stroke-dasharray:none;stroke-dashoffset:0;stroke-opacity:1"
       d="m -35.242641,1033.1196 a 6,6 0 0 0 0,8.4852 6,6 0 0 0 8.485282,0 6,6 0 0 0 0,-8.4852 6,6 0 0 0 -8.485282,0 z m 0.707107,0.7071 a 5,5 0 0 1 7.071068,0 5,5 0 0 1 0,7.071 5,5 0 0 1 -7.071068,0 5,5 0 0 1 0,-7.071 z"
       id="path6992"
       inkscape:connector-curvature="0" />
    <path
       inkscape:connector-curvature="0"
       id="path10076"
       d="m -35.242681,1033.1196 a 6,6 0 0 0 0,8.4852 6,6 0 0 0 8.485281,0 6,6 0 0 0 0,-8.4852 6,6 0 0 0 -8.485281,0 z m 0.707106,0.7071 a 5,5 0 0 1 7.071068,0 5,5 0 0 1 0,7.071 5,5 0 0 1 -7.071068,0 5,5 0 0 1 0,-7.071 z"
       style="opacity:0.8;fill:url(#linearGradient10079);fill-opacity:1;fill-rule:evenodd;stroke:none;stroke-width:1;stroke-linecap:round;stroke-linejoin:round;stroke-miterlimit:4;stroke-dasharray:none;stroke-dashoffset:0;stroke-opacity:1" />
    <rect
       style="opacity:1;fill:url(#linearGradient5515-6);fill-opacity:1;fill-rule:evenodd;stroke:none;stroke-width:1;stroke-linecap:round;stroke-linejoin:round;stroke-miterlimit:4;stroke-dasharray:none;stroke-dashoffset:0;stroke-opacity:1"
       id="rect9678-3"
       width="2"
       height="4.0000172"
       x="-728.16187"
       y="746.20349"
       transform="matrix(0.70710678,-0.70710678,0.70710678,0.70710678,0,0)" />
    <rect
       style="opacity:1;fill:#c17d11;fill-opacity:1;fill-rule:evenodd;stroke:url(#linearGradient9823-4);stroke-width:1;stroke-linecap:round;stroke-linejoin:round;stroke-miterlimit:4;stroke-dasharray:none;stroke-dashoffset:0;stroke-opacity:1"
       id="rect9654-9"
       width="3"
       height="7"
       x="-728.66187"
       y="749.67682"
       ry="1.005227"
       transform="matrix(0.70710678,-0.70710678,0.70710678,0.70710678,0,0)" />
    <rect
       style="opacity:0.8;fill:url(#linearGradient9672-3);fill-opacity:1;fill-rule:evenodd;stroke:none;stroke-width:1;stroke-linecap:round;stroke-linejoin:round;stroke-miterlimit:4;stroke-dasharray:none;stroke-dashoffset:0;stroke-opacity:1"
       id="rect9656-2"
       width="2"
       height="6"
       x="-728.16187"
       y="750.17682"
       ry="0.54137862"
       transform="matrix(0.70710678,-0.70710678,0.70710678,0.70710678,0,0)" />
    <ellipse
       style="opacity:1;fill:url(#radialGradient9652-0);fill-opacity:1;fill-rule:evenodd;stroke:none;stroke-width:1;stroke-linecap:round;stroke-linejoin:round;stroke-miterlimit:4;stroke-dasharray:none;stroke-dashoffset:0;stroke-opacity:1"
       id="path9642-3"
       cx="9"
       cy="1037.3622"
       rx="6"
       ry="6.0000043" />
    <path
       style="opacity:1;fill:url(#linearGradient9619-0);fill-opacity:1;fill-rule:evenodd;stroke:none;stroke-width:1;stroke-linecap:round;stroke-linejoin:round;stroke-miterlimit:4;stroke-dasharray:none;stroke-dashoffset:0;stroke-opacity:1"
       d="m 9,1030.3622 a 6.9999828,6.9999828 0 0 0 -7,7 6.9999828,6.9999828 0 0 0 7,7 6.9999828,6.9999828 0 0 0 7,-7 6.9999828,6.9999828 0 0 0 -7,-7 z m 0,1 a 6,5.9999957 0 0 1 6,6 6,5.9999957 0 0 1 -6,6 6,5.9999957 0 0 1 -6,-6 6,5.9999957 0 0 1 6,-6 z"
       id="path6982-0"
       inkscape:connector-curvature="0" />
    <path
       inkscape:connector-curvature="0"
       style="opacity:0.4;fill:url(#linearGradient7011-1);fill-opacity:1;fill-rule:evenodd;stroke:none;stroke-width:1;stroke-linecap:round;stroke-linejoin:round;stroke-miterlimit:4;stroke-dasharray:none;stroke-dashoffset:0;stroke-opacity:1"
       d="m 9,1030.3622 a 7,7 0 0 0 -7,7 7,7 0 0 0 7,7 7,7 0 0 0 7,-7 7,7 0 0 0 -7,-7 z m 0,1 a 6,5.9999957 0 0 1 1.773438,0.2676 6,5.9999957 0 0 1 1.103515,0.4668 6,5.9999957 0 0 1 3.107422,4.8418 6,6 0 0 1 0.01563,0.4238 6,5.9999957 0 0 1 -6,6 6,5.9999957 0 0 1 -6,-6 6,6 0 0 1 0.029297,-0.5996 A 6,5.9999957 0 0 1 9,1031.3622 Z"
       id="path6987-3" />
    <path
       style="opacity:0.8;fill:url(#linearGradient7003-0);fill-opacity:1;fill-rule:evenodd;stroke:none;stroke-width:1;stroke-linecap:round;stroke-linejoin:round;stroke-miterlimit:4;stroke-dasharray:none;stroke-dashoffset:0;stroke-opacity:1"
       d="m 4.7573593,1033.1196 a 6,6 0 0 0 0,8.4852 6,6 0 0 0 8.4852817,0 6,6 0 0 0 0,-8.4852 6,6 0 0 0 -8.4852817,0 z m 0.7071068,0.7071 a 5,5 0 0 1 7.0710679,0 5,5 0 0 1 0,7.071 5,5 0 0 1 -7.0710679,0 5,5 0 0 1 0,-7.071 z"
       id="path6992-8"
       inkscape:connector-curvature="0" />
    <path
       inkscape:connector-curvature="0"
       id="path10076-4"
       d="m 8.9999033,1031.3622 a 6,6 0 0 0 -5.9999007,6 6,6 0 0 0 6.0000132,6 6,6 0 0 0 5.9999002,-6 6,6 0 0 0 -6.0000127,-6 z m -2.8e-6,1 a 5,5 0 0 1 5.0000225,5 5,5 0 0 1 -4.9999049,5 5,5 0 0 1 -5.0000227,-5 5,5 0 0 1 4.9999051,-5 z"
       style="opacity:0.8;fill:url(#linearGradient10079-0);fill-opacity:1;fill-rule:evenodd;stroke:none;stroke-width:1;stroke-linecap:round;stroke-linejoin:round;stroke-miterlimit:4;stroke-dasharray:none;stroke-dashoffset:0;stroke-opacity:1" />
    <path
       style="color:#000000;font-style:normal;font-variant:normal;font-weight:normal;font-stretch:normal;font-size:medium;line-height:normal;font-family:sans-serif;text-indent:0;text-align:start;text-decoration:none;text-decoration-line:none;text-decoration-style:solid;text-decoration-color:#000000;letter-spacing:normal;word-spacing:normal;text-transform:none;direction:ltr;block-progression:tb;writing-mode:lr-tb;baseline-shift:baseline;text-anchor:start;white-space:normal;clip-rule:nonzero;display:inline;overflow:visible;visibility:visible;opacity:0.8;isolation:auto;mix-blend-mode:normal;color-interpolation:sRGB;color-interpolation-filters:linearRGB;solid-color:#000000;solid-opacity:1;fill:url(#linearGradient10766);fill-opacity:1;fill-rule:evenodd;stroke:none;stroke-width:2;stroke-linecap:butt;stroke-linejoin:round;stroke-miterlimit:4;stroke-dasharray:none;stroke-dashoffset:0;stroke-opacity:1;color-rendering:auto;image-rendering:auto;shape-rendering:auto;text-rendering:auto;enable-background:accumulate"
       d="m 12.999955,1035.075 a 1.3336152,1.2502379 0 0 0 -0.390625,-0.8476 l -2.666016,-2.5 a 1.3336152,1.2502379 0 0 0 -0.964843,-0.3633 1.3336152,1.2502379 0 0 0 -0.921875,0.3633 l -2.666016,2.5 a 1.3336152,1.2502379 0 0 0 0.943359,2.1348 l 0.666016,0 0,2 -0.667969,0 a 1.3336069,1.2502379 0 0 0 -0.941406,2.1347 l 2.666016,2.5 a 1.3336069,1.2502379 0 0 0 0.964843,0.3633 1.3336069,1.2502379 0 0 0 0.921875,-0.3633 l 2.666016,-2.5 a 1.3336069,1.2502379 0 0 0 -0.943359,-2.1347 l -3.666016,0 0,-2 3.667969,0 a 1.3336152,1.2502379 0 0 0 1.332031,-1.2872 z m -1.332031,0.037 -5.333985,0 2.666016,-2.5 2.667969,2.5 z m -0.002,4.5 -2.666016,2.5 -2.667969,-2.5 5.333985,0 z"
       id="rect10747"
       inkscape:connector-curvature="0" />
    <path
       style="fill:url(#radialGradient4878);fill-opacity:1;fill-rule:nonzero;stroke:none"
       d="m 11.999955,1035.3622 -3,-3 -3,3 2,0 0,4 -2,0 3,3 3,-3 -2,0 0,-4 2,0 z"
       id="path4870"
       inkscape:connector-curvature="0" />
  </g>
</svg>
