<?xml version="1.0" encoding="UTF-8" standalone="no"?>
<!-- Created with Inkscape (http://www.inkscape.org/) -->

<svg
   xmlns:dc="http://purl.org/dc/elements/1.1/"
   xmlns:cc="http://creativecommons.org/ns#"
   xmlns:rdf="http://www.w3.org/1999/02/22-rdf-syntax-ns#"
   xmlns:svg="http://www.w3.org/2000/svg"
   xmlns="http://www.w3.org/2000/svg"
   xmlns:xlink="http://www.w3.org/1999/xlink"
   xmlns:sodipodi="http://sodipodi.sourceforge.net/DTD/sodipodi-0.dtd"
   xmlns:inkscape="http://www.inkscape.org/namespaces/inkscape"
   width="24"
   height="24"
   viewBox="0 0 24 24"
   id="svg6353"
   version="1.1"
   inkscape:version="0.91 r13725"
   inkscape:export-filename="C:\Users\Lutz\Desktop\qthandles-icons\zoom-x.png"
   inkscape:export-xdpi="90"
   inkscape:export-ydpi="90"
   sodipodi:docname="zoom-x.svg">
  <defs
     id="defs6355">
    <linearGradient
       inkscape:collect="always"
       id="linearGradient10760">
      <stop
         style="stop-color:#ffffff;stop-opacity:1;"
         offset="0"
         id="stop10762" />
      <stop
         style="stop-color:#ffffff;stop-opacity:0;"
         offset="1"
         id="stop10764" />
    </linearGradient>
    <linearGradient
       id="linearGradient9680"
       inkscape:collect="always">
      <stop
         id="stop9682"
         offset="0"
         style="stop-color:#5f9ecd;stop-opacity:1" />
      <stop
         id="stop9684"
         offset="1"
         style="stop-color:#08408e;stop-opacity:1" />
    </linearGradient>
    <linearGradient
       inkscape:collect="always"
       id="linearGradient9644">
      <stop
         style="stop-color:#f2fbff;stop-opacity:1"
         offset="0"
         id="stop9646" />
      <stop
         style="stop-color:#c9efff;stop-opacity:1"
         offset="1"
         id="stop9648" />
    </linearGradient>
    <linearGradient
       inkscape:collect="always"
       id="linearGradient6997">
      <stop
         style="stop-color:#ffffff;stop-opacity:0.39215687"
         offset="0"
         id="stop6999" />
      <stop
         id="stop9815"
         offset="0.14861487"
         style="stop-color:#ffffff;stop-opacity:0.15686275" />
      <stop
         id="stop9813"
         offset="0.5"
         style="stop-color:#ffffff;stop-opacity:0.23529412" />
      <stop
         style="stop-color:#ffffff;stop-opacity:1"
         offset="1"
         id="stop7001" />
    </linearGradient>
    <linearGradient
       id="linearGradient5060">
      <stop
         id="stop5062"
         style="stop-color:#000000;stop-opacity:1"
         offset="0" />
      <stop
         id="stop5064"
         style="stop-color:#000000;stop-opacity:0"
         offset="1" />
    </linearGradient>
    <linearGradient
       inkscape:collect="always"
       id="linearGradient8647-7">
      <stop
         style="stop-color:#408bc4;stop-opacity:1"
         offset="0"
         id="stop8649-8" />
      <stop
         style="stop-color:#062f68;stop-opacity:1"
         offset="1"
         id="stop8651-1" />
    </linearGradient>
    <linearGradient
       inkscape:collect="always"
       xlink:href="#linearGradient10760"
       id="linearGradient10766"
       x1="7.7999277"
       y1="1040.3623"
       x2="7.7999277"
       y2="1035.8628"
       gradientUnits="userSpaceOnUse"
       gradientTransform="matrix(1.2501129,0,0,1.3334818,-0.75079,-345.942)" />
    <radialGradient
       inkscape:collect="always"
       xlink:href="#linearGradient8647-7"
       id="radialGradient4878"
       gradientUnits="userSpaceOnUse"
       gradientTransform="matrix(0,0.64632349,-0.95001151,0,21.004514,1031.4185)"
       cx="10.259836"
       cy="12.537495"
       fx="10.259836"
       fy="12.537495"
       r="5" />
    <linearGradient
       inkscape:collect="always"
       id="linearGradient9666">
      <stop
         style="stop-color:#ffffff;stop-opacity:1"
         offset="0"
         id="stop9668" />
      <stop
         id="stop9676"
         offset="0.14745924"
         style="stop-color:#ffffff;stop-opacity:0.23529412" />
      <stop
         id="stop9674"
         offset="0.86193174"
         style="stop-color:#ffffff;stop-opacity:0.15686275" />
      <stop
         style="stop-color:#ffffff;stop-opacity:0.39215687"
         offset="1"
         id="stop9670" />
    </linearGradient>
    <linearGradient
       inkscape:collect="always"
       id="linearGradient9817">
      <stop
         style="stop-color:#e7b464;stop-opacity:1"
         offset="0"
         id="stop9819" />
      <stop
         id="stop9827"
         offset="0.13469367"
         style="stop-color:#b87710;stop-opacity:1" />
      <stop
         id="stop9825"
         offset="0.86201411"
         style="stop-color:#9e6202;stop-opacity:1" />
      <stop
         style="stop-color:#815002;stop-opacity:1"
         offset="1"
         id="stop9821" />
    </linearGradient>
    <linearGradient
       inkscape:collect="always"
       id="linearGradient5509">
      <stop
         style="stop-color:#494b47;stop-opacity:1"
         offset="0"
         id="stop5511" />
      <stop
         id="stop5519"
         offset="0.10606515"
         style="stop-color:#797b76;stop-opacity:1" />
      <stop
         id="stop5517"
         offset="0.92555153"
         style="stop-color:#babdb6;stop-opacity:1" />
      <stop
         style="stop-color:#d3d7cf;stop-opacity:1"
         offset="1"
         id="stop5513" />
    </linearGradient>
    <linearGradient
       inkscape:collect="always"
       xlink:href="#linearGradient6997"
       id="linearGradient10079-0"
       gradientUnits="userSpaceOnUse"
       gradientTransform="translate(-2.4999979e-5,1028.3622)"
       x1="9"
       y1="14"
       x2="9"
       y2="3" />
    <linearGradient
       inkscape:collect="always"
       xlink:href="#linearGradient6997"
       id="linearGradient7003-0"
       x1="9"
       y1="14"
       x2="9"
       y2="3"
       gradientUnits="userSpaceOnUse"
       gradientTransform="matrix(0.70710678,-0.70710678,0.70710678,0.70710678,-3.7279221,1037.3622)" />
    <linearGradient
       gradientTransform="translate(0,1028.3622)"
       inkscape:collect="always"
       xlink:href="#linearGradient4865"
       id="linearGradient7011-1"
       x1="8.875"
       y1="2.7084866"
       x2="8.875"
       y2="14.14483"
       gradientUnits="userSpaceOnUse" />
    <linearGradient
       id="linearGradient4865">
      <stop
         id="stop4867"
         style="stop-color:#729fcf;stop-opacity:1"
         offset="0" />
      <stop
         id="stop4869"
         style="stop-color:#204a87;stop-opacity:1"
         offset="1" />
    </linearGradient>
    <linearGradient
       inkscape:collect="always"
       xlink:href="#linearGradient9680"
       id="linearGradient9619-0"
       x1="9"
       y1="1"
       x2="9"
       y2="17"
       gradientUnits="userSpaceOnUse"
       gradientTransform="translate(0,1028.3622)" />
    <radialGradient
       inkscape:collect="always"
       xlink:href="#linearGradient9644"
       id="radialGradient9652-0"
       cx="9.0302782"
       cy="1035.6385"
       fx="9.0302782"
       fy="1035.6385"
       r="5"
       gradientUnits="userSpaceOnUse"
       gradientTransform="matrix(1.7515432,0,0,1.2000009,-6.7638897,-207.4733)" />
    <linearGradient
       inkscape:collect="always"
       xlink:href="#linearGradient9666"
       id="linearGradient9672-3"
       x1="40"
       y1="1044.3622"
       x2="40"
       y2="1050.3622"
       gradientUnits="userSpaceOnUse"
       gradientTransform="translate(-767.16188,-294.18528)" />
    <linearGradient
       inkscape:collect="always"
       xlink:href="#linearGradient9817"
       id="linearGradient9823-4"
       x1="-727.20874"
       y1="749.03888"
       x2="-727.16187"
       y2="756.02325"
       gradientUnits="userSpaceOnUse"
       gradientTransform="translate(-4.6356117e-5,0.55982352)" />
    <linearGradient
       gradientTransform="translate(-2.6356117e-5,2.3524776e-5)"
       inkscape:collect="always"
       xlink:href="#linearGradient5509"
       id="linearGradient5515-6"
       x1="-727.17749"
       y1="746.90662"
       x2="-727.16644"
       y2="749.138"
       gradientUnits="userSpaceOnUse" />
    <radialGradient
       inkscape:collect="always"
       xlink:href="#linearGradient5060"
       id="radialGradient11096-3"
       gradientUnits="userSpaceOnUse"
       gradientTransform="matrix(0.65573772,0,0,0.24590164,3.479913,1039.5108)"
       cx="23.668133"
       cy="44.129044"
       fx="23.668133"
       fy="44.129044"
       r="6.0999999" />
  </defs>
  <sodipodi:namedview
     id="base"
     pagecolor="#ffffff"
     bordercolor="#666666"
     borderopacity="1.0"
     inkscape:pageopacity="0.0"
     inkscape:pageshadow="2"
     inkscape:zoom="22.627417"
     inkscape:cx="19.362005"
     inkscape:cy="0.20162991"
     inkscape:document-units="px"
     inkscape:current-layer="layer1"
     showgrid="true"
     units="px"
     inkscape:snap-bbox="true"
     inkscape:bbox-nodes="true"
     showguides="true"
     inkscape:snap-nodes="true"
     inkscape:snap-global="true"
     inkscape:object-paths="true"
     inkscape:snap-smooth-nodes="true"
     inkscape:snap-intersection-paths="true"
     inkscape:object-nodes="true"
     inkscape:snap-midpoints="true">
    <inkscape:grid
       type="xygrid"
       id="grid6901"
       empspacing="12"
       originx="0"
       originy="0" />
  </sodipodi:namedview>
  <metadata
     id="metadata6358">
    <rdf:RDF>
      <cc:Work
         rdf:about="">
        <dc:format>image/svg+xml</dc:format>
        <dc:type
           rdf:resource="http://purl.org/dc/dcmitype/StillImage" />
        <dc:title />
      </cc:Work>
    </rdf:RDF>
  </metadata>
  <g
     inkscape:label="Ebene 1"
     inkscape:groupmode="layer"
     id="layer1"
     transform="translate(0,-1028.3622)">
    <path
       d="m 23,1050.3622 a 4.0000001,1.5 0 0 1 -8,0 4.0000001,1.5 0 1 1 8,0 z"
       id="path11082-5"
       style="color:#000000;display:inline;overflow:visible;visibility:visible;opacity:0.4;fill:url(#radialGradient11096-3);fill-opacity:1;fill-rule:nonzero;stroke:none;stroke-width:1;marker:none;enable-background:accumulate"
       inkscape:connector-curvature="0" />
    <rect
       style="opacity:1;fill:url(#linearGradient5515-6);fill-opacity:1;fill-rule:evenodd;stroke:none;stroke-width:1;stroke-linecap:round;stroke-linejoin:round;stroke-miterlimit:4;stroke-dasharray:none;stroke-dashoffset:0;stroke-opacity:1"
       id="rect9678-3"
       width="2"
       height="4.0000172"
       x="-728.16187"
       y="746.20349"
       transform="matrix(0.70710678,-0.70710678,0.70710678,0.70710678,0,0)" />
    <rect
       style="opacity:1;fill:#c17d11;fill-opacity:1;fill-rule:evenodd;stroke:url(#linearGradient9823-4);stroke-width:1;stroke-linecap:round;stroke-linejoin:round;stroke-miterlimit:4;stroke-dasharray:none;stroke-dashoffset:0;stroke-opacity:1"
       id="rect9654-9"
       width="3"
       height="7"
       x="-728.66187"
       y="749.67682"
       ry="1.005227"
       transform="matrix(0.70710678,-0.70710678,0.70710678,0.70710678,0,0)" />
    <rect
       style="opacity:0.8;fill:url(#linearGradient9672-3);fill-opacity:1;fill-rule:evenodd;stroke:none;stroke-width:1;stroke-linecap:round;stroke-linejoin:round;stroke-miterlimit:4;stroke-dasharray:none;stroke-dashoffset:0;stroke-opacity:1"
       id="rect9656-2"
       width="2"
       height="6"
       x="-728.16187"
       y="750.17682"
       ry="0.54137862"
       transform="matrix(0.70710678,-0.70710678,0.70710678,0.70710678,0,0)" />
    <ellipse
       style="opacity:1;fill:url(#radialGradient9652-0);fill-opacity:1;fill-rule:evenodd;stroke:none;stroke-width:1;stroke-linecap:round;stroke-linejoin:round;stroke-miterlimit:4;stroke-dasharray:none;stroke-dashoffset:0;stroke-opacity:1"
       id="path9642-3"
       cx="9"
       cy="1037.3622"
       rx="6"
       ry="6.0000043" />
    <path
       style="opacity:1;fill:url(#linearGradient9619-0);fill-opacity:1;fill-rule:evenodd;stroke:none;stroke-width:1;stroke-linecap:round;stroke-linejoin:round;stroke-miterlimit:4;stroke-dasharray:none;stroke-dashoffset:0;stroke-opacity:1"
       d="m 9,1030.3622 a 6.9999828,6.9999828 0 0 0 -7,7 6.9999828,6.9999828 0 0 0 7,7 6.9999828,6.9999828 0 0 0 7,-7 6.9999828,6.9999828 0 0 0 -7,-7 z m 0,1 a 6,5.9999957 0 0 1 6,6 6,5.9999957 0 0 1 -6,6 6,5.9999957 0 0 1 -6,-6 6,5.9999957 0 0 1 6,-6 z"
       id="path6982-0"
       inkscape:connector-curvature="0" />
    <path
       inkscape:connector-curvature="0"
       style="opacity:0.4;fill:url(#linearGradient7011-1);fill-opacity:1;fill-rule:evenodd;stroke:none;stroke-width:1;stroke-linecap:round;stroke-linejoin:round;stroke-miterlimit:4;stroke-dasharray:none;stroke-dashoffset:0;stroke-opacity:1"
       d="m 9,1030.3622 a 7,7 0 0 0 -7,7 7,7 0 0 0 7,7 7,7 0 0 0 7,-7 7,7 0 0 0 -7,-7 z m 0,1 a 6,5.9999957 0 0 1 1.773438,0.2676 6,5.9999957 0 0 1 1.103515,0.4668 6,5.9999957 0 0 1 3.107422,4.8418 6,6 0 0 1 0.01563,0.4238 6,5.9999957 0 0 1 -6,6 6,5.9999957 0 0 1 -6,-6 6,6 0 0 1 0.029297,-0.5996 A 6,5.9999957 0 0 1 9,1031.3622 Z"
       id="path6987-3" />
    <path
       style="opacity:0.8;fill:url(#linearGradient7003-0);fill-opacity:1;fill-rule:evenodd;stroke:none;stroke-width:1;stroke-linecap:round;stroke-linejoin:round;stroke-miterlimit:4;stroke-dasharray:none;stroke-dashoffset:0;stroke-opacity:1"
       d="m 4.7573593,1033.1196 a 6,6 0 0 0 0,8.4852 6,6 0 0 0 8.4852817,0 6,6 0 0 0 0,-8.4852 6,6 0 0 0 -8.4852817,0 z m 0.7071068,0.7071 a 5,5 0 0 1 7.0710679,0 5,5 0 0 1 0,7.071 5,5 0 0 1 -7.0710679,0 5,5 0 0 1 0,-7.071 z"
       id="path6992-8"
       inkscape:connector-curvature="0" />
    <path
       inkscape:connector-curvature="0"
       id="path10076-4"
       d="m 8.9999033,1031.3622 a 6,6 0 0 0 -5.9999007,6 6,6 0 0 0 6.0000132,6 6,6 0 0 0 5.9999002,-6 6,6 0 0 0 -6.0000127,-6 z m -2.8e-6,1 a 5,5 0 0 1 5.0000225,5 5,5 0 0 1 -4.9999049,5 5,5 0 0 1 -5.0000227,-5 5,5 0 0 1 4.9999051,-5 z"
       style="opacity:0.8;fill:url(#linearGradient10079-0);fill-opacity:1;fill-rule:evenodd;stroke:none;stroke-width:1;stroke-linecap:round;stroke-linejoin:round;stroke-miterlimit:4;stroke-dasharray:none;stroke-dashoffset:0;stroke-opacity:1" />
    <path
       style="color:#000000;font-style:normal;font-variant:normal;font-weight:normal;font-stretch:normal;font-size:medium;line-height:normal;font-family:sans-serif;text-indent:0;text-align:start;text-decoration:none;text-decoration-line:none;text-decoration-style:solid;text-decoration-color:#000000;letter-spacing:normal;word-spacing:normal;text-transform:none;direction:ltr;block-progression:tb;writing-mode:lr-tb;baseline-shift:baseline;text-anchor:start;white-space:normal;clip-rule:nonzero;display:inline;overflow:visible;visibility:visible;opacity:0.95;isolation:auto;mix-blend-mode:normal;color-interpolation:sRGB;color-interpolation-filters:linearRGB;solid-color:#000000;solid-opacity:1;fill:url(#linearGradient10766);fill-opacity:1;fill-rule:evenodd;stroke:none;stroke-width:2;stroke-linecap:butt;stroke-linejoin:round;stroke-miterlimit:4;stroke-dasharray:none;stroke-dashoffset:0;stroke-opacity:1;color-rendering:auto;image-rendering:auto;shape-rendering:auto;text-rendering:auto;enable-background:accumulate"
       d="m 6.712891,1033.3622 a 1.2502379,1.3336152 0 0 0 -0.847657,0.3906 l -2.5,2.666 a 1.2502379,1.3336152 0 0 0 -0.363281,0.9649 1.2502379,1.3336152 0 0 0 0.363281,0.9219 l 2.5,2.666 A 1.2502379,1.3336152 0 0 0 8,1040.0282 l 0,-0.666 2,0 0,0.668 a 1.2502379,1.3336069 0 0 0 2.134766,0.9414 l 2.5,-2.666 a 1.2502379,1.3336069 0 0 0 0.363281,-0.9649 1.2502379,1.3336069 0 0 0 -0.363281,-0.9219 l -2.5,-2.666 A 1.2502379,1.3336069 0 0 0 10,1034.6962 l 0,3.666 -2,0 0,-3.668 a 1.2502379,1.3336152 0 0 0 -1.287109,-1.332 z m 0.03711,1.332 0,5.334 -2.5,-2.666 2.5,-2.668 z m 4.5,0 2.5,2.666 -2.5,2.668 0,-5.334 z"
       id="rect10747"
       inkscape:connector-curvature="0" />
    <path
       style="fill:url(#radialGradient4878);fill-opacity:1;fill-rule:nonzero;stroke:none"
       d="m 7,1034.3622 -3,3 3,3 0,-2 4,0 0,2 3,-3 -3,-3 0,2 -4,0 0,-2 z"
       id="path4870"
       inkscape:connector-curvature="0" />
  </g>
</svg>
