<?xml version="1.0" encoding="UTF-8" standalone="no"?>
<!-- Created with Inkscape (http://www.inkscape.org/) -->

<svg
   xmlns:dc="http://purl.org/dc/elements/1.1/"
   xmlns:cc="http://creativecommons.org/ns#"
   xmlns:rdf="http://www.w3.org/1999/02/22-rdf-syntax-ns#"
   xmlns:svg="http://www.w3.org/2000/svg"
   xmlns="http://www.w3.org/2000/svg"
   xmlns:xlink="http://www.w3.org/1999/xlink"
   xmlns:sodipodi="http://sodipodi.sourceforge.net/DTD/sodipodi-0.dtd"
   xmlns:inkscape="http://www.inkscape.org/namespaces/inkscape"
   width="24"
   height="24"
   viewBox="0 0 24 24"
   id="svg6353"
   version="1.1"
   inkscape:version="0.91 r13725"
   inkscape:export-filename="C:\Dokumente und Einstellungen\RM\Desktop\octave-icons-master\24x24\zoom-in.png"
   inkscape:export-xdpi="90"
   inkscape:export-ydpi="90"
   sodipodi:docname="zoom-in.svg">
  <defs
     id="defs6355">
    <linearGradient
       inkscape:collect="always"
       id="linearGradient6489">
      <stop
         style="stop-color:#ffffff;stop-opacity:1;"
         offset="0"
         id="stop6491" />
      <stop
         style="stop-color:#ffffff;stop-opacity:0;"
         offset="1"
         id="stop6493" />
    </linearGradient>
    <linearGradient
       inkscape:collect="always"
       id="linearGradient6997">
      <stop
         style="stop-color:#ffffff;stop-opacity:0.39215687"
         offset="0"
         id="stop6999" />
      <stop
         id="stop9815"
         offset="0.14861487"
         style="stop-color:#ffffff;stop-opacity:0.15686275" />
      <stop
         id="stop9813"
         offset="0.5"
         style="stop-color:#ffffff;stop-opacity:0.23529412" />
      <stop
         style="stop-color:#ffffff;stop-opacity:1"
         offset="1"
         id="stop7001" />
    </linearGradient>
    <linearGradient
       id="linearGradient5060">
      <stop
         id="stop5062"
         style="stop-color:#000000;stop-opacity:1"
         offset="0" />
      <stop
         id="stop5064"
         style="stop-color:#000000;stop-opacity:0"
         offset="1" />
    </linearGradient>
    <linearGradient
       inkscape:collect="always"
       xlink:href="#linearGradient6997"
       id="linearGradient7003"
       x1="9"
       y1="14"
       x2="9"
       y2="3"
       gradientUnits="userSpaceOnUse"
       gradientTransform="matrix(0.70710678,-0.70710678,0.70710678,0.70710678,-3.7279221,1037.3622)" />
    <linearGradient
       inkscape:collect="always"
       id="linearGradient8647-7">
      <stop
         style="stop-color:#408bc4;stop-opacity:1"
         offset="0"
         id="stop8649-8" />
      <stop
         style="stop-color:#062f68;stop-opacity:1"
         offset="1"
         id="stop8651-1" />
    </linearGradient>
    <radialGradient
       inkscape:collect="always"
       xlink:href="#linearGradient3600-4"
       id="radialGradient9652"
       cx="9.0302782"
       cy="1035.6385"
       fx="9.0302782"
       fy="1035.6385"
       r="5"
       gradientUnits="userSpaceOnUse"
       gradientTransform="matrix(1.7515432,0,0,1.2000009,-6.7638897,-207.47329)" />
    <radialGradient
       inkscape:collect="always"
       xlink:href="#linearGradient8647-7"
       id="radialGradient9869"
       gradientUnits="userSpaceOnUse"
       gradientTransform="matrix(1.5208333,0,0,1.5208333,-4.825607,-4.9177)"
       cx="9.2240696"
       cy="9.318655"
       fx="9.2240696"
       fy="9.318655"
       r="3" />
    <linearGradient
       inkscape:collect="always"
       xlink:href="#linearGradient6997"
       id="linearGradient10079"
       gradientUnits="userSpaceOnUse"
       gradientTransform="translate(-4.0727324e-5,1028.3622)"
       x1="9"
       y1="14"
       x2="9"
       y2="3" />
    <linearGradient
       inkscape:collect="always"
       xlink:href="#linearGradient6489"
       id="linearGradient6495"
       x1="8.96875"
       y1="1040.1837"
       x2="8.96875"
       y2="1035.5497"
       gradientUnits="userSpaceOnUse" />
    <linearGradient
       id="linearGradient3600-4">
      <stop
         id="stop3602-7"
         style="stop-color:#ffffff;stop-opacity:1"
         offset="0" />
      <stop
         offset="0.5930329"
         style="stop-color:#fcfdfe;stop-opacity:1"
         id="stop8523" />
      <stop
         id="stop3604-6"
         style="stop-color:#e7ecf7;stop-opacity:1"
         offset="1" />
    </linearGradient>
    <linearGradient
       inkscape:collect="always"
       xlink:href="#linearGradient9680"
       id="linearGradient9619-0"
       x1="9.0441942"
       y1="2.1932428"
       x2="8.9558058"
       y2="15.629981"
       gradientUnits="userSpaceOnUse"
       gradientTransform="matrix(0.70710678,-0.70710678,0.70710678,0.70710678,-3.7279112,1037.3622)" />
    <linearGradient
       id="linearGradient9680"
       inkscape:collect="always">
      <stop
         id="stop9682"
         offset="0"
         style="stop-color:#5f9ecd;stop-opacity:1" />
      <stop
         id="stop9684"
         offset="1"
         style="stop-color:#08408e;stop-opacity:1" />
    </linearGradient>
    <radialGradient
       inkscape:collect="always"
       xlink:href="#linearGradient4920"
       id="radialGradient4926"
       cx="9.1776648"
       cy="1054.9584"
       fx="9.1776648"
       fy="1054.9584"
       r="1.5"
       gradientTransform="matrix(0.72738153,0.01348662,-0.01474826,0.79542636,33.586768,213.87259)"
       gradientUnits="userSpaceOnUse" />
    <linearGradient
       inkscape:collect="always"
       id="linearGradient4920">
      <stop
         id="stop4924"
         offset="0"
         style="stop-color:#eeeeec;stop-opacity:1" />
      <stop
         id="stop4922"
         offset="1"
         style="stop-color:#555753;stop-opacity:1" />
    </linearGradient>
    <radialGradient
       inkscape:collect="always"
       xlink:href="#linearGradient5060"
       id="radialGradient11096-3"
       gradientUnits="userSpaceOnUse"
       gradientTransform="matrix(0.28979786,-0.28979786,0.11591846,0.11591846,13.657548,1056.5957)"
       cx="23.668133"
       cy="44.129044"
       fx="23.668133"
       fy="44.129044"
       r="6.0999999" />
    <linearGradient
       inkscape:collect="always"
       xlink:href="#linearGradient4932-1"
       id="linearGradient4938-9"
       x1="-0.46875"
       y1="1057.2997"
       x2="-0.46875"
       y2="1054.4247"
       gradientUnits="userSpaceOnUse"
       gradientTransform="matrix(3,0,0,1,17.071045,-2.070946)" />
    <linearGradient
       inkscape:collect="always"
       id="linearGradient4932-1">
      <stop
         style="stop-color:#2e3436;stop-opacity:1"
         offset="0"
         id="stop4934-3" />
      <stop
         id="stop7325"
         offset="0.36890757"
         style="stop-color:#555753;stop-opacity:1" />
      <stop
         id="stop5665-9"
         offset="0.52340329"
         style="stop-color:#888a85;stop-opacity:1" />
      <stop
         id="stop4940-2"
         offset="0.68304414"
         style="stop-color:#eeeeec;stop-opacity:1" />
      <stop
         style="stop-color:#888a85;stop-opacity:1"
         offset="1"
         id="stop4936-6" />
    </linearGradient>
  </defs>
  <sodipodi:namedview
     id="base"
     pagecolor="#ffffff"
     bordercolor="#666666"
     borderopacity="1.0"
     inkscape:pageopacity="0.0"
     inkscape:pageshadow="2"
     inkscape:zoom="11.313708"
     inkscape:cx="12.703464"
     inkscape:cy="3.8032408"
     inkscape:document-units="px"
     inkscape:current-layer="g5794"
     showgrid="false"
     units="px"
     inkscape:snap-bbox="true"
     inkscape:bbox-nodes="true"
     showguides="true"
     inkscape:snap-nodes="false"
     inkscape:snap-global="true"
     inkscape:object-paths="true"
     inkscape:snap-smooth-nodes="true"
     inkscape:snap-intersection-paths="true"
     inkscape:object-nodes="true"
     inkscape:snap-midpoints="true"
     inkscape:window-width="1440"
     inkscape:window-height="844"
     inkscape:window-x="-4"
     inkscape:window-y="-4"
     inkscape:window-maximized="1">
    <inkscape:grid
       type="xygrid"
       id="grid6901"
       empspacing="12"
       originx="0"
       originy="0" />
  </sodipodi:namedview>
  <metadata
     id="metadata6358">
    <rdf:RDF>
      <cc:Work
         rdf:about="">
        <dc:format>image/svg+xml</dc:format>
        <dc:type
           rdf:resource="http://purl.org/dc/dcmitype/StillImage" />
        <dc:title />
      </cc:Work>
    </rdf:RDF>
  </metadata>
  <g
     inkscape:label="Ebene 1"
     inkscape:groupmode="layer"
     id="layer1"
     transform="translate(0,-1028.3622)">
    <g
       id="g5794"
       transform="matrix(0.70710678,0.70710678,-0.70710678,0.70710678,748.26858,286.34488)">
      <path
         d="m 27.39964,1053.0843 a 0.99999408,2.5 45 0 1 -3.535533,3.5355 0.99999408,2.5 45 1 1 3.535533,-3.5355 z"
         id="path11082-5"
         style="color:#000000;display:inline;overflow:visible;visibility:visible;opacity:0.4;fill:url(#radialGradient11096-3);fill-opacity:1;fill-rule:nonzero;stroke:none;stroke-width:1;marker:none;enable-background:accumulate"
         inkscape:connector-curvature="0" />
      <g
         id="g7509">
        <ellipse
           style="color:#000000;clip-rule:nonzero;display:inline;overflow:visible;visibility:visible;opacity:1;isolation:auto;mix-blend-mode:normal;color-interpolation:sRGB;color-interpolation-filters:linearRGB;solid-color:#000000;solid-opacity:1;fill:url(#radialGradient4926);fill-opacity:1;fill-rule:nonzero;stroke:none;stroke-width:1;stroke-linecap:butt;stroke-linejoin:miter;stroke-miterlimit:4;stroke-dasharray:none;stroke-dashoffset:0;stroke-opacity:1;color-rendering:auto;image-rendering:auto;shape-rendering:auto;text-rendering:auto;enable-background:accumulate"
           id="path4918"
           cx="24.571066"
           cy="1053.7913"
           rx="1.5"
           ry="1.5000087" />
        <rect
           style="color:#000000;clip-rule:nonzero;display:inline;overflow:visible;visibility:visible;opacity:1;isolation:auto;mix-blend-mode:normal;color-interpolation:sRGB;color-interpolation-filters:linearRGB;solid-color:#000000;solid-opacity:1;fill:#c17d11;fill-opacity:1;fill-rule:nonzero;stroke:none;stroke-width:1;stroke-linecap:butt;stroke-linejoin:miter;stroke-miterlimit:4;stroke-dasharray:none;stroke-dashoffset:0;stroke-opacity:1;color-rendering:auto;image-rendering:auto;shape-rendering:auto;text-rendering:auto;enable-background:accumulate"
           id="rect4895"
           width="7.5"
           height="1.0000174"
           x="17.071066"
           y="1052.2913" />
        <rect
           style="color:#000000;clip-rule:nonzero;display:inline;overflow:visible;visibility:visible;opacity:1;isolation:auto;mix-blend-mode:normal;color-interpolation:sRGB;color-interpolation-filters:linearRGB;solid-color:#000000;solid-opacity:1;fill:#8f5902;fill-opacity:1;fill-rule:nonzero;stroke:none;stroke-width:1;stroke-linecap:butt;stroke-linejoin:miter;stroke-miterlimit:4;stroke-dasharray:none;stroke-dashoffset:0;stroke-opacity:1;color-rendering:auto;image-rendering:auto;shape-rendering:auto;text-rendering:auto;enable-background:accumulate"
           id="rect4895-0"
           width="7.5"
           height="1.0000174"
           x="17.071066"
           y="1054.2913" />
        <rect
           style="color:#000000;clip-rule:nonzero;display:inline;overflow:visible;visibility:visible;opacity:1;isolation:auto;mix-blend-mode:normal;color-interpolation:sRGB;color-interpolation-filters:linearRGB;solid-color:#000000;solid-opacity:1;fill:#e9b96e;fill-opacity:1;fill-rule:nonzero;stroke:none;stroke-width:1;stroke-linecap:butt;stroke-linejoin:miter;stroke-miterlimit:4;stroke-dasharray:none;stroke-dashoffset:0;stroke-opacity:1;color-rendering:auto;image-rendering:auto;shape-rendering:auto;text-rendering:auto;enable-background:accumulate"
           id="rect4895-7"
           width="7.5"
           height="1.0000174"
           x="17.071066"
           y="1053.2913" />
        <rect
           y="1052.2913"
           x="14.071066"
           height="3.0000174"
           width="3"
           id="rect4930-9"
           style="color:#000000;clip-rule:nonzero;display:inline;overflow:visible;visibility:visible;opacity:1;isolation:auto;mix-blend-mode:normal;color-interpolation:sRGB;color-interpolation-filters:linearRGB;solid-color:#000000;solid-opacity:1;fill:url(#linearGradient4938-9);fill-opacity:1;fill-rule:nonzero;stroke:none;stroke-width:1;stroke-linecap:butt;stroke-linejoin:miter;stroke-miterlimit:4;stroke-dasharray:none;stroke-dashoffset:0;stroke-opacity:1;color-rendering:auto;image-rendering:auto;shape-rendering:auto;text-rendering:auto;enable-background:accumulate" />
      </g>
    </g>
    <ellipse
       style="opacity:1;fill:url(#radialGradient9652);fill-opacity:1.0;fill-rule:evenodd;stroke:none;stroke-width:1;stroke-linecap:round;stroke-linejoin:round;stroke-miterlimit:4;stroke-dasharray:none;stroke-dashoffset:0;stroke-opacity:1"
       id="path9642"
       cx="9"
       cy="1037.3622"
       rx="6"
       ry="6.0000043" />
    <path
       style="opacity:1;fill:url(#radialGradient9869);fill-opacity:1;fill-rule:evenodd;stroke:none;stroke-width:1;stroke-linecap:round;stroke-linejoin:round;stroke-miterlimit:4;stroke-dasharray:none;stroke-dashoffset:0;stroke-opacity:1"
       d="M 9 5 C 8.446 5 8 5.446 8 6 L 8 8 L 6 8 C 5.446 8 5 8.446 5 9 C 5 9.554 5.446 10 6 10 L 8 10 L 8 12 C 8 12.554 8.446 13 9 13 C 9.554 13 10 12.554 10 12 L 10 10 L 12 10 C 12.554 10 13 9.554 13 9 C 13 8.446 12.554 8 12 8 L 10 8 L 10 6 C 10 5.446 9.554 5 9 5 z "
       transform="translate(0,1028.3622)"
       id="path9865" />
    <path
       style="opacity:0.8;fill:url(#linearGradient7003);fill-opacity:1;fill-rule:evenodd;stroke:none;stroke-width:1;stroke-linecap:round;stroke-linejoin:round;stroke-miterlimit:4;stroke-dasharray:none;stroke-dashoffset:0;stroke-opacity:1"
       d="m 4.7573593,1033.1196 a 6,6 0 0 0 0,8.4852 6,6 0 0 0 8.4852817,0 6,6 0 0 0 0,-8.4852 6,6 0 0 0 -8.4852817,0 z m 0.7071068,0.7071 a 5,5 0 0 1 7.0710679,0 5,5 0 0 1 0,7.071 5,5 0 0 1 -7.0710679,0 5,5 0 0 1 0,-7.071 z"
       id="path6992"
       inkscape:connector-curvature="0" />
    <path
       inkscape:connector-curvature="0"
       id="path10076"
       d="m 8.9999305,1031.3622 a 6,6 0 0 0 -5.9999424,6 6,6 0 0 0 6,6 6,6 0 0 0 5.9999429,-6 6,6 0 0 0 -6.0000005,-6 z m 4.8e-6,1 a 5,5 0 0 1 4.9999997,5 5,5 0 0 1 -4.9999519,5 5,5 0 0 1 -4.9999998,-5 5,5 0 0 1 4.999952,-5 z"
       style="opacity:0.8;fill:url(#linearGradient10079);fill-opacity:1;fill-rule:evenodd;stroke:none;stroke-width:1;stroke-linecap:round;stroke-linejoin:round;stroke-miterlimit:4;stroke-dasharray:none;stroke-dashoffset:0;stroke-opacity:1" />
    <path
       style="opacity:0.778;fill:url(#linearGradient6495);fill-opacity:1;fill-rule:evenodd;stroke:none;stroke-width:1;stroke-linecap:square;stroke-linejoin:round;stroke-miterlimit:4;stroke-dasharray:none;stroke-dashoffset:0;stroke-opacity:1"
       d="m 9,1032.3622 a 2,2 0 0 0 -2,2 l 0,1 -1,0 a 2,2 0 0 0 -2,2 2,2 0 0 0 2,2 l 1,0 0,1 a 2,2 0 0 0 2,2 2,2 0 0 0 2,-2 l 0,-1 1,0 a 2,2 0 0 0 2,-2 2,2 0 0 0 -2,-2 l -1,0 0,-1 a 2,2 0 0 0 -2,-2 z m 0,1 c 0.554,0 1,0.446 1,1 l 0,1.7285 0,0.2715 0.269531,0 1.730469,0 c 0.554,0 1,0.446 1,1 0,0.554 -0.446,1 -1,1 l -1.728516,0 -0.271484,0 0,0.2695 0,1.7305 c 0,0.554 -0.446,1 -1,1 -0.554,0 -1,-0.446 -1,-1 l 0,-1.7285 0,-0.2715 -0.2695312,0 -1.7304688,0 c -0.554,0 -1,-0.446 -1,-1 0,-0.554 0.446,-1 1,-1 l 1.7285156,0 0.2714844,0 0,-0.2695 0,-1.7305 c 0,-0.554 0.446,-1 1,-1 z"
       id="path6462"
       inkscape:connector-curvature="0" />
    <path
       style="opacity:1;fill:url(#linearGradient9619-0);fill-opacity:1;fill-rule:evenodd;stroke:none;stroke-width:1;stroke-linecap:round;stroke-linejoin:round;stroke-miterlimit:4;stroke-dasharray:none;stroke-dashoffset:0;stroke-opacity:1"
       d="m 4.0502759,1032.4124 a 6.9999828,6.9999828 0 0 0 2e-7,9.8995 6.9999828,6.9999828 0 0 0 9.8994479,10e-5 6.9999828,6.9999828 0 0 0 -10e-7,-9.8995 6.9999828,6.9999828 0 0 0 -9.8994471,-10e-5 z m 0.7071038,0.7071 a 6,5.9999957 0 0 1 8.4852403,10e-5 6,5.9999957 0 0 1 0,8.4853 6,5.9999957 0 0 1 -8.4852405,-10e-5 6,5.9999957 0 0 1 2e-7,-8.4853 z"
       id="path6982-0"
       inkscape:connector-curvature="0" />
  </g>
</svg>
