<?xml version="1.0" encoding="UTF-8" standalone="no"?>
<!-- Created with Inkscape (http://www.inkscape.org/) -->

<svg
   xmlns:dc="http://purl.org/dc/elements/1.1/"
   xmlns:cc="http://creativecommons.org/ns#"
   xmlns:rdf="http://www.w3.org/1999/02/22-rdf-syntax-ns#"
   xmlns:svg="http://www.w3.org/2000/svg"
   xmlns="http://www.w3.org/2000/svg"
   xmlns:xlink="http://www.w3.org/1999/xlink"
   xmlns:sodipodi="http://sodipodi.sourceforge.net/DTD/sodipodi-0.dtd"
   xmlns:inkscape="http://www.inkscape.org/namespaces/inkscape"
   width="24"
   height="24"
   viewBox="0 0 24 24"
   id="svg6353"
   version="1.1"
   inkscape:version="0.91 r13725"
   inkscape:export-filename="C:\Users\Lutz\Desktop\qthandles-icons\zoom-in.png"
   inkscape:export-xdpi="90"
   inkscape:export-ydpi="90"
   sodipodi:docname="zoom-in.svg">
  <defs
     id="defs6355">
    <linearGradient
       inkscape:collect="always"
       id="linearGradient6489">
      <stop
         style="stop-color:#ffffff;stop-opacity:1;"
         offset="0"
         id="stop6491" />
      <stop
         style="stop-color:#ffffff;stop-opacity:0;"
         offset="1"
         id="stop6493" />
    </linearGradient>
    <linearGradient
       id="linearGradient9680"
       inkscape:collect="always">
      <stop
         id="stop9682"
         offset="0"
         style="stop-color:#5f9ecd;stop-opacity:1" />
      <stop
         id="stop9684"
         offset="1"
         style="stop-color:#08408e;stop-opacity:1" />
    </linearGradient>
    <linearGradient
       inkscape:collect="always"
       id="linearGradient9644">
      <stop
         style="stop-color:#f2fbff;stop-opacity:1"
         offset="0"
         id="stop9646" />
      <stop
         style="stop-color:#c9efff;stop-opacity:1"
         offset="1"
         id="stop9648" />
    </linearGradient>
    <linearGradient
       inkscape:collect="always"
       id="linearGradient6997">
      <stop
         style="stop-color:#ffffff;stop-opacity:0.39215687"
         offset="0"
         id="stop6999" />
      <stop
         id="stop9815"
         offset="0.14861487"
         style="stop-color:#ffffff;stop-opacity:0.15686275" />
      <stop
         id="stop9813"
         offset="0.5"
         style="stop-color:#ffffff;stop-opacity:0.23529412" />
      <stop
         style="stop-color:#ffffff;stop-opacity:1"
         offset="1"
         id="stop7001" />
    </linearGradient>
    <linearGradient
       id="linearGradient5060">
      <stop
         id="stop5062"
         style="stop-color:#000000;stop-opacity:1"
         offset="0" />
      <stop
         id="stop5064"
         style="stop-color:#000000;stop-opacity:0"
         offset="1" />
    </linearGradient>
    <linearGradient
       inkscape:collect="always"
       xlink:href="#linearGradient6997"
       id="linearGradient7003"
       x1="9"
       y1="14"
       x2="9"
       y2="3"
       gradientUnits="userSpaceOnUse"
       gradientTransform="matrix(0.70710678,-0.70710678,0.70710678,0.70710678,-3.7279221,1037.3622)" />
    <linearGradient
       inkscape:collect="always"
       xlink:href="#linearGradient4865"
       id="linearGradient7011"
       x1="8.875"
       y1="2.7084866"
       x2="8.875"
       y2="14.14483"
       gradientUnits="userSpaceOnUse" />
    <linearGradient
       inkscape:collect="always"
       id="linearGradient8647-7">
      <stop
         style="stop-color:#408bc4;stop-opacity:1"
         offset="0"
         id="stop8649-8" />
      <stop
         style="stop-color:#062f68;stop-opacity:1"
         offset="1"
         id="stop8651-1" />
    </linearGradient>
    <linearGradient
       inkscape:collect="always"
       xlink:href="#linearGradient9680"
       id="linearGradient9619"
       x1="9"
       y1="1"
       x2="9"
       y2="17"
       gradientUnits="userSpaceOnUse"
       gradientTransform="translate(0,1028.3622)" />
    <radialGradient
       inkscape:collect="always"
       xlink:href="#linearGradient9644"
       id="radialGradient9652"
       cx="9.0302782"
       cy="1035.6385"
       fx="9.0302782"
       fy="1035.6385"
       r="5"
       gradientUnits="userSpaceOnUse"
       gradientTransform="matrix(1.7515432,0,0,1.2000009,-6.7638897,-207.47329)" />
    <radialGradient
       inkscape:collect="always"
       xlink:href="#linearGradient8647-7"
       id="radialGradient9869"
       gradientUnits="userSpaceOnUse"
       gradientTransform="matrix(1.5208333,0,0,1.5208333,-4.825607,-4.9177)"
       cx="9.2240696"
       cy="9.318655"
       fx="9.2240696"
       fy="9.318655"
       r="3" />
    <linearGradient
       inkscape:collect="always"
       xlink:href="#linearGradient6997"
       id="linearGradient10079"
       gradientUnits="userSpaceOnUse"
       gradientTransform="translate(-4.0727324e-5,1028.3622)"
       x1="9"
       y1="14"
       x2="9"
       y2="3" />
    <linearGradient
       inkscape:collect="always"
       xlink:href="#linearGradient9666"
       id="linearGradient9672"
       x1="40"
       y1="1044.3622"
       x2="40"
       y2="1050.3622"
       gradientUnits="userSpaceOnUse"
       gradientTransform="translate(-767.16188,-294.18528)" />
    <linearGradient
       inkscape:collect="always"
       id="linearGradient9666">
      <stop
         style="stop-color:#ffffff;stop-opacity:1"
         offset="0"
         id="stop9668" />
      <stop
         id="stop9676"
         offset="0.14745924"
         style="stop-color:#ffffff;stop-opacity:0.23529412" />
      <stop
         id="stop9674"
         offset="0.86193174"
         style="stop-color:#ffffff;stop-opacity:0.15686275" />
      <stop
         style="stop-color:#ffffff;stop-opacity:0.39215687"
         offset="1"
         id="stop9670" />
    </linearGradient>
    <linearGradient
       inkscape:collect="always"
       xlink:href="#linearGradient9817"
       id="linearGradient9823"
       x1="-727.20874"
       y1="749.03888"
       x2="-727.16187"
       y2="756.02325"
       gradientUnits="userSpaceOnUse"
       gradientTransform="translate(-4.6458669e-5,0.55982198)" />
    <linearGradient
       inkscape:collect="always"
       id="linearGradient9817">
      <stop
         style="stop-color:#e7b464;stop-opacity:1"
         offset="0"
         id="stop9819" />
      <stop
         id="stop9827"
         offset="0.13469367"
         style="stop-color:#b87710;stop-opacity:1" />
      <stop
         id="stop9825"
         offset="0.86201411"
         style="stop-color:#9e6202;stop-opacity:1" />
      <stop
         style="stop-color:#815002;stop-opacity:1"
         offset="1"
         id="stop9821" />
    </linearGradient>
    <linearGradient
       gradientTransform="translate(-2.6458669e-5,2.1977773e-5)"
       inkscape:collect="always"
       xlink:href="#linearGradient5509"
       id="linearGradient5515"
       x1="-727.17749"
       y1="746.90662"
       x2="-727.16644"
       y2="749.138"
       gradientUnits="userSpaceOnUse" />
    <linearGradient
       inkscape:collect="always"
       id="linearGradient5509">
      <stop
         style="stop-color:#494b47;stop-opacity:1"
         offset="0"
         id="stop5511" />
      <stop
         id="stop5519"
         offset="0.10606515"
         style="stop-color:#797b76;stop-opacity:1" />
      <stop
         id="stop5517"
         offset="0.92555153"
         style="stop-color:#babdb6;stop-opacity:1" />
      <stop
         style="stop-color:#d3d7cf;stop-opacity:1"
         offset="1"
         id="stop5513" />
    </linearGradient>
    <linearGradient
       id="linearGradient4865">
      <stop
         id="stop4867"
         style="stop-color:#729fcf;stop-opacity:1"
         offset="0" />
      <stop
         id="stop4869"
         style="stop-color:#204a87;stop-opacity:1"
         offset="1" />
    </linearGradient>
    <radialGradient
       inkscape:collect="always"
       xlink:href="#linearGradient5060"
       id="radialGradient11096-3"
       gradientUnits="userSpaceOnUse"
       gradientTransform="matrix(0.65573772,0,0,0.24590164,3.4799128,1039.0111)"
       cx="23.668133"
       cy="44.129044"
       fx="23.668133"
       fy="44.129044"
       r="6.0999999" />
    <linearGradient
       inkscape:collect="always"
       xlink:href="#linearGradient6489"
       id="linearGradient6495"
       x1="8.96875"
       y1="1040.1837"
       x2="8.96875"
       y2="1035.5497"
       gradientUnits="userSpaceOnUse" />
  </defs>
  <sodipodi:namedview
     id="base"
     pagecolor="#ffffff"
     bordercolor="#666666"
     borderopacity="1.0"
     inkscape:pageopacity="0.0"
     inkscape:pageshadow="2"
     inkscape:zoom="1"
     inkscape:cx="9.5557544"
     inkscape:cy="16.298875"
     inkscape:document-units="px"
     inkscape:current-layer="layer1"
     showgrid="false"
     units="px"
     inkscape:snap-bbox="true"
     inkscape:bbox-nodes="true"
     showguides="true"
     inkscape:snap-nodes="false"
     inkscape:snap-global="true"
     inkscape:object-paths="true"
     inkscape:snap-smooth-nodes="true"
     inkscape:snap-intersection-paths="true"
     inkscape:object-nodes="true"
     inkscape:snap-midpoints="true">
    <inkscape:grid
       type="xygrid"
       id="grid6901"
       empspacing="12"
       originx="0"
       originy="0" />
  </sodipodi:namedview>
  <metadata
     id="metadata6358">
    <rdf:RDF>
      <cc:Work
         rdf:about="">
        <dc:format>image/svg+xml</dc:format>
        <dc:type
           rdf:resource="http://purl.org/dc/dcmitype/StillImage" />
        <dc:title />
      </cc:Work>
    </rdf:RDF>
  </metadata>
  <g
     inkscape:label="Ebene 1"
     inkscape:groupmode="layer"
     id="layer1"
     transform="translate(0,-1028.3622)">
    <path
       d="m 23,1049.8625 a 4.0000001,1.5 0 0 1 -8,0 4.0000001,1.5 0 1 1 8,0 z"
       id="path11082-5"
       style="color:#000000;display:inline;overflow:visible;visibility:visible;opacity:0.4;fill:url(#radialGradient11096-3);fill-opacity:1;fill-rule:nonzero;stroke:none;stroke-width:1;marker:none;enable-background:accumulate"
       inkscape:connector-curvature="0" />
    <rect
       style="opacity:1;fill:url(#linearGradient5515);fill-opacity:1;fill-rule:evenodd;stroke:none;stroke-width:1;stroke-linecap:round;stroke-linejoin:round;stroke-miterlimit:4;stroke-dasharray:none;stroke-dashoffset:0;stroke-opacity:1"
       id="rect9678"
       width="2"
       height="4.0000172"
       x="-728.16187"
       y="746.20349"
       transform="matrix(0.70710678,-0.70710678,0.70710678,0.70710678,0,0)" />
    <rect
       style="opacity:1;fill:#c17d11;fill-opacity:1;fill-rule:evenodd;stroke:url(#linearGradient9823);stroke-width:1;stroke-linecap:round;stroke-linejoin:round;stroke-miterlimit:4;stroke-dasharray:none;stroke-dashoffset:0;stroke-opacity:1"
       id="rect9654"
       width="3"
       height="7"
       x="-728.66187"
       y="749.67682"
       ry="1.005227"
       transform="matrix(0.70710678,-0.70710678,0.70710678,0.70710678,0,0)" />
    <rect
       style="opacity:0.8;fill:url(#linearGradient9672);fill-opacity:1;fill-rule:evenodd;stroke:none;stroke-width:1;stroke-linecap:round;stroke-linejoin:round;stroke-miterlimit:4;stroke-dasharray:none;stroke-dashoffset:0;stroke-opacity:1"
       id="rect9656"
       width="2"
       height="6"
       x="-728.16187"
       y="750.17682"
       ry="0.54137862"
       transform="matrix(0.70710678,-0.70710678,0.70710678,0.70710678,0,0)" />
    <ellipse
       style="opacity:1;fill:url(#radialGradient9652);fill-opacity:1;fill-rule:evenodd;stroke:none;stroke-width:1;stroke-linecap:round;stroke-linejoin:round;stroke-miterlimit:4;stroke-dasharray:none;stroke-dashoffset:0;stroke-opacity:1"
       id="path9642"
       cx="9"
       cy="1037.3622"
       rx="6"
       ry="6.0000043" />
    <path
       style="opacity:1;fill:url(#linearGradient9619);fill-opacity:1;fill-rule:evenodd;stroke:none;stroke-width:1;stroke-linecap:round;stroke-linejoin:round;stroke-miterlimit:4;stroke-dasharray:none;stroke-dashoffset:0;stroke-opacity:1"
       d="m 9,1030.3622 a 6.9999828,6.9999828 0 0 0 -7,7 6.9999828,6.9999828 0 0 0 7,7 6.9999828,6.9999828 0 0 0 7,-7 6.9999828,6.9999828 0 0 0 -7,-7 z m 0,1 a 6,5.9999957 0 0 1 6,6 6,5.9999957 0 0 1 -6,6 6,5.9999957 0 0 1 -6,-6 6,5.9999957 0 0 1 6,-6 z"
       id="path6982"
       inkscape:connector-curvature="0" />
    <path
       style="opacity:0.4;fill:url(#linearGradient7011);fill-opacity:1;fill-rule:evenodd;stroke:none;stroke-width:1;stroke-linecap:round;stroke-linejoin:round;stroke-miterlimit:4;stroke-dasharray:none;stroke-dashoffset:0;stroke-opacity:1"
       d="M 9 2 A 7 7 0 0 0 2 9 A 7 7 0 0 0 9 16 A 7 7 0 0 0 16 9 A 7 7 0 0 0 9 2 z M 9 3 A 6 5.9999957 0 0 1 10.773438 3.2675781 A 6 5.9999957 0 0 1 11.876953 3.734375 A 6 5.9999957 0 0 1 14.984375 8.5761719 A 6 6 0 0 1 15 9 A 6 5.9999957 0 0 1 9 15 A 6 5.9999957 0 0 1 3 9 A 6 6 0 0 1 3.0292969 8.4003906 A 6 5.9999957 0 0 1 9 3 z "
       id="path6987"
       transform="translate(0,1028.3622)" />
    <path
       style="opacity:1;fill:url(#radialGradient9869);fill-opacity:1;fill-rule:evenodd;stroke:none;stroke-width:1;stroke-linecap:round;stroke-linejoin:round;stroke-miterlimit:4;stroke-dasharray:none;stroke-dashoffset:0;stroke-opacity:1"
       d="M 9 5 C 8.446 5 8 5.446 8 6 L 8 8 L 6 8 C 5.446 8 5 8.446 5 9 C 5 9.554 5.446 10 6 10 L 8 10 L 8 12 C 8 12.554 8.446 13 9 13 C 9.554 13 10 12.554 10 12 L 10 10 L 12 10 C 12.554 10 13 9.554 13 9 C 13 8.446 12.554 8 12 8 L 10 8 L 10 6 C 10 5.446 9.554 5 9 5 z "
       transform="translate(0,1028.3622)"
       id="path9865" />
    <path
       style="opacity:0.8;fill:url(#linearGradient7003);fill-opacity:1;fill-rule:evenodd;stroke:none;stroke-width:1;stroke-linecap:round;stroke-linejoin:round;stroke-miterlimit:4;stroke-dasharray:none;stroke-dashoffset:0;stroke-opacity:1"
       d="m 4.7573593,1033.1196 a 6,6 0 0 0 0,8.4852 6,6 0 0 0 8.4852817,0 6,6 0 0 0 0,-8.4852 6,6 0 0 0 -8.4852817,0 z m 0.7071068,0.7071 a 5,5 0 0 1 7.0710679,0 5,5 0 0 1 0,7.071 5,5 0 0 1 -7.0710679,0 5,5 0 0 1 0,-7.071 z"
       id="path6992"
       inkscape:connector-curvature="0" />
    <path
       inkscape:connector-curvature="0"
       id="path10076"
       d="m 8.9999305,1031.3622 a 6,6 0 0 0 -5.9999424,6 6,6 0 0 0 6,6 6,6 0 0 0 5.9999429,-6 6,6 0 0 0 -6.0000005,-6 z m 4.8e-6,1 a 5,5 0 0 1 4.9999997,5 5,5 0 0 1 -4.9999519,5 5,5 0 0 1 -4.9999998,-5 5,5 0 0 1 4.999952,-5 z"
       style="opacity:0.8;fill:url(#linearGradient10079);fill-opacity:1;fill-rule:evenodd;stroke:none;stroke-width:1;stroke-linecap:round;stroke-linejoin:round;stroke-miterlimit:4;stroke-dasharray:none;stroke-dashoffset:0;stroke-opacity:1" />
    <path
       style="opacity:0.778;fill:url(#linearGradient6495);fill-opacity:1;fill-rule:evenodd;stroke:none;stroke-width:1;stroke-linecap:square;stroke-linejoin:round;stroke-miterlimit:4;stroke-dasharray:none;stroke-dashoffset:0;stroke-opacity:1"
       d="m 9,1032.3622 a 2,2 0 0 0 -2,2 l 0,1 -1,0 a 2,2 0 0 0 -2,2 2,2 0 0 0 2,2 l 1,0 0,1 a 2,2 0 0 0 2,2 2,2 0 0 0 2,-2 l 0,-1 1,0 a 2,2 0 0 0 2,-2 2,2 0 0 0 -2,-2 l -1,0 0,-1 a 2,2 0 0 0 -2,-2 z m 0,1 c 0.554,0 1,0.446 1,1 l 0,1.7285 0,0.2715 0.269531,0 1.730469,0 c 0.554,0 1,0.446 1,1 0,0.554 -0.446,1 -1,1 l -1.728516,0 -0.271484,0 0,0.2695 0,1.7305 c 0,0.554 -0.446,1 -1,1 -0.554,0 -1,-0.446 -1,-1 l 0,-1.7285 0,-0.2715 -0.2695312,0 -1.7304688,0 c -0.554,0 -1,-0.446 -1,-1 0,-0.554 0.446,-1 1,-1 l 1.7285156,0 0.2714844,0 0,-0.2695 0,-1.7305 c 0,-0.554 0.446,-1 1,-1 z"
       id="path6462"
       inkscape:connector-curvature="0" />
  </g>
</svg>
